<svg xmlns="http://www.w3.org/2000/svg" viewBox="0 0 1609.1 345.37"><g id="Layer_2" data-name="Layer 2"><g id="Layer_1-2" data-name="Layer 1"><path d="M740.81,319.79v-95.3h68.35V235H752.39v30.53h49.4v10.53h-49.4v33.26h58.25v10.46Zm137-95.3c31.79,0,48.07,19.58,48.07,47.72,0,29.19-16.35,47.58-48.21,47.58H838.81v-95.3Zm-27.44,10.59v74.11h26.74c24.63,0,37-13.33,37-37,0-22.95-12.35-37.13-37-37.13Zm103.2-10.59h11.58v60.63c0,16.14,11.93,25.19,29.61,25.19,18.1,0,29.75-9.54,29.75-25.19V224.49h11.58v61.26c0,22.95-17.82,35.44-41.33,35.44-24.56,0-41.19-12.77-41.19-35.44Zm163.89,96.7c-32.14,0-54.1-20-54.1-49.12s21.61-49,53.33-49c12.28,0,22.88,3,28.91,6l-1.19,10.88a68.91,68.91,0,0,0-27.79-5.76c-24.42,0-41,15.37-41,37.9s17.33,38.1,42.6,38.1c14.66,0,24.35-4.63,27.15-6.17l1.9,11C1144.71,316.14,1134.54,321.19,1117.48,321.19Zm135.62-1.4H1241l-8.84-22.11H1181.8L1173,319.79h-12.28l39.44-95.3h13.61Zm-67.65-32h42.88l-21.41-51.23Zm111.33-52.5v84.5h-11.51v-84.5h-31.93v-10.8h75.3v10.8Zm55.27-10.8h11.58v95.3h-11.58Zm89.78-1.41c29,0,50.46,20.78,50.46,49.55,0,28.56-21.48,48.63-50.46,48.63-28.49,0-50-20.07-50-48.63C1391.87,243.86,1413.34,223.08,1441.83,223.08Zm0,87.3c22.53,0,38.53-15.44,38.53-37.82s-15.93-38.6-38.53-38.6c-22.1,0-38,16.14-38,38.6S1419.73,310.38,1441.83,310.38Zm167.27,9.41H1597L1532.19,242v77.83h-11.65v-95.3h12.14l64.84,78.1v-78.1h11.58Zm-868.29-169V55.51h68.35V66H752.39V96.56h49.4v10.53h-49.4v33.26h58.25v10.46ZM870.67,66.32v84.49H859.16V66.32H827.23V55.51h75.3V66.32Zm124.11,40.91H937.51v43.58H925.94V55.51h11.57v41.2h57.27V55.51h11.58v95.3H994.78Zm46.56-51.72h11.58v95.3h-11.58Zm93.93,96.7c-32.14,0-54.11-20-54.11-49.12s21.62-49,53.34-49c12.28,0,22.87,3,28.91,6L1162.22,71a69,69,0,0,0-27.79-5.75c-24.42,0-41,15.36-41,37.89s17.34,38.11,42.6,38.11c14.67,0,24.35-4.64,27.16-6.18l1.89,11C1162.5,147.16,1152.32,152.21,1135.27,152.21Zm135.61-1.4h-12.14l-8.84-22.11h-50.32l-8.84,22.11h-12.28l39.44-95.3h13.61Zm-67.65-32h42.88l-21.4-51.23Zm89.79,32V55.51h11.65v84.77h55.93v10.53ZM601.5,306l-228.12-1.15c-32.86-.17-54.88,6.92-68.89,14.3-13.93-7.52-35.88-14.83-68.74-15L7.63,303a7.69,7.69,0,0,0-7.58,7.79l0,10.44a7.69,7.69,0,0,0,7.5,7.86l228.12,1.15c28.41.14,46.53,6.43,57.14,12.12a24.64,24.64,0,0,0,23.23.12c10.66-5.59,28.84-11.69,57.26-11.55l228.12,1.15a7.69,7.69,0,0,0,7.58-7.79l0-10.44A7.69,7.69,0,0,0,601.5,306ZM266.37,266.17c-26-9.54-55.59-13-108.6-15.59-73.67-3.55-141-16.93-141-16.93l27,58.13,192,1c32.85.17,54.81,7.48,68.74,15h0S295.48,276.83,266.37,266.17ZM263.48,231c-23.54-15-48.85-21.64-104.77-26.68-73.47-6.62-118.93-22-118.93-22l20.6,44.38c26,3.76,60.92,7.95,97.46,9.69,53,2.56,82.57,6.06,108.59,15.6,17.1,6.26,27.28,19.49,32.79,29.35C298.76,279.42,291.16,248.63,263.48,231Zm41.07,76.72h0c14-7.36,36-14.46,68.89-14.29l192,1L593,236.55s-67.41,12.7-141.12,15.51c-53,2-82.62,5.22-108.74,14.49C313.93,276.92,304.55,307.73,304.55,307.73Zm5.59-26.35c5.61-9.81,15.93-22.93,33.08-29,26.12-9.27,55.72-12.47,108.75-14.5,36.56-1.38,71.55-5.21,97.55-8.71l21-44.17S525,199.92,451.42,205.8c-56,4.48-81.35,10.9-105,25.63C318.53,248.76,310.62,279.48,310.14,281.38Z" fill="#2d5b6f"/><path d="M301.11,204.37s.14-36.12,19.46-46.74,32-6.49,45.73-10.4S393,128.77,393,128.77s-12,38-25.71,42.51-22.4-1.06-38.17,3.62C316.48,178.65,301.11,204.37,301.11,204.37Z" fill="#f7bc55"/><path d="M305.1,112.7s12-10.52,12.51-26.77-8.18-21.68-10.21-32,3.15-23.73,3.15-23.73-20.93,20.64-19.27,31.16,9.09,16.32,11.6,26.66C305.19,97.62,305.1,112.7,305.1,112.7Z" fill="#d58b8c"/><path d="M255,178.24s-12-18.65-7.11-39.43,17.84-23.8,23.92-35.92,3.94-31.42,3.94-31.42,20,35.41,14.34,48S272.88,136.06,266.18,148C260,159.11,255,178.24,255,178.24Z" fill="#9883c2"/><path d="M446.14,151.94s23.07-9.93,28.94-27,1.65-24.92-1.53-35.79c-2.67-9.14-3.86-23.73-3.86-23.73s-16,16.94-17.49,28.37,5.34,19,4.9,30.47C456.68,134.81,446.14,151.94,446.14,151.94Z" fill="#9883c2"/><path d="M439.37,108.68s-15.88-14.22-16-29.55,5.41-20.5,10.9-28.39c4.62-6.64,9.52-18.06,9.52-18.06s8.3,18,6.41,27.56S440.75,74.13,438,83.44C435.51,92.05,439.37,108.68,439.37,108.68Z" fill="#57cad7"/><path d="M188.39,127.5s-15.14-13.47-15.31-28,5.07-19.51,10.26-27c4.37-6.32,9-17.19,9-17.19s7.95,17,6.19,26.17S189.59,94.65,187,103.51C184.67,111.7,188.39,127.5,188.39,127.5Z" fill="#f7bc55"/><path d="M232.79,178.26c8.47-6.9,2.32-16.83-2.15-20.67S215.1,146.5,212.8,139.83,207,108.68,207,108.68s-8.72,32.29-6.9,46.2c1.46,11.17,5.29,15.72,9.75,19.57S225.61,184.11,232.79,178.26Z" fill="#d58b8c"/><path d="M226.43,129.1s-.88-20.7-4.24-38C218,69.8,204,48.82,204,48.82S229.18,62,235,68.55s6.91,21.7,6.91,21.7,2.38-1.46,5.65-6.8A19.79,19.79,0,0,0,250.28,74s12.09,15.45,3.62,30.12S226.43,129.1,226.43,129.1Z" fill="#57cad7"/><path d="M392.23,166.47a253,253,0,0,0,17.52-27c8.7-16.11,10.76-37.27,10.76-37.27s9.38,22,9.63,29.39-7.09,17.81-7.09,17.81,2.32.33,7.31-1.4a16.68,16.68,0,0,0,6.84-4.69s-.39,16.51-13.73,21.54S392.23,166.47,392.23,166.47Z" fill="#d58b8c"/><path d="M550.29,157.94s-19,16.59-33.37,16c-11-.43-22.37-7.18-28.58-11.51-28,17.83-64.14,20.46-88,24.48-7.13,1.2-14.52,2.45-21.72,3.93a118.74,118.74,0,0,0-20.75,6.34,252.56,252.56,0,0,0-44.49,23.59,109.46,109.46,0,0,1,40.74-29.59,128.48,128.48,0,0,1,23.11-7.13c7.32-1.51,14.76-2.76,22-4,35.55-6,91.27-10.21,115.61-60.53h0c-2.6-9.16-6.5-27.26-1.74-40.84,4.38-12.52,21-29.9,21-29.9s13.72,26.35,9.1,42.59c-3.5,12.32-14.09,23.3-20.79,29.26a83.83,83.83,0,0,1-17.26,28,42.29,42.29,0,0,1,16.24-2.08C532.61,147.66,550.29,157.94,550.29,157.94Z" fill="#7bce8a"/><path d="M281.86,219.28c-.39-.37-13-12-38.89-20.39a125.45,125.45,0,0,0-13.16-3.48c-6.79-1.42-13.6-2.62-20.18-3.78-28.85-5.1-56.15-9.93-75-31.5h0c-7.33,1.73-25.67,5.21-36.4-.31-15.55-8-25.53-29.71-25.53-29.71s26.53-4.15,42.22,5.15a46.15,46.15,0,0,1,8,6.43c-5.91-12.73-9.47-27.19-11.62-39.49-3.06-9-7.11-24.68-3.7-37.09s18.14-30,18.14-30,14.85,24.3,11.51,40.14C134.7,87.53,125,98.94,119,105c3.2,16.52,9,35.93,19.34,48.73a65.15,65.15,0,0,0,22.59,17.75c-4.86-5.16-9.62-11.59-10.79-17.86-3-15.8,7.19-35.29,7.19-35.29s18,16.92,20.06,33.56c.92,7.35-1.44,18.38-3.1,24.87,11.15,3.56,23.47,5.73,36.58,8.05,6.63,1.17,13.49,2.38,20.38,3.82a135.57,135.57,0,0,1,16.27,4.45C274,202.28,281.67,218.84,281.86,219.28Z" fill="#7bce8a"/><path d="M407.15,105.19s-16.43,15.72-31.85,16.86c-7.81.57-19.86-3.07-25-4.79-7.41,5.26-16.46,9.06-25.33,12.78-10.32,4.33-20.06,8.42-26.88,14.46-3.67,3.25-6.22,7.79-8,12.76-5.34,15.07-6.92,34.86-6.92,34.86s-5.55-21.34.74-38.08a36.62,36.62,0,0,1,9.56-14.73c7.69-6.79,18.42-11.3,28.8-15.66,13.19-5.54,26.84-11.26,33.31-21.47,7.79-12.28,8.5-29.19,8.13-38.83-6.44-4.77-19.05-15.24-21.67-25.87C338,21.07,347.48,0,347.48,0s19.87,16.71,23,34.06c1.08,5.87.26,14.12-.81,20.76l.24,0c.17,1.16,3.75,26.92-6.14,46.82A27.87,27.87,0,0,1,375,96.89C389.69,94.92,407.15,105.19,407.15,105.19Z" fill="#7bce8a"/></g></g></svg>