<svg xmlns="http://www.w3.org/2000/svg" xmlns:xlink="http://www.w3.org/1999/xlink" viewBox="0 0 524.1 550"><defs><style>.cls-1{isolation:isolate;}.cls-2{fill:#d58b8c;}.cls-3{fill:none;stroke:#f7bc55;stroke-miterlimit:10;stroke-width:3.45px;}.cls-4{fill:#172e38;}.cls-5{fill:#2d5b6f;}.cls-10,.cls-11,.cls-13,.cls-14,.cls-17,.cls-18,.cls-19,.cls-20,.cls-21,.cls-22,.cls-24,.cls-26,.cls-28,.cls-6,.cls-7,.cls-9{mix-blend-mode:multiply;}.cls-6{fill:url(#linear-gradient);}.cls-7{fill:url(#linear-gradient-2);}.cls-8{fill:#0b272d;}.cls-9{fill:url(#linear-gradient-3);}.cls-10{fill:url(#linear-gradient-4);}.cls-11{fill:url(#linear-gradient-5);}.cls-12{fill:#577c8c;}.cls-13{fill:url(#linear-gradient-6);}.cls-14{fill:url(#linear-gradient-7);}.cls-15,.cls-20{fill:#b98d40;}.cls-16{fill:#f7bc55;}.cls-17{fill:url(#linear-gradient-8);}.cls-18{fill:url(#linear-gradient-9);}.cls-19{fill:url(#linear-gradient-10);}.cls-21{fill:url(#linear-gradient-11);}.cls-23{fill:url(#linear-gradient-12);}.cls-24{fill:url(#linear-gradient-13);}.cls-25{fill:url(#linear-gradient-14);}.cls-26{fill:url(#linear-gradient-15);}.cls-27{fill:url(#linear-gradient-16);}.cls-28{fill:url(#linear-gradient-17);}.cls-29{fill:url(#linear-gradient-18);}</style><linearGradient id="linear-gradient" x1="19.52" y1="374.91" x2="177.13" y2="374.91" gradientUnits="userSpaceOnUse"><stop offset="0" stop-color="#15b5c6"/><stop offset="0.1" stop-color="#22b9c9"/><stop offset="0.27" stop-color="#43c4d1"/><stop offset="0.5" stop-color="#79d5de"/><stop offset="0.79" stop-color="#c3ecf0"/><stop offset="1" stop-color="#fff"/></linearGradient><linearGradient id="linear-gradient-2" x1="432.35" y1="358.09" x2="432.35" y2="367.41" gradientTransform="matrix(-1, 0, 0, 1, 530.68, 0)" gradientUnits="userSpaceOnUse"><stop offset="0" stop-color="#fff"/><stop offset="0.14" stop-color="#dbe3e6"/><stop offset="0.45" stop-color="#91a9b3"/><stop offset="0.71" stop-color="#5b7f8e"/><stop offset="0.9" stop-color="#3a6578"/><stop offset="1" stop-color="#2d5b6f"/></linearGradient><linearGradient id="linear-gradient-3" x1="89.87" y1="161.4" x2="263.94" y2="161.4" gradientUnits="userSpaceOnUse"><stop offset="0" stop-color="#fff"/><stop offset="1" stop-color="#d58b8c"/></linearGradient><linearGradient id="linear-gradient-4" x1="262.05" y1="161.4" x2="434.23" y2="161.4" gradientUnits="userSpaceOnUse"><stop offset="0" stop-color="#d58b8c"/><stop offset="1" stop-color="#fff"/></linearGradient><linearGradient id="linear-gradient-5" x1="167.81" y1="416.52" x2="356.29" y2="416.52" xlink:href="#linear-gradient"/><linearGradient id="linear-gradient-6" x1="262.05" y1="406.09" x2="262.05" y2="393.99" xlink:href="#linear-gradient"/><linearGradient id="linear-gradient-7" x1="262.05" y1="404.71" x2="262.05" y2="395.38" xlink:href="#linear-gradient"/><linearGradient id="linear-gradient-8" x1="237.22" y1="258.54" x2="286.88" y2="258.54" gradientUnits="userSpaceOnUse"><stop offset="0" stop-color="#f7bc55"/><stop offset="0.12" stop-color="#f8c162"/><stop offset="0.35" stop-color="#f9ce83"/><stop offset="0.65" stop-color="#fce3b9"/><stop offset="1" stop-color="#fff"/></linearGradient><linearGradient id="linear-gradient-9" x1="346.96" y1="374.91" x2="504.58" y2="374.91" xlink:href="#linear-gradient"/><linearGradient id="linear-gradient-10" x1="425.77" y1="358.09" x2="425.77" y2="367.41" gradientTransform="matrix(1, 0, 0, 1, 0, 0)" xlink:href="#linear-gradient-2"/><linearGradient id="linear-gradient-11" x1="398.12" y1="166.27" x2="416.89" y2="166.27" xlink:href="#linear-gradient-4"/><linearGradient id="linear-gradient-12" x1="268.4" y1="171.93" x2="359.82" y2="171.93" xlink:href="#linear-gradient-4"/><linearGradient id="linear-gradient-13" x1="332.92" y1="163.5" x2="421.29" y2="163.5" xlink:href="#linear-gradient-4"/><linearGradient id="linear-gradient-14" x1="286.28" y1="160.67" x2="308.61" y2="160.67" xlink:href="#linear-gradient-4"/><linearGradient id="linear-gradient-15" x1="404.7" y1="166.27" x2="423.47" y2="166.27" gradientTransform="matrix(-1, 0, 0, 1, 530.68, 0)" xlink:href="#linear-gradient-4"/><linearGradient id="linear-gradient-16" x1="274.98" y1="171.93" x2="366.4" y2="171.93" gradientTransform="matrix(-1, 0, 0, 1, 530.68, 0)" xlink:href="#linear-gradient-4"/><linearGradient id="linear-gradient-17" x1="339.5" y1="163.5" x2="427.87" y2="163.5" gradientTransform="matrix(-1, 0, 0, 1, 530.68, 0)" xlink:href="#linear-gradient-4"/><linearGradient id="linear-gradient-18" x1="237.81" y1="160.67" x2="215.49" y2="160.67" xlink:href="#linear-gradient-4"/></defs><g class="cls-1"><g id="Layer_1" data-name="Layer 1"><path class="cls-2" d="M262.05,132.2a33.36,33.36,0,0,0-11.21,2.56,32.79,32.79,0,0,0-9.71,6.25l-.58.55c-8.84,8.66-42,18.76-74.44,12.14-19.72-4-22.8-10.87-41.29-10.66-8,.1-23.16.28-30.64,11-3.86,5.51-6.35,14.78-2.07,22.79.35.65,5.39,9.67,15.39,10.36,7.3.5,16.18-3.55,18.06-11.25,1.6-6.55-1.93-15.51-8.29-16.58-5.11-.85-9.48,3.81-10.06,4.44a37.74,37.74,0,0,1,5.58-3.91c7.62-3.89,36.26,11.52,36.26,11.52,13,7.29,27.29,9.92,55.89,15.17a255,255,0,0,0,59,3.72h-3.78l1.89.08Z"/><path class="cls-3" d="M107.21,163.76q24,97.89,48.08,195.77"/><circle class="cls-4" cx="154.92" cy="359.5" r="3.89"/><ellipse class="cls-5" cx="98.33" cy="362.75" rx="78.81" ry="4.66"/><path class="cls-5" d="M177.13,362.75l-35.07,19.66c0,2.57-19.58,4.66-43.73,4.66S54.59,385,54.59,382.41L19.52,362.75Z"/><path class="cls-6" d="M177.13,362.75l-35.07,19.66c0,2.57-19.58,4.66-43.73,4.66S54.59,385,54.59,382.41L19.52,362.75Z"/><ellipse class="cls-7" cx="98.33" cy="362.75" rx="78.81" ry="4.66"/><circle class="cls-8" cx="107.09" cy="163.76" r="3.5"/><path class="cls-3" d="M107.21,163.76,53.3,366.58"/><circle class="cls-4" cx="53.3" cy="366.58" r="4.14"/><path class="cls-3" d="M416.89,163.76q-24,97.89-48.08,195.77"/><path class="cls-9" d="M262.05,132.2a33.36,33.36,0,0,0-11.21,2.56,32.79,32.79,0,0,0-9.71,6.25l-.58.55c-8.84,8.66-42,18.76-74.44,12.14-19.72-4-22.8-10.87-41.29-10.66-8,.1-23.16.28-30.64,11-3.86,5.51-6.35,14.78-2.07,22.79.35.65,5.39,9.67,15.39,10.36,7.3.5,16.18-3.55,18.06-11.25,1.6-6.55-1.93-15.51-8.29-16.58-5.11-.85-9.48,3.81-10.06,4.44a37.74,37.74,0,0,1,5.58-3.91c7.62-3.89,36.26,11.52,36.26,11.52,13,7.29,27.29,9.92,55.89,15.17a255,255,0,0,0,59,3.72h-3.78l1.89.08Z"/><path class="cls-2" d="M262.05,190.34a253.61,253.61,0,0,0,57.11-3.8c28.6-5.25,42.91-7.88,55.88-15.17,0,0,28.65-15.41,36.27-11.52a37.74,37.74,0,0,1,5.58,3.91c-.58-.63-4.95-5.29-10.06-4.44-6.36,1.07-9.89,10-8.29,16.58,1.88,7.7,10.76,11.75,18.06,11.25,10-.69,15-9.71,15.39-10.36,4.27-8,1.79-17.28-2.07-22.79-7.48-10.68-22.59-10.86-30.64-11-18.49-.21-21.57,6.64-41.29,10.66-32.46,6.62-65.6-3.48-74.44-12.14L283,141a32.79,32.79,0,0,0-9.71-6.25,33.41,33.41,0,0,0-11.21-2.56Z"/><path class="cls-10" d="M262.05,190.34a253.61,253.61,0,0,0,57.11-3.8c28.6-5.25,42.91-7.88,55.88-15.17,0,0,28.65-15.41,36.27-11.52a37.74,37.74,0,0,1,5.58,3.91c-.58-.63-4.95-5.29-10.06-4.44-6.36,1.07-9.89,10-8.29,16.58,1.88,7.7,10.76,11.75,18.06,11.25,10-.69,15-9.71,15.39-10.36,4.27-8,1.79-17.28-2.07-22.79-7.48-10.68-22.59-10.86-30.64-11-18.49-.21-21.57,6.64-41.29,10.66-32.46,6.62-65.6-3.48-74.44-12.14L283,141a32.79,32.79,0,0,0-9.71-6.25,33.41,33.41,0,0,0-11.21-2.56Z"/><path class="cls-5" d="M356.29,400H167.81l37.3,29.31h0c0,2,25.49,3.65,56.94,3.65S319,431.37,319,429.35h0Z"/><path class="cls-11" d="M356.29,400H167.81l37.3,29.31h0c0,2,25.49,3.65,56.94,3.65S319,431.37,319,429.35h0Z"/><ellipse class="cls-12" cx="262.05" cy="400.04" rx="94.24" ry="6.05"/><ellipse class="cls-13" cx="262.05" cy="400.04" rx="94.24" ry="6.05"/><path class="cls-14" d="M262.05,404.71c-51.84,0-84.5-2.54-91.71-4.67,7.21-2.12,39.87-4.66,91.71-4.66s84.5,2.54,91.71,4.66C346.55,402.17,313.89,404.71,262.05,404.71Z"/><ellipse class="cls-15" cx="262.05" cy="400.04" rx="56.94" ry="3.66"/><ellipse class="cls-16" cx="262.05" cy="400.04" rx="44.95" ry="2.89"/><circle class="cls-4" cx="369.18" cy="359.5" r="3.89"/><path class="cls-16" d="M263.27,117c4,.12,12.94,1,18.65,7.54,8.34,9.54,4.16,24.66,1.77,33.3-3.41,12.36-8.59,18.64-12,24.87-9,16.57-4.32,30.59,4,80.36,5.49,32.85,8.24,49.69,8.88,70.6,1.72,56.23-11.56,63.63-15.09,65.15a23.3,23.3,0,0,1-14.88,0c-3.54-1.52-16.81-8.92-15.09-65.15.64-20.91,3.39-37.75,8.88-70.6,8.31-49.77,13-63.79,4-80.36-3.4-6.23-8.57-12.51-12-24.87-2.38-8.64-6.56-23.76,1.78-33.3,5.71-6.53,14.65-7.42,18.65-7.54Z"/><path class="cls-17" d="M263.27,117c4,.12,12.94,1,18.65,7.54,8.34,9.54,4.16,24.66,1.77,33.3-3.41,12.36-8.59,18.64-12,24.87-9,16.57-4.32,30.59,4,80.36,5.49,32.85,8.24,49.69,8.88,70.6,1.72,56.23-11.56,63.63-15.09,65.15a23.3,23.3,0,0,1-14.88,0c-3.54-1.52-16.81-8.92-15.09-65.15.64-20.91,3.39-37.75,8.88-70.6,8.31-49.77,13-63.79,4-80.36-3.4-6.23-8.57-12.51-12-24.87-2.38-8.64-6.56-23.76,1.78-33.3,5.71-6.53,14.65-7.42,18.65-7.54Z"/><ellipse class="cls-5" cx="425.77" cy="362.75" rx="78.81" ry="4.66"/><path class="cls-5" d="M347,362.75,382,382.41c0,2.57,19.58,4.66,43.73,4.66s43.74-2.09,43.74-4.66l35.07-19.66Z"/><path class="cls-18" d="M347,362.75,382,382.41c0,2.57,19.58,4.66,43.73,4.66s43.74-2.09,43.74-4.66l35.07-19.66Z"/><ellipse class="cls-19" cx="425.77" cy="362.75" rx="78.81" ry="4.66"/><circle class="cls-8" cx="417" cy="163.76" r="3.5"/><path class="cls-3" d="M416.89,163.76,470.8,366.58"/><circle class="cls-4" cx="470.8" cy="366.58" r="4.14"/><circle class="cls-20" cx="263.43" cy="143.78" r="7.1"/><circle class="cls-15" cx="262.05" cy="143.78" r="7.1"/><path class="cls-21" d="M406.18,159.33a13.6,13.6,0,0,1,6.4,1.25,13.43,13.43,0,0,1,4.31,3.18,9.45,9.45,0,0,0-4.66-1.81c-5.28-.49-11,4-14.06,11.27a14.43,14.43,0,0,1,3.33-10.58A13,13,0,0,1,406.18,159.33Z"/><g class="cls-22"><path class="cls-23" d="M272.25,181.75a47.26,47.26,0,0,0,14.33.29c8.92-1.2,15.25-4.74,20-7.44,12.86-7.34,12.7-12.11,23.42-15.87,3.53-1.24,6.91-1.87,13.67-3.13s12.21-1.91,16.17-2.29a72.82,72.82,0,0,0-20.08,6.41,76.79,76.79,0,0,0-12.58,7.83A80,80,0,0,0,315.05,179c-5.27,5.89-17.27,11.69-46.65,11.53Q270.32,186.14,272.25,181.75Z"/></g><path class="cls-24" d="M350.06,180.43a113.79,113.79,0,0,1,16.22-15.7c6.68-5.3,14.29-11.34,25.75-15.1a67.92,67.92,0,0,1,29.26-2.8,50.86,50.86,0,0,0-10.69-3.09c-37.83-6.5-71.43,32.71-77.68,40.24Z"/><g class="cls-22"><path class="cls-25" d="M286.28,164.21a24.59,24.59,0,0,0,4.41-.85,10.24,10.24,0,0,0,3.64-2.15c1-1,2-2.14,3.28-3.19a7,7,0,0,1,2.27-1.28,11.49,11.49,0,0,1,2.47-.45,8.69,8.69,0,0,1,2.57.22,4.56,4.56,0,0,1,2.43,1.48,4.38,4.38,0,0,1,.69,1.26,6.59,6.59,0,0,1,.34,1.27,4,4,0,0,1-.43,2.77,3.51,3.51,0,0,1-2.29,1.59,5.76,5.76,0,0,1-2.52.07,3.59,3.59,0,0,1-1.18-.57,2.2,2.2,0,0,1-.8-1,1,1,0,0,1,.37-1.26,1.62,1.62,0,0,1,1.18-.08,1.49,1.49,0,0,0-1,.33.6.6,0,0,0,0,.78,2.14,2.14,0,0,0,1.64.85,4.81,4.81,0,0,0,2-.38,2.09,2.09,0,0,0,1.25-1,2.65,2.65,0,0,0,.06-1.66,3.88,3.88,0,0,0-.74-1.61,4.13,4.13,0,0,0-3.37-.89,9.94,9.94,0,0,0-2,.31,5.41,5.41,0,0,0-1.68.9c-1.13.79-2.14,1.94-3.46,2.9a10.09,10.09,0,0,1-4.42,1.87A15.63,15.63,0,0,1,286.28,164.21Z"/></g><path class="cls-26" d="M117.92,159.33a13.58,13.58,0,0,0-6.4,1.25,13.43,13.43,0,0,0-4.31,3.18,9.45,9.45,0,0,1,4.66-1.81c5.28-.49,10.95,4,14.06,11.27a14.43,14.43,0,0,0-3.33-10.58A13,13,0,0,0,117.92,159.33Z"/><g class="cls-22"><path class="cls-27" d="M251.85,181.75a47.26,47.26,0,0,1-14.33.29c-8.93-1.2-15.25-4.74-20-7.44-12.86-7.34-12.7-12.11-23.42-15.87-3.53-1.24-6.91-1.87-13.67-3.13s-12.21-1.91-16.17-2.29a72.82,72.82,0,0,1,20.08,6.41,76.41,76.41,0,0,1,12.57,7.83A79.78,79.78,0,0,1,209.05,179c5.27,5.89,17.26,11.69,46.65,11.53Q253.78,186.14,251.85,181.75Z"/></g><path class="cls-28" d="M174,180.43a113.79,113.79,0,0,0-16.22-15.7c-6.68-5.3-14.29-11.34-25.75-15.1a67.92,67.92,0,0,0-29.26-2.8,50.86,50.86,0,0,1,10.69-3.09c37.83-6.5,71.43,32.71,77.68,40.24Z"/><g class="cls-22"><path class="cls-29" d="M237.81,164.21a15.57,15.57,0,0,1-4.63.13,10.09,10.09,0,0,1-4.42-1.87c-1.32-1-2.33-2.11-3.46-2.9a5.41,5.41,0,0,0-1.68-.9,9.93,9.93,0,0,0-2-.31,4.12,4.12,0,0,0-3.36.89,4,4,0,0,0-.75,1.61,2.72,2.72,0,0,0,.07,1.66,2.09,2.09,0,0,0,1.25,1,4.81,4.81,0,0,0,2,.38,2.1,2.1,0,0,0,1.63-.85.59.59,0,0,0,0-.78,1.49,1.49,0,0,0-1-.33,1.63,1.63,0,0,1,1.18.08,1,1,0,0,1,.37,1.26,2.2,2.2,0,0,1-.8,1A3.59,3.59,0,0,1,221,165a5.76,5.76,0,0,1-2.52-.07,3.51,3.51,0,0,1-2.29-1.59,4,4,0,0,1-.43-2.77,6.59,6.59,0,0,1,.34-1.27,4.1,4.1,0,0,1,3.12-2.74,8.69,8.69,0,0,1,2.57-.22,11.6,11.6,0,0,1,2.47.45,7,7,0,0,1,2.27,1.28c1.28,1,2.24,2.24,3.28,3.19a10.15,10.15,0,0,0,3.64,2.15A24.65,24.65,0,0,0,237.81,164.21Z"/></g><path class="cls-20" d="M286.63,144a52.69,52.69,0,0,1-6.27,29.37c-2.1,3.84-3.92,6-6.8,11.55-1.22,2.36-2.11,4.33-2.67,5.62H268.4c.6-1.58,1.62-4.12,3.12-7.15,2.86-5.73,4.82-7.87,7.59-13.53a76.74,76.74,0,0,0,3.21-7.6A81.1,81.1,0,0,0,286.63,144Z"/><path class="cls-20" d="M237.47,144a52.81,52.81,0,0,0,6.26,29.37c2.11,3.84,3.93,6,6.81,11.55,1.22,2.36,2.11,4.33,2.66,5.62h2.5c-.6-1.58-1.62-4.12-3.12-7.15-2.86-5.73-4.82-7.87-7.59-13.53a76.74,76.74,0,0,1-3.21-7.6A81.1,81.1,0,0,1,237.47,144Z"/></g></g></svg>