<svg xmlns="http://www.w3.org/2000/svg" xmlns:xlink="http://www.w3.org/1999/xlink" viewBox="0 0 328.19 731.49"><defs><style>.cls-1{isolation:isolate;}.cls-2{fill:#8b6a30;}.cls-3{fill:#224453;}.cls-11,.cls-15,.cls-16,.cls-18,.cls-21,.cls-4,.cls-8,.cls-9{mix-blend-mode:multiply;}.cls-4{fill:url(#linear-gradient);}.cls-5{fill:#d58b8c;}.cls-6{fill:#a06869;}.cls-7{fill:#ffcf9f;}.cls-8{fill:url(#linear-gradient-2);}.cls-9{fill:url(#linear-gradient-3);}.cls-10{fill:#2d5b6f;}.cls-11{fill:url(#linear-gradient-4);}.cls-12{fill:#57cad7;}.cls-13{opacity:0.35;}.cls-14{fill:#f7bc55;}.cls-15{fill:url(#linear-gradient-5);}.cls-16{fill:url(#linear-gradient-6);}.cls-17{fill:#00293f;}.cls-18{fill:url(#linear-gradient-7);}.cls-19{fill:none;stroke:#000;stroke-linecap:round;stroke-miterlimit:10;}.cls-20{fill:#fff;}.cls-21{fill:url(#linear-gradient-8);}</style><linearGradient id="linear-gradient" x1="120.96" y1="177.44" x2="198.23" y2="177.44" gradientUnits="userSpaceOnUse"><stop offset="0" stop-color="#fff"/><stop offset="0.14" stop-color="#fbfcfc"/><stop offset="0.27" stop-color="#eff2f3"/><stop offset="0.41" stop-color="#dce1e4"/><stop offset="0.54" stop-color="#c0cace"/><stop offset="0.67" stop-color="#9dacb2"/><stop offset="0.81" stop-color="#718790"/><stop offset="0.93" stop-color="#3e5c69"/><stop offset="1" stop-color="#224453"/></linearGradient><linearGradient id="linear-gradient-2" x1="143.78" y1="185.09" x2="165.59" y2="185.09" gradientUnits="userSpaceOnUse"><stop offset="0" stop-color="#fff"/><stop offset="0.17" stop-color="#fffbf6"/><stop offset="0.46" stop-color="#ffeede"/><stop offset="0.82" stop-color="#ffdbb6"/><stop offset="1" stop-color="#ffcf9f"/></linearGradient><linearGradient id="linear-gradient-3" x1="130.67" y1="168.16" x2="169.14" y2="168.16" xlink:href="#linear-gradient-2"/><linearGradient id="linear-gradient-4" x1="124.35" y1="180.47" x2="243.27" y2="180.47" xlink:href="#linear-gradient"/><linearGradient id="linear-gradient-5" x1="59.56" y1="428.89" x2="268.29" y2="428.89" gradientUnits="userSpaceOnUse"><stop offset="0" stop-color="#fff"/><stop offset="0.07" stop-color="#fefcf6"/><stop offset="0.5" stop-color="#fbe9c1"/><stop offset="0.82" stop-color="#f9dda0"/><stop offset="1" stop-color="#f8d893"/></linearGradient><linearGradient id="linear-gradient-6" x1="164.37" y1="597.96" x2="207.77" y2="597.96" gradientUnits="userSpaceOnUse"><stop offset="0" stop-color="#fff"/><stop offset="0.45" stop-color="#ffe6cd"/><stop offset="0.81" stop-color="#ffd5ac"/><stop offset="1" stop-color="#ffcf9f"/></linearGradient><linearGradient id="linear-gradient-7" x1="107.84" y1="598.93" x2="149.66" y2="598.93" gradientUnits="userSpaceOnUse"><stop offset="0" stop-color="#fff"/><stop offset="0.22" stop-color="#fffdfb"/><stop offset="0.42" stop-color="#fff8f1"/><stop offset="0.61" stop-color="#ffefde"/><stop offset="0.8" stop-color="#ffe2c5"/><stop offset="0.98" stop-color="#ffd1a4"/><stop offset="1" stop-color="#ffcf9f"/></linearGradient><linearGradient id="linear-gradient-8" x1="40.43" y1="119.33" x2="59.95" y2="119.33" xlink:href="#linear-gradient-2"/></defs><g class="cls-1"><g id="Layer_1" data-name="Layer 1"><path class="cls-2" d="M66.89,487.23c-1.06.56-2.46,1.31-4.09,2.24-2.14,1.23-3.22,1.85-3.24,2.08-.19,2,13.23,6.68,28.2,6.66A76.52,76.52,0,0,0,110,494.77c30-8.53,66.16-5.54,102.36-2.55a99.72,99.72,0,0,0,42.83-5.39c-14.78-8.68-52.45-28.1-103.34-25.48A185.15,185.15,0,0,0,66.89,487.23Z"/><path class="cls-3" d="M127.3,152.26A14.44,14.44,0,0,1,128,160c-1.27,6-6.09,6.93-6.88,12.21-.61,4.06,1.51,8.43,4.22,10.88,3.91,3.53,7.64,1.82,11.32,5.11,3,2.69,3.81,6.79,4,9.95a59,59,0,0,1,32.69-.89,58.25,58.25,0,0,1,22.32,11.52c5.85-17.43,1.72-36.51-10.7-49.07C170.29,145,146.64,141.68,127.3,152.26Z"/><path class="cls-4" d="M127.3,152.26A14.44,14.44,0,0,1,128,160c-1.27,6-6.09,6.93-6.88,12.21-.61,4.06,1.51,8.43,4.22,10.88,3.91,3.53,7.64,1.82,11.32,5.11,3,2.69,3.81,6.79,4,9.95a59,59,0,0,1,32.69-.89,58.25,58.25,0,0,1,22.32,11.52c5.85-17.43,1.72-36.51-10.7-49.07C170.29,145,146.64,141.68,127.3,152.26Z"/><path class="cls-5" d="M139.94,198.23c-1.77.6-4.39,1.51-7.55,2.66-21.55,7.88-24.86,12.26-33.39,13.91-11.29,2.19-25.1-1.55-33.75-10-9.1-8.84-10.15-20.56-11.68-37.61A130.33,130.33,0,0,1,54.86,134l-10.5-1.5a138.73,138.73,0,0,0-10.72,37.93C31.77,184.59,29,205.5,37,223.16c17,37.63,69.89,31.83,73.83,59.14,1.75,12.14-6,32.23-13.6,44.06,0,0-8.36,13-8.27,24.73a21.33,21.33,0,0,0,2.1,9.29,20.17,20.17,0,0,0,5.4,6.6,119.19,119.19,0,0,0,49.74,11.1,120.88,120.88,0,0,0,66-19.76q4.54,7.21,9.1,14.44a115.33,115.33,0,0,0,16.1-37.2c12.72-54.73-16.06-120.27-59.46-136.73a65.61,65.61,0,0,0-7.71-2.38Z"/><path class="cls-6" d="M143.78,191.24a24.57,24.57,0,0,0,9.82,1.66,24.87,24.87,0,0,0,12-3.66,8.64,8.64,0,0,1,3.89,4.1,6,6,0,0,1,.66,3.11c-.63,3.86-9.67,5.71-15.87,5.89-5.56.15-13.59-.91-14.33-4.11a6.83,6.83,0,0,1,.89-4A7.62,7.62,0,0,1,143.78,191.24Z"/><path class="cls-7" d="M143.78,191.24a18.91,18.91,0,0,0,2.21-4,19.11,19.11,0,0,0,1.29-8.37,15.81,15.81,0,0,1,5.21-1.47,16.29,16.29,0,0,1,7.49,1,16.27,16.27,0,0,0,5.61,10.89,24.51,24.51,0,0,1-21.81,2Z"/><path class="cls-8" d="M143.78,191.24a18.91,18.91,0,0,0,2.21-4,19.11,19.11,0,0,0,1.29-8.37,15.81,15.81,0,0,1,5.21-1.47,16.29,16.29,0,0,1,7.49,1,16.27,16.27,0,0,0,5.61,10.89,24.51,24.51,0,0,1-21.81,2Z"/><path class="cls-7" d="M130.67,156.43a50.76,50.76,0,0,0,9.16,18.4c4.07,5.15,8.7,11,14.16,10.41,5.75-.63,9.2-8.06,11.49-13a40.1,40.1,0,0,0,3.66-16.1,37.86,37.86,0,0,0-38.47.28Z"/><path class="cls-9" d="M130.67,156.43a50.76,50.76,0,0,0,9.16,18.4c4.07,5.15,8.7,11,14.16,10.41,5.75-.63,9.2-8.06,11.49-13a40.1,40.1,0,0,0,3.66-16.1,37.86,37.86,0,0,0-38.47.28Z"/><path class="cls-10" d="M161.93,159.37a16.67,16.67,0,0,1-7.33,5.77c-9.1,3.47-19.07-3.29-23.93-8.71-2.49-2.79-6.83-7.62-6.27-13.71.86-9.41,12.78-15.15,20.21-16.88,11.16-2.59,24,1.16,31.75,9.1,7.38,7.58,5,13.76,12.88,18.66s12.8.09,18.87,5.33,3.39,11.58,11.55,18.87c3.68,3.29,6.24,3.79,8,3.77,4,0,6.88-2.82,7.77-3.77A41.24,41.24,0,0,1,238.09,222a21.34,21.34,0,0,1-12.66-4.67,13,13,0,0,0,5.77,6,12.73,12.73,0,0,0,6.67,1.33,18.93,18.93,0,0,1-8,8.88,18.73,18.73,0,0,1-10.16,2.35A93.09,93.09,0,0,0,208,220.31c-1-1-3.45-3.66-12.42-11.49-15.29-13.35-15-11.73-16.48-14.26-6.29-10.42-2.15-21.66-8.82-24.81-1.82-.86-3.88-.85-5.83-2.94A11,11,0,0,1,161.93,159.37Z"/><path class="cls-11" d="M161.93,159.37a16.67,16.67,0,0,1-7.33,5.77c-9.1,3.47-19.07-3.29-23.93-8.71-2.49-2.79-6.83-7.62-6.27-13.71.86-9.41,12.78-15.15,20.21-16.88,11.16-2.59,24,1.16,31.75,9.1,7.38,7.58,5,13.76,12.88,18.66s12.8.09,18.87,5.33,3.39,11.58,11.55,18.87c3.68,3.29,6.24,3.79,8,3.77,4,0,6.88-2.82,7.77-3.77A41.24,41.24,0,0,1,238.09,222a21.34,21.34,0,0,1-12.66-4.67,13,13,0,0,0,5.77,6,12.73,12.73,0,0,0,6.67,1.33,18.93,18.93,0,0,1-8,8.88,18.73,18.73,0,0,1-10.16,2.35A93.09,93.09,0,0,0,208,220.31c-1-1-3.45-3.66-12.42-11.49-15.29-13.35-15-11.73-16.48-14.26-6.29-10.42-2.15-21.66-8.82-24.81-1.82-.86-3.88-.85-5.83-2.94A11,11,0,0,1,161.93,159.37Z"/><path class="cls-12" d="M117.64,208.37a9.86,9.86,0,0,1,11.09-5.87,188.65,188.65,0,0,1,2.73,18.88c1.63,17.32,6,64.16-21.05,94.75a73.39,73.39,0,0,1-6.44,6.44,7.8,7.8,0,0,1-2.43-2.3,7.27,7.27,0,0,1-1-2,90.14,90.14,0,0,0,14.33-22.68c8.24-18.81,7.8-35.76,7.39-51.1A179.93,179.93,0,0,0,117.64,208.37Z"/><path class="cls-12" d="M180.87,200.07a134.93,134.93,0,0,0,20.75,118.06,7.33,7.33,0,0,0,3.16-5.83,114.07,114.07,0,0,1-12.88-25.48c-12.44-35-4.24-66.93.36-80.9a9.44,9.44,0,0,0-11.39-5.85Z"/><path class="cls-10" d="M204.61,313.69a19.21,19.21,0,0,0,4.27,5.35,19.62,19.62,0,0,0,6.77,3.87l2.73,5.71a28.8,28.8,0,0,1-15.79-11.29,7.61,7.61,0,0,0,1.19-1.53A7.19,7.19,0,0,0,204.61,313.69Z"/><path class="cls-10" d="M103.28,322.12a28.65,28.65,0,0,1-5,4.37,29.5,29.5,0,0,1-5.85,3.11q1.36-3.39,2.74-6.78a9.77,9.77,0,0,0,5.49-4.61,7.09,7.09,0,0,0,1.17,2.44A7,7,0,0,0,103.28,322.12Z"/><path class="cls-13" d="M212.11,358.32a27,27,0,0,0,4.44-8.88c.8-2.84,1.37-6.69.44-12.88-1.11-7.38-3.31-11.1-7.55-21.09a191.87,191.87,0,0,1-7-18.15,90.78,90.78,0,0,1-3.89-25.59,122.81,122.81,0,0,0,9.72,36.41c6.95,15.59,12.06,20.23,12.65,31.81.51,9.86-2.9,18.06-5.73,23.28Z"/><path class="cls-14" d="M96.42,367A82.24,82.24,0,0,0,91,380c-1,3.08-3.81,12.68-4.16,36.36-.23,16,.93,20.88-2.22,30a52.83,52.83,0,0,1-5.89,11.9,42.09,42.09,0,0,0-11.2,10.62,43.26,43.26,0,0,0-8,22.65,55.71,55.71,0,0,1,22.87-9.33c25.92-4,36.21,15.17,64.17,17.1,27,1.87,25.13-15.39,55.52-14.21,20.29.79,35.9,9.07,56.4.45a56.09,56.09,0,0,0,9.77-5.33,50.88,50.88,0,0,0-10.55-18.54c-7.37-8.13-12.35-7.9-19.32-16.33a47.23,47.23,0,0,1-10-21c-2.1-11.37,2.13-15.27,1.33-27-.41-6-2.19-14.55-8.55-24.64q-4.54-7.23-9.1-14.44A118.71,118.71,0,0,1,96.42,367Z"/><path class="cls-15" d="M96.42,367A82.24,82.24,0,0,0,91,380c-1,3.08-3.81,12.68-4.16,36.36-.23,16,.93,20.88-2.22,30a52.83,52.83,0,0,1-5.89,11.9,42.09,42.09,0,0,0-11.2,10.62,43.26,43.26,0,0,0-8,22.65,55.71,55.71,0,0,1,22.87-9.33c25.92-4,36.21,15.17,64.17,17.1,27,1.87,25.13-15.39,55.52-14.21,20.29.79,35.9,9.07,56.4.45a56.09,56.09,0,0,0,9.77-5.33,50.88,50.88,0,0,0-10.55-18.54c-7.37-8.13-12.35-7.9-19.32-16.33a47.23,47.23,0,0,1-10-21c-2.1-11.37,2.13-15.27,1.33-27-.41-6-2.19-14.55-8.55-24.64q-4.54-7.23-9.1-14.44A118.71,118.71,0,0,1,96.42,367Z"/><path class="cls-7" d="M207.77,485.52q-4.92,23.53-9.25,48.11a1536.23,1536.23,0,0,0-19.83,164.76q17.58,8.08,16.76,11-1,3.64-31.08-.89.45-105.93.92-211.87c1.31-.66,3.29-1.66,5.68-2.92,5.27-2.8,6.43-3.65,8.54-4.7a40,40,0,0,1,13.65-3.66A52.94,52.94,0,0,1,207.77,485.52Z"/><path class="cls-16" d="M207.77,485.52q-4.92,23.53-9.25,48.11a1536.23,1536.23,0,0,0-19.83,164.76q17.58,8.08,16.76,11-1,3.64-31.08-.89.45-105.93.92-211.87c1.31-.66,3.29-1.66,5.68-2.92,5.27-2.8,6.43-3.65,8.54-4.7a40,40,0,0,1,13.65-3.66A52.94,52.94,0,0,1,207.77,485.52Z"/><path class="cls-17" d="M178.69,698.39q17.58,8.08,16.76,11-1,3.64-31.08-.89c0-3.32,0-6.63,0-10a11.4,11.4,0,0,0,14.28-.15Z"/><path class="cls-7" d="M146.6,499.32l3.06,209.34q-31,5.67-32.25,1.85-1-3.09,17.43-12.35l-19-166.2-8-46.14c1.42.63,3.59,1.62,6.21,2.87,3,1.45,4.74,2.34,6,3a81,81,0,0,0,14.15,5.53A64.25,64.25,0,0,0,146.6,499.32Z"/><path class="cls-18" d="M146.6,499.32l3.06,209.34q-31,5.67-32.25,1.85-1-3.09,17.43-12.35l-19-166.2-8-46.14c1.42.63,3.59,1.62,6.21,2.87,3,1.45,4.74,2.34,6,3a81,81,0,0,0,14.15,5.53A64.25,64.25,0,0,0,146.6,499.32Z"/><path class="cls-17" d="M149.51,698.39l.15,10.27q-31,5.67-32.25,1.85-1-3.09,17.43-12.35a16.14,16.14,0,0,0,14.67.23Z"/><path class="cls-13" d="M147.14,182.81a8.84,8.84,0,0,0,6.26,2.47,9.17,9.17,0,0,0,7.07-4.2c.34.94.69,1.87,1,2.81a8.55,8.55,0,0,1-8,3.42A8.94,8.94,0,0,1,147.14,182.81Z"/><path class="cls-13" d="M165.26,502a49.22,49.22,0,0,1,41.59-12c.31-1.48.61-3,.92-4.45a50.94,50.94,0,0,0-14.61-.18c-9.25,1.24-16.18,4.82-21,7.33-2.91,1.5-5.24,2.92-6.84,3.95Z"/><path class="cls-13" d="M107.84,485.82a103.47,103.47,0,0,0,38.76,13.5c0,.73,0,1.46,0,2.19-3.51-.74-7.22-1.68-11.08-2.89A119.66,119.66,0,0,1,107.84,485.82Z"/><path class="cls-19" d="M142.33,165.24c0,1.29.07,2.57.1,3.86"/><path class="cls-19" d="M158.61,165.24c0,1.29.07,2.57.11,3.86"/><path class="cls-20" d="M146.89,175.37a25.64,25.64,0,0,0,6.06.37,26.17,26.17,0,0,0,4.39-.64,5.5,5.5,0,0,1-3.64,4.44C151.12,180.3,147.93,178.61,146.89,175.37Z"/><path class="cls-7" d="M44.36,132.52a24.14,24.14,0,0,1-3.75-10.29c-.59-5.09,0-13.58,5.14-16.6a5.37,5.37,0,0,1,4.15-.84c2.6.82,3.53,4.51,4.1,6.75,1.54,6.08.09,10.45,1.39,10.91s3.24-3.34,4.18-2.9.1,3.8-.59,6.06A30.17,30.17,0,0,1,54.86,134Z"/><path class="cls-21" d="M44.36,132.52a24.14,24.14,0,0,1-3.75-10.29c-.59-5.09,0-13.58,5.14-16.6a5.37,5.37,0,0,1,4.15-.84c2.6.82,3.53,4.51,4.1,6.75,1.54,6.08.09,10.45,1.39,10.91s3.24-3.34,4.18-2.9.1,3.8-.59,6.06A30.17,30.17,0,0,1,54.86,134Z"/></g></g></svg>