<svg xmlns="http://www.w3.org/2000/svg" xmlns:xlink="http://www.w3.org/1999/xlink" viewBox="0 0 328.19 731.49"><defs><style>.cls-1{isolation:isolate;}.cls-2{fill:#225e66;}.cls-3{fill:#ffcf9f;}.cls-10,.cls-14,.cls-15,.cls-20,.cls-22,.cls-24,.cls-26,.cls-29,.cls-4,.cls-5,.cls-7{mix-blend-mode:multiply;}.cls-4{fill:url(#linear-gradient);}.cls-5{fill:url(#linear-gradient-2);}.cls-6{fill:#2d5b6f;}.cls-7{fill:url(#linear-gradient-3);}.cls-8{fill:#dfe5e9;}.cls-9{fill:#57cad7;}.cls-10{fill:url(#linear-gradient-4);}.cls-11,.cls-23{opacity:0.35;}.cls-12{fill:#4198a1;}.cls-13{fill:#79d5df;}.cls-14{fill:url(#linear-gradient-5);}.cls-15{fill:url(#linear-gradient-6);}.cls-16{fill:#744100;}.cls-17{fill:#a7acaf;}.cls-18{fill:#5c9b68;}.cls-19{fill:#7bce8a;}.cls-20{fill:url(#linear-gradient-7);}.cls-21{fill:#f7bc55;}.cls-22{fill:url(#linear-gradient-8);}.cls-23,.cls-27{fill:none;stroke:#000;stroke-miterlimit:10;}.cls-24{fill:url(#linear-gradient-9);}.cls-25{fill:#1f0a00;}.cls-26{fill:url(#linear-gradient-10);}.cls-27{stroke-linecap:round;stroke-width:2px;}.cls-28{fill:#fff;}.cls-29{fill:url(#linear-gradient-11);}.cls-30{fill:url(#linear-gradient-12);}</style><linearGradient id="linear-gradient" x1="207.19" y1="328.22" x2="223.78" y2="328.22" gradientUnits="userSpaceOnUse"><stop offset="0" stop-color="#ffcf9f"/><stop offset="0.18" stop-color="#ffdbb6"/><stop offset="0.54" stop-color="#ffeede"/><stop offset="0.83" stop-color="#fffbf6"/><stop offset="1" stop-color="#fff"/></linearGradient><linearGradient id="linear-gradient-2" x1="132.58" y1="130.48" x2="162.17" y2="130.48" xlink:href="#linear-gradient"/><linearGradient id="linear-gradient-3" x1="80.54" y1="498.66" x2="214.89" y2="498.66" gradientTransform="translate(25.75 -8.16) rotate(3.03)" gradientUnits="userSpaceOnUse"><stop offset="0" stop-color="#15b5c6"/><stop offset="0.1" stop-color="#22b9c9"/><stop offset="0.27" stop-color="#43c4d1"/><stop offset="0.5" stop-color="#79d5de"/><stop offset="0.79" stop-color="#c3ecf0"/><stop offset="1" stop-color="#fff"/></linearGradient><linearGradient id="linear-gradient-4" x1="38.57" y1="239.07" x2="176.2" y2="239.07" gradientTransform="matrix(1, 0, 0, 1, 0, 0)" xlink:href="#linear-gradient-3"/><linearGradient id="linear-gradient-5" x1="118.5" y1="135.84" x2="153.48" y2="135.84" gradientTransform="matrix(1, 0, 0, 1, 0, 0)" xlink:href="#linear-gradient-3"/><linearGradient id="linear-gradient-6" x1="124.05" y1="94.57" x2="165.84" y2="94.57" xlink:href="#linear-gradient"/><linearGradient id="linear-gradient-7" x1="65.64" y1="362.02" x2="153.86" y2="362.02" gradientTransform="matrix(1, 0, 0, 1, 0, 0)" xlink:href="#linear-gradient-3"/><linearGradient id="linear-gradient-8" x1="68.1" y1="331.4" x2="163.85" y2="331.4" gradientUnits="userSpaceOnUse"><stop offset="0" stop-color="#f7bc55"/><stop offset="0.12" stop-color="#f8c162"/><stop offset="0.35" stop-color="#f9ce83"/><stop offset="0.65" stop-color="#fce3b9"/><stop offset="1" stop-color="#fff"/></linearGradient><linearGradient id="linear-gradient-9" x1="139.23" y1="685.2" x2="163.6" y2="685.2" gradientTransform="translate(25.75 -8.16) rotate(3.03)" xlink:href="#linear-gradient"/><linearGradient id="linear-gradient-10" x1="182.31" y1="682.71" x2="206.67" y2="682.71" gradientTransform="translate(25.75 -8.16) rotate(3.03)" xlink:href="#linear-gradient"/><linearGradient id="linear-gradient-11" x1="88.14" y1="143.87" x2="126.63" y2="143.87" xlink:href="#linear-gradient"/><linearGradient id="linear-gradient-12" x1="81.89" y1="235.34" x2="128.98" y2="235.34" gradientUnits="userSpaceOnUse"><stop offset="0" stop-color="#20a2b6"/><stop offset="0.3" stop-color="#2dabbe"/><stop offset="0.86" stop-color="#4ec3d1"/><stop offset="1" stop-color="#57cad7"/></linearGradient></defs><g class="cls-1"><g id="Layer_1" data-name="Layer 1"><path class="cls-2" d="M126,122.88a60.73,60.73,0,0,1,19.5-2.9A60.06,60.06,0,0,1,158,121.5a7.12,7.12,0,0,1,3.71,6.3,36.84,36.84,0,0,1-12,3.86c-4.32.6-13.2,1.83-19.63-3.63A17,17,0,0,1,126,122.88Z"/><path class="cls-3" d="M222.52,271.61a388.68,388.68,0,0,1,1,46.05,387.45,387.45,0,0,1-4.93,48.64,17.39,17.39,0,0,1,1.13,9.11,9.83,9.83,0,0,1-1.61,5.06c-2.34,3.45-7,5-7.8,4.1-.38-.44.1-1.43.57-2.41,1.36-2.83,3.07-3.11,3.69-4.66,1.34-3.32-4-8.48-4.44-8.2-.28.17,1.08,2.14.67,5.07-.11.73-.24,1.66-.61,1.72-.88.15-3.22-4.71-3-9.68a15.25,15.25,0,0,1,1.93-6.53l1.74-87.24Z"/><path class="cls-4" d="M222.52,271.61a388.68,388.68,0,0,1,1,46.05,387.45,387.45,0,0,1-4.93,48.64,17.39,17.39,0,0,1,1.13,9.11,9.83,9.83,0,0,1-1.61,5.06c-2.34,3.45-7,5-7.8,4.1-.38-.44.1-1.43.57-2.41,1.36-2.83,3.07-3.11,3.69-4.66,1.34-3.32-4-8.48-4.44-8.2-.28.17,1.08,2.14.67,5.07-.11.73-.24,1.66-.61,1.72-.88.15-3.22-4.71-3-9.68a15.25,15.25,0,0,1,1.93-6.53l1.74-87.24Z"/><path class="cls-3" d="M132.58,129.78a18.19,18.19,0,0,0,3.06-5.14,19.18,19.18,0,0,0,.81-10.93l16.71.17a14.43,14.43,0,0,0,2.89,9.64,14,14,0,0,0,5.63,4.28c1.32,8.32,0,16.3-4.29,18.65C151.93,149.44,140.18,144.06,132.58,129.78Z"/><path class="cls-5" d="M132.58,129.78a18.19,18.19,0,0,0,3.06-5.14,19.18,19.18,0,0,0,.81-10.93l16.71.17a14.43,14.43,0,0,0,2.89,9.64,14,14,0,0,0,5.63,4.28c1.32,8.32,0,16.3-4.29,18.65C151.93,149.44,140.18,144.06,132.58,129.78Z"/><path class="cls-6" d="M86,379.08a138.75,138.75,0,0,0,1.21,30.09,137.21,137.21,0,0,0,6.72,26.5c11.63,32.74,23,108.15,27.78,163.19,1.69,19.47,3.35,45.67,3.55,76.9a44.63,44.63,0,0,0,30.1.84l11.45-202.39q-.06,35,.44,70.84,1,67.88,3.93,132.82l9.66,3.94,14.14.32c3.4-21,7.57-49.4,11.26-83.09,3-27.19,5.78-52.68,7.12-85.89,1.75-43.58,3.34-90-7.94-147.43-3.9-19.88-8.33-35.89-11.41-46.17a72,72,0,0,0-19.87-2.82C124,316.8,90.8,370.93,86,379.08Z"/><path class="cls-7" d="M86,379.08a138.75,138.75,0,0,0,1.21,30.09,137.21,137.21,0,0,0,6.72,26.5c11.63,32.74,23,108.15,27.78,163.19,1.69,19.47,3.35,45.67,3.55,76.9a44.63,44.63,0,0,0,30.1.84l11.45-202.39q-.06,35,.44,70.84,1,67.88,3.93,132.82l9.66,3.94,14.14.32c3.4-21,7.57-49.4,11.26-83.09,3-27.19,5.78-52.68,7.12-85.89,1.75-43.58,3.34-90-7.94-147.43-3.9-19.88-8.33-35.89-11.41-46.17a72,72,0,0,0-19.87-2.82C124,316.8,90.8,370.93,86,379.08Z"/><path class="cls-8" d="M150.71,146.77a7.48,7.48,0,0,0,9.25-2.9c14.29,20.54,36.13,58.11,43.18,109.51a246.39,246.39,0,0,1,0,66.85c-9.88-3.35-16.64-2.39-21-.8-5.31,1.9-6.79,4.55-11.89,5.78,0,0-8.25,2-19.29-4C134,312,108.57,262.54,120.43,207.73,123.19,195,130.21,171.58,150.71,146.77Z"/><path class="cls-9" d="M118.5,133.16A145.22,145.22,0,0,0,93.86,179c-13.48,42.25,4.38,56.94-12,87.86C72,285.54,59.67,291.1,46.29,321.73a186,186,0,0,0-7.72,21c10.2-9.42,19.24-12.3,25.29-13.28,24.53-4,36.93,17.14,69.43,15.43,15.43-.82,21.4-6.05,23.14-7.72,8.59-8.27,10-22.32,10.28-25.71.54-7.13-.9-10.91,1.29-18.43a42.48,42.48,0,0,1,5.57-11.57c10.16-16.82-12.57-36.38-9.86-69.86,1.14-14,6.39-26.31-1-35.41-2.23-2.73-4.46-3.78-7.1-7.66-5.25-7.72-5.43-16.78-4.71-23.36a6.78,6.78,0,0,0,0-4.28,7.12,7.12,0,0,0-1.77-2.58C147,136.3,135,134.24,118.5,133.16Z"/><path class="cls-10" d="M118.5,133.16A145.22,145.22,0,0,0,93.86,179c-13.48,42.25,4.38,56.94-12,87.86C72,285.54,59.67,291.1,46.29,321.73a186,186,0,0,0-7.72,21c10.2-9.42,19.24-12.3,25.29-13.28,24.53-4,36.93,17.14,69.43,15.43,15.43-.82,21.4-6.05,23.14-7.72,8.59-8.27,10-22.32,10.28-25.71.54-7.13-.9-10.91,1.29-18.43a42.48,42.48,0,0,1,5.57-11.57c10.16-16.82-12.57-36.38-9.86-69.86,1.14-14,6.39-26.31-1-35.41-2.23-2.73-4.46-3.78-7.1-7.66-5.25-7.72-5.43-16.78-4.71-23.36a6.78,6.78,0,0,0,0-4.28,7.12,7.12,0,0,0-1.77-2.58C147,136.3,135,134.24,118.5,133.16Z"/><path class="cls-11" d="M164.43,134.45a45,45,0,0,1,6.39,3.06,52.31,52.31,0,0,1,5.71,3.94c17.8,14.38,28.88,57.84,28.88,57.84,4.64,18.21,9.3,39.11,13.34,62.44-.26.28-3.54,3.75-7.71,2.9a7.43,7.43,0,0,1-3.22-1.61c-2.25,14.54-.35,25.23,1.93,32.46,2.89,9.18,7.57,16.52,10.93,31.82,1,4.69,1.6,8.62,1.93,11.25a82.29,82.29,0,0,0-13.5,1c-7,1.08-9.73,2.44-13.18,1-4.41-1.88-6.24-6.78-7.07-9-3.07-8.2-.94-15.79.32-21.21,0,0,2.38-10.29,3.53-32.47,1.46-28-9.29-53.38-11.64-58.71-2.58-5.86-5.51-11.21-7.63-20.45C171,188,172,182.75,171,174.3c-1-7.85-3.76-18.81-12.05-31.66Z"/><path class="cls-9" d="M168.43,134.45a45,45,0,0,1,6.39,3.06,52.31,52.31,0,0,1,5.71,3.94c17.8,14.38,28.88,57.84,28.88,57.84,4.64,18.21,9.3,39.11,13.34,62.44-.26.28-3.54,3.75-7.71,2.9a7.43,7.43,0,0,1-3.22-1.61c-2.25,14.54-.35,25.23,1.93,32.46,2.89,9.18,7.57,16.52,10.93,31.82,1,4.69,1.6,8.62,1.93,11.25a82.29,82.29,0,0,0-13.5,1c-7,1.08-9.73,2.44-13.18,1-4.41-1.88-6.24-6.78-7.07-9-3.07-8.2-.94-15.79.32-21.21,0,0,2.35-10.13,3.53-32.47.35-6.6,1.94-36.44-13.5-59.78-3.34-5.06-8.06-10.68-10-20.25-1.52-7.64.7-8.06-.32-19.18-1.41-15.46-6.63-25-7.82-27.11a58.43,58.43,0,0,0-6.16-8.84Z"/><path class="cls-12" d="M222.75,261.73a6.08,6.08,0,0,1,2.89,2.73,5.47,5.47,0,0,1,.48,4c-.78,2.35-3.59,3.2-5.78,3.86a18.85,18.85,0,0,1-9.46.3c.08-2,.24-4.1.49-6.3.13-1.14.28-2.25.45-3.32a7.56,7.56,0,0,0,10.93-1.29Z"/><path class="cls-11" d="M211.82,263a66.06,66.06,0,0,0-1.12-24.75c-.57-2.36-1.07-3.85-1.69-5.79-4.86-15.22-6.12-23.67-9.08-34.39a182,182,0,0,0-8.68-24.53c-1.57-3.58-2.26-5-2.25-5a167.52,167.52,0,0,1,14.62,36.16c1.64,6,1.77,8,4.18,16.31,2.83,9.72,4,11.49,5.09,18a110.29,110.29,0,0,1,1.4,14.88c.14,4.18.07,7.72,0,10.37Z"/><path class="cls-13" d="M153.48,137.5l-6,11.31a40.13,40.13,0,0,1-23-9.06,37,37,0,0,1-6-6.59,11.45,11.45,0,0,1,3.64-8.2,10.19,10.19,0,0,1,3.86-2.08,30.79,30.79,0,0,0,5.57,6.53C139.78,136.66,149.63,137.42,153.48,137.5Z"/><path class="cls-14" d="M153.48,137.5l-6,11.31a40.13,40.13,0,0,1-23-9.06,37,37,0,0,1-6-6.59,11.45,11.45,0,0,1,3.64-8.2,10.19,10.19,0,0,1,3.86-2.08,30.79,30.79,0,0,0,5.57,6.53C139.78,136.66,149.63,137.42,153.48,137.5Z"/><path class="cls-13" d="M158,121.5a15.44,15.44,0,0,1,7.24,6.2c3,5,2.69,11.66-.64,17.25L156,137.88a9.79,9.79,0,0,0,4.5-4.5C162.2,129.69,161.21,125,158,121.5Z"/><path class="cls-3" d="M125.43,98a33.55,33.55,0,0,0,4.34,10.61c1.56,2.49,9.24,14.71,19,13.5,8.47-1,12.94-11.61,14.14-14.43a30.87,30.87,0,0,0,2.25-14.5c.33-1.22,2.67-10.71-3.37-18.48s-16.92-9.46-24.91-6C126.84,73.11,121.31,85.78,125.43,98Z"/><path class="cls-15" d="M125.43,98a33.55,33.55,0,0,0,4.34,10.61c1.56,2.49,9.24,14.71,19,13.5,8.47-1,12.94-11.61,14.14-14.43a30.87,30.87,0,0,0,2.25-14.5c.33-1.22,2.67-10.71-3.37-18.48s-16.92-9.46-24.91-6C126.84,73.11,121.31,85.78,125.43,98Z"/><path class="cls-16" d="M129.61,82.05c.46,1.91,1.12,5.66-.37,8.66-.57,1.15-.94,1.27-2.36,3.69-1.24,2.1-1.65,3.23-3.67.83-5.78-6.86-5.3-5.88-6.61-8.68,0,0-4.77-10.24-1-21.1,1-2.94,2.17-4.08,3.43-4.5a4.78,4.78,0,0,1,3.36.28,14.89,14.89,0,0,1,3-8.1c.27-.37,4.39-5.62,10.38-5.63,3.19,0,4.25,1.48,8.26,3.22a36,36,0,0,0,33-2.95,40.94,40.94,0,0,1,1.34,12.91c-.32,5.75-1.8,9.88-3.61,14.83a95.9,95.9,0,0,1-9,18.22,12.68,12.68,0,0,1-2.77-9.84A13,13,0,0,1,158,91.38c-5.92,4-14,.47-17.51-1.1A30.16,30.16,0,0,1,129.61,82.05Z"/><path class="cls-17" d="M186.17,228.5a198.92,198.92,0,0,1-10.51,61.68,197.55,197.55,0,0,1-15.6,34.56q-1.19,6.9-2.36,13.81a111.31,111.31,0,0,0,9-13c2.4-4.06,9.5-16.56,15.65-44.4a293.57,293.57,0,0,0,6.3-44.82Z"/><path class="cls-17" d="M185.93,236.2c.47-4.64,1.06-11.35,1.46-19.47,1-19.65,1.74-32.09-1.12-46a111.92,111.92,0,0,0-13.38-34.31l3.27,1.88c.42.69,1.07,1.79,1.83,3.15,11.72,21.2,12.56,41.82,13,57.67a199,199,0,0,1-2.56,38.14Z"/><path class="cls-17" d="M84,314a177.41,177.41,0,0,1,4.53-94.68q0-5.37,0-10.74c-2.07,5.35-4,11-5.71,17-10,34.94-8.88,67.09-5,91.66Z"/><path class="cls-11" d="M154.5,342a15.3,15.3,0,0,0-4.63,3.8c-7.42-3.3-24-2.94-39.94-2.52-16.94.46-31.15.92-41.57,1.29-2,11.77,1.55,22.77,9.43,28.14a20.71,20.71,0,0,0,9.64,3.43,108.64,108.64,0,0,0-.55,10.93q0,3.17.17,6.07c3.26.3,6.91.73,10.88,1.36,6.66,1.05,33.23,6,41.78,6.43,2.18.11,5.62.24,8.36-1.93a4.5,4.5,0,0,0,1-1c2.37.44,5.26-4.17,8-8.63a34.86,34.86,0,0,0,5.14-15.22q.72-16.87,1.45-33.75A16.5,16.5,0,0,0,154.5,342Z"/><path class="cls-18" d="M149,388c2.37.44,5.26-4.17,8-8.63a34.86,34.86,0,0,0,5.14-15.22q.72-16.87,1.45-33.75A16.5,16.5,0,0,0,154.5,332C137,341.21,142.07,386.73,149,388Z"/><path class="cls-19" d="M68.36,334.59A102.64,102.64,0,0,0,66,366.52c.58,6.67,1.49,8.91,2.79,10.71,4.64,6.47,12.27,4.59,29.14,7.29,12,1.92,24.91,5.56,41.78,6.43,2.18.11,5.62.24,8.36-1.93,1.13-.9,3.4-3.17,4.5-18,.59-7.84,0-7.35.64-14.79a109,109,0,0,0,.65-11.14,33.06,33.06,0,0,0-.18-5.74c-2.23-7-23.57-6.59-43.75-6.05C93,333.76,78.78,334.22,68.36,334.59Z"/><path class="cls-20" d="M68.36,334.59A102.64,102.64,0,0,0,66,366.52c.58,6.67,1.49,8.91,2.79,10.71,4.64,6.47,12.27,4.59,29.14,7.29,12,1.92,24.91,5.56,41.78,6.43,2.18.11,5.62.24,8.36-1.93,1.13-.9,3.4-3.17,4.5-18,.59-7.84,0-7.35.64-14.79a109,109,0,0,0,.65-11.14,33.06,33.06,0,0,0-.18-5.74c-2.23-7-23.57-6.59-43.75-6.05C93,333.76,78.78,334.22,68.36,334.59Z"/><path class="cls-11" d="M68.36,336.59c-1.15-4.64,1.78-9.36,3.43-12,5.36-8.62,14.69-11,18.42-12,2.4-.62,5.63-1.21,25.72.64,9.39.87,14.22,1.31,20.36,2.36,17.27,3,22.69,6.42,25.55,10.5.79,1.12,2.61,3.8,1.82,6.32s-3.71,2.88-6.37,5c-5,3.94-3.4,9.66-5.79,13.55-1.64,2.67-6.77,6.7-42.86.85C86.18,348.16,70.55,345.45,68.36,336.59Z"/><path class="cls-21" d="M68.36,334.59c-1.15-4.64,1.78-9.36,3.43-12,5.36-8.62,14.69-11,18.42-12,2.4-.62,5.63-1.21,25.72.64,9.39.87,14.22,1.31,20.36,2.36,17.27,3,22.69,6.42,25.55,10.5.79,1.12,2.61,3.8,1.82,6.32s-3.71,2.88-6.37,5c-5,3.94-3.4,9.66-5.79,13.55-1.64,2.67-6.77,6.7-42.86.85C86.18,346.16,70.55,343.45,68.36,334.59Z"/><path class="cls-22" d="M68.36,334.59c-1.15-4.64,1.78-9.36,3.43-12,5.36-8.62,14.69-11,18.42-12,2.4-.62,5.63-1.21,25.72.64,9.39.87,14.22,1.31,20.36,2.36,17.27,3,22.69,6.42,25.55,10.5.79,1.12,2.61,3.8,1.82,6.32s-3.71,2.88-6.37,5c-5,3.94-3.4,9.66-5.79,13.55-1.64,2.67-6.77,6.7-42.86.85C86.18,346.16,70.55,343.45,68.36,334.59Z"/><path class="cls-23" d="M72.86,354.3c-1.18,1.49-1.45,3.65-1.72,5.79-.15,1.19-.85,6.86,1.5,10.93.89,1.54,3.49,5,21.86,7.71,7.33,1.07,7.67.62,15,1.5,17.93,2.16,24.65,5.91,28,2.23,1.31-1.44,1.46-4.2,1.76-9.73.3-5.75.48-9-.65-11.35-3.65-7.79-18.33-1.3-45-6.86C85.73,352.87,76.23,350,72.86,354.3Z"/><path class="cls-3" d="M129,677q.48,6.4,1,12.82a33.78,33.78,0,0,0,22.79-.94l.17-11.6A44.81,44.81,0,0,1,129,677Z"/><path class="cls-24" d="M129,677q.48,6.4,1,12.82a33.78,33.78,0,0,0,22.79-.94l.17-11.6A44.81,44.81,0,0,1,129,677Z"/><path class="cls-25" d="M153.81,689a35.59,35.59,0,0,1,10.56.9c12,2.9,23.38,12.43,22.18,16.89-1.13,4.19-14.05,6.49-58.86,1.18a21.74,21.74,0,0,1-.74-10.34,21.51,21.51,0,0,1,3-7.78,38.54,38.54,0,0,0,23.87-.85Z"/><path class="cls-3" d="M172.1,676.82q.5,6.42,1,12.82a33.77,33.77,0,0,0,22.79-.94l.17-11.6a44.55,44.55,0,0,1-11.83,1.5A45.08,45.08,0,0,1,172.1,676.82Z"/><path class="cls-26" d="M172.1,676.82q.5,6.42,1,12.82a33.77,33.77,0,0,0,22.79-.94l.17-11.6a44.55,44.55,0,0,1-11.83,1.5A45.08,45.08,0,0,1,172.1,676.82Z"/><path class="cls-25" d="M197,688.79a35.67,35.67,0,0,1,10.57.9c12,2.9,23.38,12.43,22.17,16.89-1.13,4.2-14.05,6.49-58.86,1.18a21.53,21.53,0,0,1,2.25-18.12,38.53,38.53,0,0,0,23.87-.85Z"/><path class="cls-11" d="M168.9,420.66q-1.53-24.39-3-48.78c4.29,23.58,7.91,49.29,10.28,76.92A824.45,824.45,0,0,1,178,562.68Q173.36,491.69,168.9,420.66Z"/><path class="cls-11" d="M136.89,117.36a13.11,13.11,0,0,0,17.18,2.6c-.12.26-2.39,5.18-7.74,5.89a10,10,0,0,1-9.71-4.7Z"/><path class="cls-27" d="M136,95.47v3.78"/><path class="cls-27" d="M154.61,95.47v3.78"/><path class="cls-28" d="M140.3,109.64a33,33,0,0,0,6.49.22,33.44,33.44,0,0,0,5.83-.91,6.17,6.17,0,0,1-12.32.69Z"/><path class="cls-3" d="M88.14,193.19l38.49,12.87c-.76-8.47-1.95-18.5-3.64-30.36-2.2-15.37-5.57-36-10.78-60.27l-.62-4.94a12.65,12.65,0,0,1,.76-2.21,16.11,16.11,0,0,1,2.13-3.31c2.36-3.17,3.1-7.37,2-9.35-.24-.44-.44-.52-.56-.53-1-.07-1.69,4.14-2.73,4.11-.23,0-.56-.23-.94-1.29,0-.59-.06-1.48-.14-2.55-.44-6-.62-9.07-2.46-11.12-.31-.33-2.73-2.95-5.8-2.5-2.51.37-4,2.59-4.49,3.39-1,1.57-2.06,4.17-1.28,10a41,41,0,0,0,5.35,15.32l-.18,4.8Q94.86,177.75,88.14,193.19Z"/><path class="cls-29" d="M88.14,193.19l38.49,12.87c-.76-8.47-1.95-18.5-3.64-30.36-2.2-15.37-5.57-36-10.78-60.27l-.62-4.94a12.65,12.65,0,0,1,.76-2.21,16.11,16.11,0,0,1,2.13-3.31c2.36-3.17,3.1-7.37,2-9.35-.24-.44-.44-.52-.56-.53-1-.07-1.69,4.14-2.73,4.11-.23,0-.56-.23-.94-1.29,0-.59-.06-1.48-.14-2.55-.44-6-.62-9.07-2.46-11.12-.31-.33-2.73-2.95-5.8-2.5-2.51.37-4,2.59-4.49,3.39-1,1.57-2.06,4.17-1.28,10a41,41,0,0,0,5.35,15.32l-.18,4.8Q94.86,177.75,88.14,193.19Z"/><path class="cls-11" d="M86.62,201.55c4.38,15.3,6.72,34.71-.05,54.4-.51,1.5-1.07,3-1.66,4.38.39,1.43,2.55,8.87,9.27,11.76,6.15,2.64,12.29-.17,15-1.41,15.18-7,23.08-29.92,18.59-57.17"/><path class="cls-30" d="M86.62,199.55c-8.55,36.93-5.2,65,7.56,70.54,6.16,2.67,13.08-.54,15-1.41,15.18-7,23.08-29.92,18.59-57.17"/><path class="cls-11" d="M85.78,198.33c.36,2.57,2.55,4.26,4.3,5.44,5.81,3.92,11.93,8.28,20.87,8.62,4,.16,5.23-.61,10.32,0,3.9.42,5.32,1.11,6.46.17,2.37-2,1.48-9.15-2-11.21-.92-.54-4.25-.67-10.88-.93l-.57,0c-9.67-.38-22.79-10.18-27.1-6.78C85.34,195,85.75,198.14,85.78,198.33Z"/><path class="cls-12" d="M85.78,197.33c.36,2.57,2.55,4.26,4.3,5.44,5.81,3.92,11.93,8.28,20.87,8.62,4,.16,5.23-.61,10.32,0,3.9.42,5.32,1.11,6.46.17,2.37-2,1.48-9.15-2-11.21-.92-.54-4.25-.67-10.88-.93l-.57,0c-9.67-.38-22.79-10.18-27.1-6.78C85.34,194,85.75,197.14,85.78,197.33Z"/><path class="cls-9" d="M136,179.13c-.18,6.87-.67,14.29-1.6,22.17a243.53,243.53,0,0,1-5.54,30.21c.14-2.37.2-4.92.13-7.63,0-1.55-.13-3-.25-4.47,1.11-3.86,2.15-7.91,3.09-12.16A202.57,202.57,0,0,0,136,179.13Z"/></g></g></svg>