<svg xmlns="http://www.w3.org/2000/svg" xmlns:xlink="http://www.w3.org/1999/xlink" viewBox="0 0 524.1 550"><defs><style>.cls-1{isolation:isolate;}.cls-2{fill:#f8d893;}.cls-12,.cls-13,.cls-14,.cls-15,.cls-16,.cls-17,.cls-18,.cls-19,.cls-21,.cls-22,.cls-23,.cls-24,.cls-25,.cls-26,.cls-27,.cls-28,.cls-29,.cls-3,.cls-30,.cls-31,.cls-32,.cls-33,.cls-34,.cls-35,.cls-4,.cls-6,.cls-7{mix-blend-mode:multiply;}.cls-3{fill:url(#linear-gradient);}.cls-10,.cls-4{opacity:0.35;}.cls-5,.cls-6{fill:#7c5e2b;}.cls-6{opacity:0.25;}.cls-10,.cls-7{fill:none;stroke-miterlimit:10;}.cls-7{stroke:#7c5e2b;opacity:0.5;}.cls-8{fill:#172e38;}.cls-9{fill:#2d5b6f;}.cls-10{stroke:#0b272d;stroke-width:0.91px;}.cls-11{fill:#ebeff1;}.cls-12{fill:url(#linear-gradient-2);}.cls-13{fill:url(#linear-gradient-3);}.cls-14{fill:url(#linear-gradient-4);}.cls-15{fill:url(#linear-gradient-5);}.cls-16{fill:url(#linear-gradient-6);}.cls-17{fill:url(#linear-gradient-7);}.cls-18{fill:url(#linear-gradient-8);}.cls-19{fill:url(#linear-gradient-9);}.cls-20{fill:#f7bc55;}.cls-21{fill:url(#linear-gradient-10);}.cls-22{fill:url(#linear-gradient-11);}.cls-23{fill:url(#linear-gradient-12);}.cls-24{fill:url(#linear-gradient-13);}.cls-25{fill:url(#linear-gradient-14);}.cls-26{fill:url(#linear-gradient-15);}.cls-27{fill:url(#linear-gradient-16);}.cls-28{fill:url(#linear-gradient-17);}.cls-29{fill:url(#linear-gradient-18);}.cls-30{fill:url(#linear-gradient-19);}.cls-31{fill:url(#linear-gradient-20);}.cls-32{fill:url(#linear-gradient-21);}.cls-33{fill:url(#linear-gradient-22);}.cls-34{fill:url(#linear-gradient-23);}.cls-35{fill:url(#linear-gradient-24);}</style><linearGradient id="linear-gradient" x1="140.55" y1="295.89" x2="383.55" y2="295.89" gradientUnits="userSpaceOnUse"><stop offset="0" stop-color="#fff"/><stop offset="0.17" stop-color="#fdebcb"/><stop offset="0.53" stop-color="#f7bc55"/><stop offset="0.59" stop-color="#f8c162"/><stop offset="0.69" stop-color="#f9ce83"/><stop offset="0.84" stop-color="#fce3b9"/><stop offset="1" stop-color="#fff"/></linearGradient><linearGradient id="linear-gradient-2" x1="300.77" y1="321.35" x2="343.47" y2="321.35" gradientUnits="userSpaceOnUse"><stop offset="0" stop-color="#fff"/><stop offset="0.79" stop-color="#cbd5dc"/><stop offset="1" stop-color="#bdc9d2"/></linearGradient><linearGradient id="linear-gradient-3" x1="306.59" y1="242.38" x2="359.5" y2="242.38" xlink:href="#linear-gradient-2"/><linearGradient id="linear-gradient-4" x1="355.24" y1="321.35" x2="397.94" y2="321.35" gradientTransform="matrix(-1, 0, 0, 1, 578.57, 0)" xlink:href="#linear-gradient-2"/><linearGradient id="linear-gradient-5" x1="361.06" y1="242.38" x2="413.98" y2="242.38" gradientTransform="matrix(-1, 0, 0, 1, 578.57, 0)" xlink:href="#linear-gradient-2"/><linearGradient id="linear-gradient-6" x1="237.94" y1="271.2" x2="286.39" y2="271.2" gradientUnits="userSpaceOnUse"><stop offset="0" stop-color="#fff"/><stop offset="0.42" stop-color="#cbd5dc"/><stop offset="0.53" stop-color="#bdc9d2"/><stop offset="0.65" stop-color="#cad3db"/><stop offset="0.88" stop-color="#ebeef1"/><stop offset="1" stop-color="#fff"/></linearGradient><linearGradient id="linear-gradient-7" x1="340.48" y1="342.22" x2="487.18" y2="342.22" gradientUnits="userSpaceOnUse"><stop offset="0" stop-color="#f7bc55"/><stop offset="0.12" stop-color="#f8c162"/><stop offset="0.35" stop-color="#f9ce83"/><stop offset="0.65" stop-color="#fce3b9"/><stop offset="1" stop-color="#fff"/></linearGradient><linearGradient id="linear-gradient-8" x1="350.1" y1="413.11" x2="383.77" y2="413.11" xlink:href="#linear-gradient-2"/><linearGradient id="linear-gradient-9" x1="402.31" y1="418.32" x2="438.75" y2="418.32" xlink:href="#linear-gradient-2"/><linearGradient id="linear-gradient-10" x1="359.82" y1="352.82" x2="394.72" y2="352.82" xlink:href="#linear-gradient-2"/><linearGradient id="linear-gradient-11" x1="413.28" y1="360.48" x2="448.65" y2="360.48" xlink:href="#linear-gradient-2"/><linearGradient id="linear-gradient-12" x1="370.2" y1="300.27" x2="406.92" y2="300.27" xlink:href="#linear-gradient-2"/><linearGradient id="linear-gradient-13" x1="425.15" y1="309.91" x2="459.88" y2="309.91" xlink:href="#linear-gradient-2"/><linearGradient id="linear-gradient-14" x1="379.51" y1="252.09" x2="418.47" y2="252.09" xlink:href="#linear-gradient-2"/><linearGradient id="linear-gradient-15" x1="436.66" y1="267.19" x2="469.5" y2="267.19" xlink:href="#linear-gradient-2"/><linearGradient id="linear-gradient-16" x1="394.95" y1="342.22" x2="541.65" y2="342.22" gradientTransform="matrix(-1, 0, 0, 1, 578.57, 0)" xlink:href="#linear-gradient-7"/><linearGradient id="linear-gradient-17" x1="404.57" y1="413.11" x2="438.24" y2="413.11" gradientTransform="matrix(-1, 0, 0, 1, 578.57, 0)" xlink:href="#linear-gradient-2"/><linearGradient id="linear-gradient-18" x1="456.78" y1="418.32" x2="493.22" y2="418.32" gradientTransform="matrix(-1, 0, 0, 1, 578.57, 0)" xlink:href="#linear-gradient-2"/><linearGradient id="linear-gradient-19" x1="414.29" y1="352.82" x2="449.2" y2="352.82" gradientTransform="matrix(-1, 0, 0, 1, 578.57, 0)" xlink:href="#linear-gradient-2"/><linearGradient id="linear-gradient-20" x1="467.75" y1="360.48" x2="503.12" y2="360.48" gradientTransform="matrix(-1, 0, 0, 1, 578.57, 0)" xlink:href="#linear-gradient-2"/><linearGradient id="linear-gradient-21" x1="424.67" y1="300.27" x2="461.4" y2="300.27" gradientTransform="matrix(-1, 0, 0, 1, 578.57, 0)" xlink:href="#linear-gradient-2"/><linearGradient id="linear-gradient-22" x1="479.63" y1="309.91" x2="514.36" y2="309.91" gradientTransform="matrix(-1, 0, 0, 1, 578.57, 0)" xlink:href="#linear-gradient-2"/><linearGradient id="linear-gradient-23" x1="433.99" y1="252.09" x2="472.94" y2="252.09" gradientTransform="matrix(-1, 0, 0, 1, 578.57, 0)" xlink:href="#linear-gradient-2"/><linearGradient id="linear-gradient-24" x1="491.13" y1="267.19" x2="523.97" y2="267.19" gradientTransform="matrix(-1, 0, 0, 1, 578.57, 0)" xlink:href="#linear-gradient-2"/></defs><g class="cls-1"><g id="Layer_1" data-name="Layer 1"><path class="cls-2" d="M262.05,460h78.43a1420.68,1420.68,0,0,1,18-159.43c7.15-41.92,15.75-81,25.07-117q-29.06-13.59-60.43-27T262.05,131.8Q232.25,143.27,201,156.55t-60.43,27c9.32,36,17.92,75.08,25.07,117a1420.68,1420.68,0,0,1,18,159.43Z"/><path class="cls-3" d="M262.05,460h78.43a1420.68,1420.68,0,0,1,18-159.43c7.15-41.92,15.75-81,25.07-117q-29.06-13.59-60.43-27T262.05,131.8Q232.25,143.27,201,156.55t-60.43,27c9.32,36,17.92,75.08,25.07,117a1420.68,1420.68,0,0,1,18,159.43Z"/><path class="cls-4" d="M310.33,186.84c-14.49-1-29.6-1.61-46.28-1.61-14.82,0-30,.48-46.28,1.61q-.15-5.07-.38-10.23-.25-5.9-.59-11.63c14.79-1,30.57-1.61,47.25-1.61,14.82,0,30.61.48,47.25,1.61-.22,3.72-.42,7.48-.59,11.31C310.55,179.85,310.43,183.37,310.33,186.84Z"/><path class="cls-5" d="M308.33,184.84c-14.49-1-29.6-1.61-46.28-1.61-14.82,0-30,.48-46.28,1.61q-.15-5.07-.38-10.23-.25-5.9-.59-11.63c14.79-1,30.57-1.61,47.25-1.61,14.82,0,30.61.48,47.25,1.61-.22,3.72-.42,7.48-.59,11.31C308.55,177.85,308.43,181.37,308.33,184.84Z"/><path class="cls-6" d="M218.67,181.64q-.13-3.55-.28-7.16c-.13-2.88-.27-5.79-.43-8.7,14.63-.93,29.45-1.4,44.09-1.4s29.45.47,44.08,1.4c-.15,2.78-.29,5.59-.42,8.37q-.16,3.72-.28,7.49c-14.55-.95-28.77-1.41-43.38-1.41S233.21,180.69,218.67,181.64Z"/><path class="cls-7" d="M218.67,181.64q-.13-3.55-.28-7.16c-.13-2.88-.27-5.79-.43-8.7,14.63-.93,29.45-1.4,44.09-1.4s29.45.47,44.08,1.4c-.15,2.78-.29,5.59-.42,8.37q-.16,3.72-.28,7.49c-14.55-.95-28.77-1.41-43.38-1.41S233.21,180.69,218.67,181.64Z"/><path class="cls-8" d="M224.76,376.73h37.29V460H225.84Z"/><path class="cls-9" d="M228.62,382.62h33.43V460H229.58Z"/><path class="cls-9" d="M299.34,376.73a3.22,3.22,0,0,1,.85-1.71,3.38,3.38,0,0,1,2.52-1,2.54,2.54,0,0,1,0-1.07,3.07,3.07,0,0,1,1.77-2l-42.43.48L219.62,371a3.07,3.07,0,0,1,1.77,2,2.54,2.54,0,0,1,0,1.07,3.38,3.38,0,0,1,2.52,1,3.22,3.22,0,0,1,.85,1.71Z"/><polygon class="cls-10" points="232.54 456.98 231.66 385.63 259.05 385.63 259.05 456.98 232.54 456.98"/><path class="cls-4" d="M179.35,302q1.58,13.62,3.22,27.35,1.43,11.93,2.89,23.78a170.3,170.3,0,0,1,43-4.31L226,296.32a162.56,162.56,0,0,0-20.89.8A160.51,160.51,0,0,0,179.35,302Z"/><path class="cls-4" d="M175.34,278.91q-1.69-10.47-3.86-21.43c-2.58-13-5.48-25.37-8.57-37.07,9.69-2.24,20.29-4.24,31.71-5.79,8.21-1.1,16-1.86,23.47-2.35l4.65,60.14c-5.53.25-11.34.68-17.4,1.36A259.27,259.27,0,0,0,175.34,278.91Z"/><path class="cls-4" d="M348.75,302q-1.58,13.62-3.22,27.35-1.42,11.93-2.89,23.78a170.3,170.3,0,0,0-43-4.31l2.52-52.45a162.56,162.56,0,0,1,20.89.8A160.51,160.51,0,0,1,348.75,302Z"/><path class="cls-4" d="M352.76,278.91q1.69-10.47,3.86-21.43c2.58-13,5.48-25.37,8.57-37.07-9.69-2.24-20.29-4.24-31.71-5.79-8.21-1.1-16.05-1.86-23.47-2.35l-4.65,60.14c5.53.25,11.34.68,17.4,1.36A259.64,259.64,0,0,1,352.76,278.91Z"/><path class="cls-9" d="M177.35,299q1.58,13.62,3.22,27.35,1.43,11.93,2.89,23.78a170.3,170.3,0,0,1,43-4.31L224,293.32a162.56,162.56,0,0,0-20.89.8A160.51,160.51,0,0,0,177.35,299Z"/><path class="cls-11" d="M186,346.44q-1.25-10.21-2.48-20.5-1.49-12.42-2.92-24.76a157.94,157.94,0,0,1,39-4.92h1.44l2.23,46.44h-1.5c-5.24,0-10.55.25-15.77.72A176.67,176.67,0,0,0,186,346.44Z"/><path class="cls-9" d="M173.34,275.91q-1.69-10.47-3.86-21.43c-2.58-13-5.48-25.37-8.57-37.07,9.69-2.24,20.29-4.24,31.71-5.79,8.21-1.1,16-1.86,23.47-2.35l4.65,60.14c-5.53.25-11.34.68-17.4,1.36A259.27,259.27,0,0,0,173.34,275.91Z"/><path class="cls-11" d="M175.78,272.28c-1-6.12-2.15-12.29-3.36-18.38-2.27-11.42-4.9-22.93-7.83-34.25,9.39-2.07,18.94-3.77,28.43-5.05,6.7-.91,13.52-1.62,20.3-2.13l4.19,54.1c-4.84.27-9.71.68-14.51,1.22A262.61,262.61,0,0,0,175.78,272.28Z"/><path class="cls-9" d="M319.91,138.87a427,427,0,0,1-57.86-49.5,427,427,0,0,1-57.86,49.5,427.75,427.75,0,0,1-80.35,45q2.4,5.15,4.82,10.29l133.39-55.61,133.39,55.61q2.42-5.15,4.82-10.29A427.44,427.44,0,0,1,319.91,138.87Z"/><path class="cls-8" d="M299.34,376.73H262.05V460h36.21Z"/><path class="cls-9" d="M295.48,382.62H262.05V460h32.47Z"/><polygon class="cls-10" points="265.05 456.98 265.05 385.63 292.44 385.63 291.56 456.98 265.05 456.98"/><path class="cls-10" d="M302.71,374.05l-40.66,0-40.66,0"/><path class="cls-9" d="M346.75,299q-1.58,13.62-3.22,27.35-1.42,11.93-2.89,23.78a170.3,170.3,0,0,0-43-4.31l2.52-52.45a162.56,162.56,0,0,1,20.89.8A160.51,160.51,0,0,1,346.75,299Z"/><path class="cls-11" d="M338.07,346.44a176.67,176.67,0,0,0-20-3c-5.22-.47-10.52-.72-15.76-.72h-1.51L303,296.27h1.44a157.94,157.94,0,0,1,39,4.92q-1.43,12.35-2.92,24.76Q339.32,336.23,338.07,346.44Z"/><path class="cls-9" d="M350.76,275.91q1.69-10.47,3.86-21.43c2.58-13,5.48-25.37,8.57-37.07-9.69-2.24-20.29-4.24-31.71-5.79-8.21-1.1-16.05-1.86-23.47-2.35l-4.65,60.14c5.53.25,11.34.68,17.4,1.36A259.64,259.64,0,0,1,350.76,275.91Z"/><path class="cls-11" d="M348.32,272.28a262.61,262.61,0,0,0-27.22-4.49c-4.8-.54-9.67-1-14.51-1.22l4.18-54.1c6.79.51,13.61,1.22,20.31,2.13,9.49,1.28,19,3,28.42,5.05-2.92,11.31-5.55,22.82-7.82,34.25C350.47,260,349.34,266.16,348.32,272.28Z"/><path class="cls-12" d="M338.07,346.44a176.67,176.67,0,0,0-20-3c-5.22-.47-10.52-.72-15.76-.72h-1.51L303,296.27h1.44a157.94,157.94,0,0,1,39,4.92q-1.43,12.35-2.92,24.76Q339.32,336.23,338.07,346.44Z"/><path class="cls-13" d="M348.32,272.28a262.61,262.61,0,0,0-27.22-4.49c-4.8-.54-9.67-1-14.51-1.22l4.18-54.1c6.79.51,13.61,1.22,20.31,2.13,9.49,1.28,19,3,28.42,5.05-2.92,11.31-5.55,22.82-7.82,34.25C350.47,260,349.34,266.16,348.32,272.28Z"/><path class="cls-14" d="M186,346.44a176.67,176.67,0,0,1,20-3c5.22-.47,10.52-.72,15.76-.72h1.51l-2.23-46.44h-1.44a157.94,157.94,0,0,0-39,4.92q1.43,12.35,2.92,24.76Q184.78,336.23,186,346.44Z"/><path class="cls-15" d="M175.78,272.28A262.61,262.61,0,0,1,203,267.79c4.8-.54,9.67-1,14.51-1.22l-4.19-54.1c-6.78.51-13.6,1.22-20.3,2.13-9.49,1.28-19,3-28.43,5.05,2.93,11.31,5.56,22.82,7.83,34.25C173.63,260,174.76,266.16,175.78,272.28Z"/><path class="cls-9" d="M285.62,347.05H238.48c-.39-24.54-1.34-50.15-3-76.71-1.63-26-3.82-51-6.43-75h66q-3,37-5.36,75.16Q287.27,309.35,285.62,347.05Z"/><path class="cls-10" d="M241.43,344.05c-.43-24.56-1.43-49.4-3-73.9-1.49-23.86-3.54-48-6.08-71.81H291.8c-1.9,23.89-3.61,48.09-5.1,72-1.52,24.43-2.85,49.22-3.95,73.74Z"/><path class="cls-11" d="M246.34,339.05c-.48-23-1.44-46.28-2.88-69.21-1.38-22.07-3.23-44.41-5.52-66.5h48.45c-1.73,22.17-3.31,44.57-4.68,66.66-1.43,22.86-2.68,46.07-3.74,69.05Z"/><path class="cls-16" d="M246.34,339.05c-.48-23-1.44-46.28-2.88-69.21-1.38-22.07-3.23-44.41-5.52-66.5h48.45c-1.73,22.17-3.31,44.57-4.68,66.66-1.43,22.86-2.68,46.07-3.74,69.05Z"/><path class="cls-9" d="M378.48,203.74l122.28,44.74q3.44,11.15,6.86,22.29L373.75,223.82Z"/><path class="cls-2" d="M487.18,263.6Q476,310.13,465.84,360.34q-10.35,51.66-18,100.29L340.48,460A1422.19,1422.19,0,0,1,355.6,318.07c5.25-33.24,11.42-64.69,18.15-94.25Z"/><path class="cls-17" d="M487.18,263.6Q476,310.13,465.84,360.34q-10.35,51.66-18,100.29L340.48,460A1422.19,1422.19,0,0,1,355.6,318.07c5.25-33.24,11.42-64.69,18.15-94.25Z"/><path class="cls-9" d="M350.6,394.89l36.81,3.7c-1.85,8.4-3.49,17.19-4.82,26.36q-.46,3.15-.86,6.25l-34.82-1.75c.43-6.87,1-14,1.93-21.43C349.36,403.52,350,399.15,350.6,394.89Z"/><path class="cls-11" d="M350.1,426.6c.43-6.09,1-12.21,1.71-18.23.4-3.38.85-6.8,1.34-10.21l30.62,3.08c-1.63,7.71-3,15.52-4.15,23.27-.18,1.19-.34,2.37-.5,3.55Z"/><path class="cls-9" d="M399,432.55l35.84,2.68,7.71-28.77-38.25-5.22q-1.29,5.52-2.41,11.49C400.58,419.67,399.64,426.3,399,432.55Z"/><path class="cls-11" d="M402.31,429.79c.65-5.53,1.5-11.07,2.51-16.51.54-2.89,1.13-5.8,1.78-8.69L438.75,409l-6.19,23.07Z"/><path class="cls-18" d="M350.1,426.6c.43-6.09,1-12.21,1.71-18.23.4-3.38.85-6.8,1.34-10.21l30.62,3.08c-1.63,7.71-3,15.52-4.15,23.27-.18,1.19-.34,2.37-.5,3.55Z"/><path class="cls-19" d="M402.31,429.79c.65-5.53,1.5-11.07,2.51-16.51.54-2.89,1.13-5.8,1.78-8.69L438.75,409l-6.19,23.07Z"/><path class="cls-4" d="M349.84,394.48c-.29,1.72-.58,3.43-.86,5.15l41.19,4.5.81-5.31Z"/><path class="cls-20" d="M348.84,392.48c-.29,1.72-.58,3.43-.86,5.15l41.19,4.5.81-5.31Z"/><path class="cls-4" d="M403.28,400.28c-.29,1.71-.57,3.43-.86,5.14l43.42,5.72c.26-1.68.53-3.35.8-5Z"/><path class="cls-20" d="M402.28,398.28c-.29,1.71-.57,3.43-.86,5.14l43.42,5.72c.26-1.68.53-3.35.8-5Z"/><path class="cls-9" d="M360.5,334l37.85,5.83c-1.86,8.12-3.51,16.66-4.87,25.58-.31,2.05-.6,4.09-.87,6.1l-36-3.19c.45-6.84,1.11-14,2-21.32C359.2,342.51,359.83,338.18,360.5,334Z"/><path class="cls-11" d="M359.82,365.57c.45-6.09,1.06-12.21,1.81-18.23.41-3.3.87-6.64,1.37-9.95l31.72,4.88c-1.64,7.48-3.06,15.09-4.21,22.66-.17,1.11-.33,2.21-.48,3.31Z"/><path class="cls-9" d="M410,373.5,445,377.43q3.69-13.57,7.38-27.09l-37.17-7q-1.29,5.3-2.4,11C411.55,361,410.62,367.44,410,373.5Z"/><path class="cls-11" d="M413.28,370.85c.65-5.34,1.49-10.69,2.5-15.93.52-2.7,1.09-5.42,1.71-8.12l31.16,5.89-5.85,21.48Z"/><path class="cls-21" d="M359.82,365.57c.45-6.09,1.06-12.21,1.81-18.23.41-3.3.87-6.64,1.37-9.95l31.72,4.88c-1.64,7.48-3.06,15.09-4.21,22.66-.17,1.11-.33,2.21-.48,3.31Z"/><path class="cls-22" d="M413.28,370.85c.65-5.34,1.49-10.69,2.5-15.93.52-2.7,1.09-5.42,1.71-8.12l31.16,5.89-5.85,21.48Z"/><path class="cls-4" d="M359.65,333.45l-.9,5.09,42.39,6.81c.27-1.71.53-3.42.8-5.14Z"/><path class="cls-4" d="M414.24,342.33c-.29,1.65-.57,3.3-.85,4.95l42.2,7.72c.25-1.58.51-3.16.76-4.74Z"/><path class="cls-20" d="M358.65,331.45l-.9,5.09,42.39,6.81c.27-1.71.53-3.42.8-5.14Z"/><path class="cls-20" d="M413.24,340.33c-.29,1.65-.57,3.3-.85,4.95l42.2,7.72c.25-1.58.51-3.16.76-4.74Z"/><path class="cls-9" d="M371.15,280.89l39.45,7.8c-2,7.9-3.81,16.19-5.3,24.84-.34,2-.66,3.94-.95,5.89L367,315.1c.48-6.79,1.18-13.86,2.16-21.2Q370.05,287.21,371.15,280.89Z"/><path class="cls-11" d="M370.2,312.45c.48-6.05,1.12-12.15,1.93-18.15.43-3.28.93-6.59,1.46-9.87L406.92,291c-1.77,7.27-3.31,14.65-4.57,22-.18,1-.35,2.06-.52,3.09Z"/><path class="cls-9" d="M421.77,321.89l34.12,4.71q3.9-12.63,7.81-25.28L427.56,293q-1.37,5.09-2.59,10.6C423.57,310,422.53,316.09,421.77,321.89Z"/><path class="cls-11" d="M425.15,319.33c.74-5.08,1.67-10.15,2.75-15.13.56-2.56,1.17-5.12,1.82-7.66l30.16,7-6.1,19.76Z"/><path class="cls-23" d="M370.2,312.45c.48-6.05,1.12-12.15,1.93-18.15.43-3.28.93-6.59,1.46-9.87L406.92,291c-1.77,7.27-3.31,14.65-4.57,22-.18,1-.35,2.06-.52,3.09Z"/><path class="cls-24" d="M425.15,319.33c.74-5.08,1.67-10.15,2.75-15.13.56-2.56,1.17-5.12,1.82-7.66l30.16,7-6.1,19.76Z"/><path class="cls-4" d="M370.16,280.23l-1,5.11,44.16,8.94.9-5Z"/><path class="cls-4" d="M426.63,292c-.31,1.6-.63,3.19-.94,4.79l41,9.19.87-4.46Z"/><path class="cls-20" d="M369.16,278.23l-1,5.11,44.16,8.94.9-5Z"/><path class="cls-20" d="M425.63,290c-.31,1.6-.63,3.19-.94,4.79l41,9.19.87-4.46Z"/><path class="cls-9" d="M380.83,231.1l41.29,12.76c-2,7.35-3.85,15.13-5.36,23.32-.35,1.87-.68,3.74-1,5.59l-39.48-8c.53-6.73,1.3-13.72,2.37-20.92Q379.65,237.26,380.83,231.1Z"/><path class="cls-11" d="M379.51,262.33c.53-6.07,1.24-12.13,2.13-18.08.46-3.1,1-6.22,1.53-9.29l35.3,10.91c-1.81,6.81-3.37,13.78-4.67,20.76-.15.86-.31,1.72-.46,2.58Z"/><path class="cls-9" d="M433.29,276.77,466,284.13l7.23-22.53L439,249.92c-.9,3.11-1.76,6.36-2.55,9.76C435.07,265.61,434,271.33,433.29,276.77Z"/><path class="cls-11" d="M436.66,274.45c.72-4.75,1.63-9.47,2.71-14.09.51-2.2,1.06-4.4,1.65-6.57l28.48,9.7L464,280.6Z"/><path class="cls-25" d="M379.51,262.33c.53-6.07,1.24-12.13,2.13-18.08.46-3.1,1-6.22,1.53-9.29l35.3,10.91c-1.81,6.81-3.37,13.78-4.67,20.76-.15.86-.31,1.72-.46,2.58Z"/><path class="cls-26" d="M436.66,274.45c.72-4.75,1.63-9.47,2.71-14.09.51-2.2,1.06-4.4,1.65-6.57l28.48,9.7L464,280.6Z"/><path class="cls-4" d="M379.68,230.18q-.53,2.48-1.06,5l46.28,14.37.9-4.7Z"/><path class="cls-4" d="M438.09,248.85l-.93,4.43,38.94,12.91c.27-1.33.53-2.66.8-4Z"/><path class="cls-20" d="M378.68,228.18q-.53,2.48-1.06,5l46.28,14.37.9-4.7Z"/><path class="cls-20" d="M437.09,246.85l-.93,4.43,38.94,12.91c.27-1.33.53-2.66.8-4Z"/><path class="cls-9" d="M145.62,203.74,23.34,248.48q-3.43,11.15-6.86,22.29l133.87-46.95Z"/><path class="cls-2" d="M36.92,263.6q11.22,46.53,21.34,96.74,10.35,51.66,18,100.29L183.62,460a1419.41,1419.41,0,0,0-15.13-141.91c-5.24-33.24-11.41-64.69-18.14-94.25Z"/><path class="cls-27" d="M36.92,263.6q11.22,46.53,21.34,96.74,10.35,51.66,18,100.29L183.62,460a1419.41,1419.41,0,0,0-15.13-141.91c-5.24-33.24-11.41-64.69-18.14-94.25Z"/><path class="cls-9" d="M173.5,394.89l-36.81,3.7c1.85,8.4,3.48,17.19,4.82,26.36q.47,3.15.86,6.25l34.82-1.75c-.43-6.87-1.05-14-1.93-21.43C174.74,403.52,174.14,399.15,173.5,394.89Z"/><path class="cls-11" d="M174,426.6c-.43-6.09-1-12.21-1.72-18.23-.39-3.38-.84-6.8-1.33-10.21l-30.62,3.08c1.63,7.71,3,15.52,4.15,23.27.18,1.19.34,2.37.5,3.55Z"/><path class="cls-9" d="M125.12,432.55l-35.84,2.68-7.71-28.77,38.25-5.22q1.29,5.52,2.41,11.49C123.52,419.67,124.46,426.3,125.12,432.55Z"/><path class="cls-11" d="M121.79,429.79c-.66-5.53-1.5-11.07-2.51-16.51-.54-2.89-1.13-5.8-1.78-8.69L85.35,409l6.19,23.07Z"/><path class="cls-28" d="M174,426.6c-.43-6.09-1-12.21-1.72-18.23-.39-3.38-.84-6.8-1.33-10.21l-30.62,3.08c1.63,7.71,3,15.52,4.15,23.27.18,1.19.34,2.37.5,3.55Z"/><path class="cls-29" d="M121.79,429.79c-.66-5.53-1.5-11.07-2.51-16.51-.54-2.89-1.13-5.8-1.78-8.69L85.35,409l6.19,23.07Z"/><path class="cls-4" d="M174.26,394.48c.29,1.72.58,3.43.86,5.15l-41.2,4.5q-.39-2.65-.8-5.31Z"/><path class="cls-20" d="M175.26,392.48c.29,1.72.58,3.43.86,5.15l-41.2,4.5q-.39-2.65-.8-5.31Z"/><path class="cls-4" d="M120.82,400.28c.29,1.71.57,3.43.86,5.14l-43.42,5.72c-.26-1.68-.53-3.35-.8-5Z"/><path class="cls-20" d="M121.82,398.28c.29,1.71.57,3.43.86,5.14l-43.42,5.72c-.26-1.68-.53-3.35-.8-5Z"/><path class="cls-9" d="M163.59,334l-37.85,5.83c1.87,8.12,3.52,16.66,4.88,25.58.31,2.05.6,4.09.87,6.1l36-3.19c-.45-6.84-1.11-14-2-21.32Q164.61,340.28,163.59,334Z"/><path class="cls-11" d="M164.28,365.57c-.45-6.09-1.06-12.21-1.81-18.23-.41-3.3-.87-6.64-1.38-9.95l-31.71,4.88c1.64,7.48,3.06,15.09,4.21,22.66.16,1.11.33,2.21.48,3.31Z"/><path class="cls-9" d="M114.14,373.5l-35.06,3.93q-3.69-13.57-7.38-27.09l37.17-7q1.29,5.3,2.4,11C112.55,361,113.48,367.44,114.14,373.5Z"/><path class="cls-11" d="M110.82,370.85c-.66-5.34-1.49-10.69-2.5-15.93-.52-2.7-1.09-5.42-1.71-8.12l-31.16,5.89,5.85,21.48Z"/><path class="cls-30" d="M164.28,365.57c-.45-6.09-1.06-12.21-1.81-18.23-.41-3.3-.87-6.64-1.38-9.95l-31.71,4.88c1.64,7.48,3.06,15.09,4.21,22.66.16,1.11.33,2.21.48,3.31Z"/><path class="cls-31" d="M110.82,370.85c-.66-5.34-1.49-10.69-2.5-15.93-.52-2.7-1.09-5.42-1.71-8.12l-31.16,5.89,5.85,21.48Z"/><path class="cls-4" d="M164.45,333.45l.9,5.09L123,345.35l-.81-5.14Z"/><path class="cls-4" d="M109.86,342.33c.29,1.65.57,3.3.85,4.95L68.51,355c-.25-1.58-.51-3.16-.76-4.74Z"/><path class="cls-20" d="M165.45,331.45l.9,5.09L124,343.35l-.81-5.14Z"/><path class="cls-20" d="M110.86,340.33c.29,1.65.57,3.3.85,4.95L69.51,353c-.25-1.58-.51-3.16-.76-4.74Z"/><path class="cls-9" d="M153,280.89l-39.45,7.8c2,7.9,3.81,16.19,5.3,24.84.34,2,.66,3.94,1,5.89l37.36-4.32c-.48-6.79-1.18-13.86-2.16-21.2Q154.05,287.21,153,280.89Z"/><path class="cls-11" d="M153.9,312.45c-.48-6.05-1.13-12.15-1.93-18.15-.43-3.28-.93-6.59-1.46-9.87L117.18,291c1.77,7.27,3.31,14.65,4.57,22,.18,1,.35,2.06.52,3.09Z"/><path class="cls-9" d="M102.33,321.89,68.21,326.6Q64.31,314,60.4,301.32L96.54,293q1.36,5.09,2.59,10.6C100.53,310,101.57,316.09,102.33,321.89Z"/><path class="cls-11" d="M99,319.33c-.74-5.08-1.67-10.15-2.75-15.13-.56-2.56-1.17-5.12-1.82-7.66l-30.16,7,6.1,19.76Z"/><path class="cls-32" d="M153.9,312.45c-.48-6.05-1.13-12.15-1.93-18.15-.43-3.28-.93-6.59-1.46-9.87L117.18,291c1.77,7.27,3.31,14.65,4.57,22,.18,1,.35,2.06.52,3.09Z"/><path class="cls-33" d="M99,319.33c-.74-5.08-1.67-10.15-2.75-15.13-.56-2.56-1.17-5.12-1.82-7.66l-30.16,7,6.1,19.76Z"/><path class="cls-4" d="M153.94,280.23l1,5.11-44.16,8.94-.9-5Z"/><path class="cls-4" d="M97.47,292c.31,1.6.63,3.19.94,4.79l-41,9.19-.87-4.46Z"/><path class="cls-20" d="M154.94,278.23l1,5.11-44.16,8.94-.9-5Z"/><path class="cls-20" d="M98.47,290c.31,1.6.63,3.19.94,4.79l-41,9.19-.87-4.46Z"/><path class="cls-9" d="M143.26,231.1,102,243.86c2,7.35,3.85,15.13,5.36,23.32.35,1.87.68,3.74,1,5.59l39.47-8c-.52-6.73-1.29-13.72-2.36-20.92Q144.45,237.26,143.26,231.1Z"/><path class="cls-11" d="M144.59,262.33c-.53-6.07-1.24-12.13-2.13-18.08-.46-3.1-1-6.22-1.53-9.29l-35.3,10.91c1.81,6.81,3.37,13.78,4.66,20.76.16.86.32,1.72.47,2.58Z"/><path class="cls-9" d="M90.81,276.77l-32.74,7.36L50.84,261.6l34.27-11.68c.9,3.11,1.76,6.36,2.54,9.76C89,265.61,90.06,271.33,90.81,276.77Z"/><path class="cls-11" d="M87.44,274.45c-.73-4.75-1.64-9.47-2.71-14.09-.51-2.2-1.06-4.4-1.65-6.57l-28.48,9.7,5.49,17.11Z"/><path class="cls-34" d="M144.59,262.33c-.53-6.07-1.24-12.13-2.13-18.08-.46-3.1-1-6.22-1.53-9.29l-35.3,10.91c1.81,6.81,3.37,13.78,4.66,20.76.16.86.32,1.72.47,2.58Z"/><path class="cls-35" d="M87.44,274.45c-.73-4.75-1.64-9.47-2.71-14.09-.51-2.2-1.06-4.4-1.65-6.57l-28.48,9.7,5.49,17.11Z"/><path class="cls-4" d="M144.42,230.18l1.05,5L99.2,249.51l-.9-4.7Z"/><path class="cls-4" d="M86,248.85l.93,4.43L48,266.19c-.26-1.33-.53-2.66-.79-4Z"/><path class="cls-20" d="M145.42,228.18l1.05,5L100.2,247.51l-.9-4.7Z"/><path class="cls-20" d="M87,246.85l.93,4.43L49,264.19c-.26-1.33-.53-2.66-.79-4Z"/><path class="cls-4" d="M392.67,208.93a1226.56,1226.56,0,0,0-28.41,132.12c-6.72,42.59-10.71,82.47-12.86,119L340.48,460A1421.62,1421.62,0,0,1,355.6,318.07c6.46-40.94,14.32-79.12,22.88-114.33Z"/><path class="cls-4" d="M157.78,218.86c.48,1.55,1,3.1,1.45,4.66a262.67,262.67,0,0,1,62.84-9c-.22-2.15-.43-4.29-.65-6.43a298.44,298.44,0,0,0-63.64,10.77Z"/><path class="cls-4" d="M175.62,300c.11,1.39.22,2.78.32,4.18a178.24,178.24,0,0,1,53.2-5.31c-.23-2.12-.47-4.25-.7-6.37a240.75,240.75,0,0,0-52.82,7.5Z"/><path class="cls-4" d="M368.32,218.86c-.48,1.55-1,3.1-1.45,4.66a262.67,262.67,0,0,0-62.84-9q.33-3.22.64-6.43a298.39,298.39,0,0,1,63.65,10.77Z"/><path class="cls-4" d="M350.48,300c-.11,1.39-.22,2.78-.32,4.18a178.24,178.24,0,0,0-53.2-5.31c.23-2.12.46-4.25.7-6.37a240.75,240.75,0,0,1,52.82,7.5Z"/><path class="cls-20" d="M156.78,215.86c.48,1.55,1,3.1,1.45,4.66a262.67,262.67,0,0,1,62.84-9c-.22-2.15-.43-4.29-.65-6.43a298.44,298.44,0,0,0-63.64,10.77Z"/><path class="cls-20" d="M174.62,297c.11,1.39.22,2.78.32,4.18a178.24,178.24,0,0,1,53.2-5.31c-.23-2.12-.47-4.25-.7-6.37a240.75,240.75,0,0,0-52.82,7.5Z"/><path class="cls-20" d="M367.32,215.86c-.48,1.55-1,3.1-1.45,4.66a262.67,262.67,0,0,0-62.84-9q.33-3.22.64-6.43a298.39,298.39,0,0,1,63.65,10.77Z"/><path class="cls-20" d="M349.48,297c-.11,1.39-.22,2.78-.32,4.18a178.24,178.24,0,0,0-53.2-5.31c.23-2.12.46-4.25.7-6.37a240.75,240.75,0,0,1,52.82,7.5Z"/></g></g></svg>