<svg xmlns="http://www.w3.org/2000/svg" xmlns:xlink="http://www.w3.org/1999/xlink" viewBox="0 0 524.1 550"><defs><style>.cls-1{isolation:isolate;}.cls-2{fill:#ffca95;}.cls-10,.cls-11,.cls-12,.cls-13,.cls-14,.cls-17,.cls-3,.cls-5,.cls-6,.cls-7,.cls-9{mix-blend-mode:multiply;}.cls-3{fill:url(#linear-gradient);}.cls-4{fill:#ffcf9f;}.cls-5{fill:url(#linear-gradient-2);}.cls-6{fill:url(#linear-gradient-3);}.cls-7{fill:url(#linear-gradient-4);}.cls-8{fill:#57cad7;}.cls-9{fill:url(#linear-gradient-5);}.cls-10{fill:url(#linear-gradient-6);}.cls-11{fill:url(#linear-gradient-7);}.cls-12{fill:url(#linear-gradient-8);}.cls-13{fill:url(#linear-gradient-9);}.cls-14{fill:url(#linear-gradient-10);}.cls-15{fill:#ffe2c5;}.cls-16{fill:#eea8aa;}.cls-17{fill:url(#linear-gradient-11);}</style><linearGradient id="linear-gradient" x1="334.2" y1="47.2" x2="294.04" y2="146.35" gradientUnits="userSpaceOnUse"><stop offset="0" stop-color="#fff"/><stop offset="0.07" stop-color="#fff6ed"/><stop offset="0.22" stop-color="#ffe8d1"/><stop offset="0.37" stop-color="#fdb"/><stop offset="0.54" stop-color="#ffd5ab"/><stop offset="0.73" stop-color="#ffd0a2"/><stop offset="1" stop-color="#ffcf9f"/></linearGradient><linearGradient id="linear-gradient-2" x1="203.33" y1="119.51" x2="217.59" y2="144.21" gradientUnits="userSpaceOnUse"><stop offset="0" stop-color="#ffcf9f"/><stop offset="0.06" stop-color="#ffd4a9"/><stop offset="0.34" stop-color="#ffe7ce"/><stop offset="0.6" stop-color="#fff4e9"/><stop offset="0.83" stop-color="#fffcf9"/><stop offset="1" stop-color="#fff"/></linearGradient><linearGradient id="linear-gradient-3" x1="114.05" y1="119.12" x2="150.43" y2="182" gradientUnits="userSpaceOnUse"><stop offset="0" stop-color="#fff"/><stop offset="0.17" stop-color="#fffcf9"/><stop offset="0.4" stop-color="#fff4e9"/><stop offset="0.66" stop-color="#ffe7ce"/><stop offset="0.94" stop-color="#ffd4a9"/><stop offset="1" stop-color="#ffcf9f"/></linearGradient><linearGradient id="linear-gradient-4" x1="269.27" y1="193.65" x2="234.25" y2="16.91" xlink:href="#linear-gradient-2"/><linearGradient id="linear-gradient-5" x1="293.53" y1="362.89" x2="253.37" y2="462.04" gradientTransform="translate(483.43 865.69) rotate(180)" xlink:href="#linear-gradient"/><linearGradient id="linear-gradient-6" x1="73.38" y1="434.81" x2="109.76" y2="497.69" gradientTransform="translate(483.43 865.69) rotate(180)" xlink:href="#linear-gradient-3"/><linearGradient id="linear-gradient-7" x1="228.6" y1="509.34" x2="193.58" y2="332.6" gradientTransform="translate(483.43 865.69) rotate(180)" xlink:href="#linear-gradient-2"/><linearGradient id="linear-gradient-8" x1="56.34" y1="176.18" x2="130.26" y2="176.18" gradientUnits="userSpaceOnUse"><stop offset="0" stop-color="#15b5c6"/><stop offset="0.1" stop-color="#22b9c9"/><stop offset="0.27" stop-color="#43c4d1"/><stop offset="0.5" stop-color="#79d5de"/><stop offset="0.79" stop-color="#c3ecf0"/><stop offset="1" stop-color="#fff"/></linearGradient><linearGradient id="linear-gradient-9" x1="393.84" y1="373.82" x2="467.76" y2="373.82" xlink:href="#linear-gradient-8"/><linearGradient id="linear-gradient-10" x1="307.84" y1="393.94" x2="335.29" y2="474.23" xlink:href="#linear-gradient-3"/><linearGradient id="linear-gradient-11" x1="167.8" y1="252.19" x2="380.49" y2="334.69" gradientUnits="userSpaceOnUse"><stop offset="0" stop-color="#fff"/><stop offset="0.17" stop-color="#fdfafa"/><stop offset="0.36" stop-color="#f8ecec"/><stop offset="0.57" stop-color="#f0d4d5"/><stop offset="0.78" stop-color="#e4b4b4"/><stop offset="1" stop-color="#d58b8c"/></linearGradient></defs><g class="cls-1"><g id="Layer_1" data-name="Layer 1"><path class="cls-2" d="M209.86,53.06c15-7,42.63-17.19,76.11-13.45,82.87,9.23,137.55,96.63,130.53,105.27-2.68,3.31-15.74-3.24-25-7.87-35.24-17.68-48.17-44-62.76-59C312.37,61.14,280.15,44.66,209.86,53.06Z"/><path class="cls-3" d="M209.86,53.06c15-7,42.63-17.19,76.11-13.45,82.87,9.23,137.55,96.63,130.53,105.27-2.68,3.31-15.74-3.24-25-7.87-35.24-17.68-48.17-44-62.76-59C312.37,61.14,280.15,44.66,209.86,53.06Z"/><path class="cls-4" d="M151.89,158.84c8.45.75,46.35,3.16,78.46-23.72a104.3,104.3,0,0,0,30.71-44.05c-20.65,5.24-33.46,14.13-40.55,20.13a175.64,175.64,0,0,0-18.43,18.92c-10,11.92-10.63,15.71-16.48,20.44S169.93,160,151.89,158.84Z"/><path class="cls-5" d="M151.89,158.84c8.45.75,46.35,3.16,78.46-23.72a104.3,104.3,0,0,0,30.71-44.05c-20.65,5.24-33.46,14.13-40.55,20.13a175.64,175.64,0,0,0-18.43,18.92c-10,11.92-10.63,15.71-16.48,20.44S169.93,160,151.89,158.84Z"/><path class="cls-4" d="M122.48,109,94.26,132.14a173.33,173.33,0,0,0,6.43,16.72A171.1,171.1,0,0,0,120,181.64l48.86-22.5Z"/><path class="cls-6" d="M122.48,109,94.26,132.14a173.33,173.33,0,0,0,6.43,16.72A171.1,171.1,0,0,0,120,181.64l48.86-22.5Z"/><path class="cls-4" d="M140.1,92c41.73-37.87,89.2-43.87,98.29-44.88a160.47,160.47,0,0,1,53.73,2.31c70,15.35,118.88,78,112.26,87.49-2.61,3.74-13.85,0-25.42-3.9C341.5,120.52,337.54,100.71,313,91.38c-32.33-12.3-73.94,3.67-97,23.47-20.67,17.72-18.35,31.52-37.62,39.67-25.69,10.86-62.89.34-67.86-17.65C106.53,122.48,124.16,106.48,140.1,92Z"/><path class="cls-7" d="M140.1,92c41.73-37.87,89.2-43.87,98.29-44.88a160.47,160.47,0,0,1,53.73,2.31c70,15.35,118.88,78,112.26,87.49-2.61,3.74-13.85,0-25.42-3.9C341.5,120.52,337.54,100.71,313,91.38c-32.33-12.3-73.94,3.67-97,23.47-20.67,17.72-18.35,31.52-37.62,39.67-25.69,10.86-62.89.34-67.86-17.65C106.53,122.48,124.16,106.48,140.1,92Z"/><path class="cls-8" d="M94.26,132.14a222.05,222.05,0,0,0,36,64.29q-20.56,11.9-41.14,23.78a112,112,0,0,1-32.78-60.42,91,91,0,0,1,37.92-27.65Z"/><path class="cls-2" d="M314.24,496.94c-15,7-42.63,17.19-76.12,13.45-82.86-9.23-137.54-96.63-130.52-105.27,2.68-3.31,15.74,3.24,25,7.87,35.24,17.68,48.17,44.05,62.76,59C211.73,488.86,244,505.34,314.24,496.94Z"/><path class="cls-9" d="M314.24,496.94c-15,7-42.63,17.19-76.12,13.45-82.86-9.23-137.54-96.63-130.52-105.27,2.68-3.31,15.74,3.24,25,7.87,35.24,17.68,48.17,44.05,62.76,59C211.73,488.86,244,505.34,314.24,496.94Z"/><path class="cls-4" d="M401.62,441l28.22-23.14a173.33,173.33,0,0,0-6.43-16.72,171.1,171.1,0,0,0-19.29-32.78l-48.86,22.5Z"/><path class="cls-10" d="M401.62,441l28.22-23.14a173.33,173.33,0,0,0-6.43-16.72,171.1,171.1,0,0,0-19.29-32.78l-48.86,22.5Z"/><path class="cls-4" d="M384,458c-41.73,37.87-89.2,43.87-98.29,44.88A160.47,160.47,0,0,1,232,500.54c-70-15.35-118.88-78-112.26-87.49,2.61-3.74,13.85,0,25.42,3.9,37.46,12.53,41.42,32.34,65.94,41.67,32.33,12.3,73.94-3.67,97-23.47,20.68-17.72,18.36-31.52,37.63-39.67,25.69-10.86,62.89-.34,67.86,17.65C417.57,427.52,399.94,443.52,384,458Z"/><path class="cls-11" d="M384,458c-41.73,37.87-89.2,43.87-98.29,44.88A160.47,160.47,0,0,1,232,500.54c-70-15.35-118.88-78-112.26-87.49,2.61-3.74,13.85,0,25.42,3.9,37.46,12.53,41.42,32.34,65.94,41.67,32.33,12.3,73.94-3.67,97-23.47,20.68-17.72,18.36-31.52,37.63-39.67,25.69-10.86,62.89-.34,67.86,17.65C417.57,427.52,399.94,443.52,384,458Z"/><path class="cls-8" d="M429.84,417.86a222.05,222.05,0,0,0-36-64.29q20.57-11.9,41.14-23.78a112,112,0,0,1,32.78,60.42,91,91,0,0,1-37.92,27.65Z"/><path class="cls-12" d="M94.26,132.14a222.05,222.05,0,0,0,36,64.29q-20.56,11.9-41.14,23.78a112,112,0,0,1-32.78-60.42,91,91,0,0,1,37.92-27.65Z"/><path class="cls-13" d="M429.84,417.86a222.05,222.05,0,0,0-36-64.29q20.57-11.9,41.14-23.78a112,112,0,0,1,32.78,60.42,91,91,0,0,1-37.92,27.65Z"/><path class="cls-4" d="M372.21,391.16c-16-6.51-41.79,9.59-63.23,41.2-29.93-.19-50.58,9-52.07,19.93-1,7,5.58,17.89,14.78,21.21a20.91,20.91,0,0,0,10.93.64c17.54-3,36.91-10.88,47.25-15.43,36.52-19,57.44-41.66,53-56.57C380.72,394.75,373,391.46,372.21,391.16Z"/><path class="cls-14" d="M372.21,391.16c-16-6.51-41.79,9.59-63.23,41.2-29.93-.19-50.58,9-52.07,19.93-1,7,5.58,17.89,14.78,21.21a20.91,20.91,0,0,0,10.93.64c17.54-3,36.91-10.88,47.25-15.43,36.52-19,57.44-41.66,53-56.57C380.72,394.75,373,391.46,372.21,391.16Z"/><path class="cls-15" d="M256.82,454a21.47,21.47,0,0,1,19.37-3.22L282.41,463a16.41,16.41,0,0,1-5.57,7.93,15.69,15.69,0,0,1-5.15,2.57A24,24,0,0,1,256.82,454Z"/><path class="cls-16" d="M365.87,226.64c-10.55-14.52-31.16-28.37-55.93-25.07-21.08,2.81-39.17,17.24-47.25,37.61-8.07-20.37-26.17-34.8-47.25-37.61-24.76-3.3-45.38,10.55-55.93,25.07-24.11,33.19-.81,77,.33,79.07,10.25,18.6,21.82,22.22,53.67,49.18a540,540,0,0,1,49.18,47.25,541.37,541.37,0,0,1,49.18-47.25c31.85-27,43.43-30.58,53.68-49.18C366.69,303.65,390,259.83,365.87,226.64Z"/><path class="cls-17" d="M365.87,226.64c-10.55-14.52-31.16-28.37-55.93-25.07-21.08,2.81-39.17,17.24-47.25,37.61-8.07-20.37-26.17-34.8-47.25-37.61-24.76-3.3-45.38,10.55-55.93,25.07-24.11,33.19-.81,77,.33,79.07,10.25,18.6,21.82,22.22,53.67,49.18a540,540,0,0,1,49.18,47.25,541.37,541.37,0,0,1,49.18-47.25c31.85-27,43.43-30.58,53.68-49.18C366.69,303.65,390,259.83,365.87,226.64Z"/></g></g></svg>