<svg xmlns="http://www.w3.org/2000/svg" xmlns:xlink="http://www.w3.org/1999/xlink" viewBox="0 0 328.19 731.49"><defs><style>.cls-1{isolation:isolate;}.cls-2{fill:#8b6a30;}.cls-3{fill:#224453;}.cls-10,.cls-12,.cls-16,.cls-17,.cls-19,.cls-4,.cls-6,.cls-9{mix-blend-mode:multiply;}.cls-4{fill:url(#linear-gradient);}.cls-5{fill:#d58b8c;}.cls-6{fill:url(#linear-gradient-2);}.cls-7{fill:#a06869;}.cls-8{fill:#ffcf9f;}.cls-9{fill:url(#linear-gradient-3);}.cls-10{fill:url(#linear-gradient-4);}.cls-11{fill:#2d5b6f;}.cls-12{fill:url(#linear-gradient-5);}.cls-13{fill:#57cad7;}.cls-14{opacity:0.35;}.cls-15{fill:#f7bc55;}.cls-16{fill:url(#linear-gradient-6);}.cls-17{fill:url(#linear-gradient-7);}.cls-18{fill:#00293f;}.cls-19{fill:url(#linear-gradient-8);}.cls-20{fill:none;stroke:#000;stroke-linecap:round;stroke-miterlimit:10;}.cls-21{fill:#fff;}</style><linearGradient id="linear-gradient" x1="120.96" y1="180.93" x2="198.23" y2="180.93" gradientUnits="userSpaceOnUse"><stop offset="0" stop-color="#fff"/><stop offset="0.14" stop-color="#fbfcfc"/><stop offset="0.27" stop-color="#eff2f3"/><stop offset="0.41" stop-color="#dce1e4"/><stop offset="0.54" stop-color="#c0cace"/><stop offset="0.67" stop-color="#9dacb2"/><stop offset="0.81" stop-color="#718790"/><stop offset="0.93" stop-color="#3e5c69"/><stop offset="1" stop-color="#224453"/></linearGradient><linearGradient id="linear-gradient-2" x1="67.07" y1="294.98" x2="240.34" y2="294.98" gradientUnits="userSpaceOnUse"><stop offset="0" stop-color="#fff"/><stop offset="0.19" stop-color="#fefbfb"/><stop offset="0.37" stop-color="#f9eff0"/><stop offset="0.56" stop-color="#f2dcdc"/><stop offset="0.74" stop-color="#e8c0c1"/><stop offset="0.92" stop-color="#dc9d9e"/><stop offset="1" stop-color="#d58b8c"/></linearGradient><linearGradient id="linear-gradient-3" x1="143.78" y1="188.58" x2="165.59" y2="188.58" gradientUnits="userSpaceOnUse"><stop offset="0" stop-color="#fff"/><stop offset="0.17" stop-color="#fffbf6"/><stop offset="0.46" stop-color="#ffeede"/><stop offset="0.82" stop-color="#ffdbb6"/><stop offset="1" stop-color="#ffcf9f"/></linearGradient><linearGradient id="linear-gradient-4" x1="130.67" y1="171.65" x2="169.14" y2="171.65" xlink:href="#linear-gradient-3"/><linearGradient id="linear-gradient-5" x1="124.35" y1="183.96" x2="243.27" y2="183.96" xlink:href="#linear-gradient"/><linearGradient id="linear-gradient-6" x1="59.56" y1="432.38" x2="268.29" y2="432.38" gradientUnits="userSpaceOnUse"><stop offset="0" stop-color="#fff"/><stop offset="0.07" stop-color="#fefcf6"/><stop offset="0.5" stop-color="#fbe9c1"/><stop offset="0.82" stop-color="#f9dda0"/><stop offset="1" stop-color="#f8d893"/></linearGradient><linearGradient id="linear-gradient-7" x1="164.37" y1="601.45" x2="207.77" y2="601.45" gradientUnits="userSpaceOnUse"><stop offset="0" stop-color="#fff"/><stop offset="0.45" stop-color="#ffe6cd"/><stop offset="0.81" stop-color="#ffd5ac"/><stop offset="1" stop-color="#ffcf9f"/></linearGradient><linearGradient id="linear-gradient-8" x1="107.84" y1="602.42" x2="149.66" y2="602.42" gradientUnits="userSpaceOnUse"><stop offset="0" stop-color="#fff"/><stop offset="0.22" stop-color="#fffdfb"/><stop offset="0.42" stop-color="#fff8f1"/><stop offset="0.61" stop-color="#ffefde"/><stop offset="0.8" stop-color="#ffe2c5"/><stop offset="0.98" stop-color="#ffd1a4"/><stop offset="1" stop-color="#ffcf9f"/></linearGradient></defs><g class="cls-1"><g id="Layer_1" data-name="Layer 1"><path class="cls-2" d="M66.89,490.72c-1.06.56-2.46,1.31-4.09,2.24-2.14,1.23-3.22,1.85-3.24,2.08-.19,2,13.23,6.68,28.2,6.66A76.52,76.52,0,0,0,110,498.26c30-8.53,66.16-5.54,102.36-2.55a101.36,101.36,0,0,0,20.28-.18,100.23,100.23,0,0,0,22.55-5.21c-14.78-8.68-52.45-28.1-103.34-25.48A185.15,185.15,0,0,0,66.89,490.72Z"/><path class="cls-3" d="M127.3,155.75a14.44,14.44,0,0,1,.65,7.78c-1.27,6-6.09,6.93-6.88,12.21-.61,4.06,1.51,8.43,4.22,10.88,3.91,3.53,7.64,1.82,11.32,5.11,3,2.69,3.81,6.79,4,10a59,59,0,0,1,32.69-.89,58.25,58.25,0,0,1,22.32,11.52c5.85-17.43,1.72-36.51-10.7-49.07C170.29,148.45,146.64,145.17,127.3,155.75Z"/><path class="cls-4" d="M127.3,155.75a14.44,14.44,0,0,1,.65,7.78c-1.27,6-6.09,6.93-6.88,12.21-.61,4.06,1.51,8.43,4.22,10.88,3.91,3.53,7.64,1.82,11.32,5.11,3,2.69,3.81,6.79,4,10a59,59,0,0,1,32.69-.89,58.25,58.25,0,0,1,22.32,11.52c5.85-17.43,1.72-36.51-10.7-49.07C170.29,148.45,146.64,145.17,127.3,155.75Z"/><path class="cls-5" d="M139.94,201.72a71.58,71.58,0,0,0-7.55,2.66c-47.93,20-78.8,95.39-59.49,154.07A112.22,112.22,0,0,0,89.32,390a76.26,76.26,0,0,1,3.55-11.76,77.66,77.66,0,0,1,3.55-7.78,119.33,119.33,0,0,0,49.74,11.11,121,121,0,0,0,66-19.77q4.54,7.23,9.1,14.44a115.24,115.24,0,0,0,16.1-37.2c12.72-54.73-16.06-120.27-59.46-136.72a64.23,64.23,0,0,0-7.71-2.39Z"/><path class="cls-6" d="M139.94,201.72a71.58,71.58,0,0,0-7.55,2.66c-47.93,20-78.8,95.39-59.49,154.07A112.22,112.22,0,0,0,89.32,390a76.26,76.26,0,0,1,3.55-11.76,77.66,77.66,0,0,1,3.55-7.78,119.33,119.33,0,0,0,49.74,11.11,121,121,0,0,0,66-19.77q4.54,7.23,9.1,14.44a115.24,115.24,0,0,0,16.1-37.2c12.72-54.73-16.06-120.27-59.46-136.72a64.23,64.23,0,0,0-7.71-2.39Z"/><path class="cls-7" d="M143.78,194.73a24.39,24.39,0,0,0,9.82,1.66,24.87,24.87,0,0,0,12-3.66,8.64,8.64,0,0,1,3.89,4.1,6,6,0,0,1,.66,3.11c-.63,3.86-9.67,5.71-15.87,5.89-5.56.15-13.59-.91-14.33-4.11a6.83,6.83,0,0,1,.89-4A7.62,7.62,0,0,1,143.78,194.73Z"/><path class="cls-8" d="M143.78,194.73a18.92,18.92,0,0,0,3.5-12.41,15.81,15.81,0,0,1,5.21-1.47,16.13,16.13,0,0,1,7.49,1,16.27,16.27,0,0,0,5.61,10.88,24.51,24.51,0,0,1-21.81,2Z"/><path class="cls-9" d="M143.78,194.73a18.92,18.92,0,0,0,3.5-12.41,15.81,15.81,0,0,1,5.21-1.47,16.13,16.13,0,0,1,7.49,1,16.27,16.27,0,0,0,5.61,10.88,24.51,24.51,0,0,1-21.81,2Z"/><path class="cls-8" d="M130.67,159.92a50.76,50.76,0,0,0,9.16,18.4c4.07,5.15,8.7,11,14.16,10.41,5.75-.63,9.2-8.06,11.49-13a40.1,40.1,0,0,0,3.66-16.1,37.86,37.86,0,0,0-38.47.28Z"/><path class="cls-10" d="M130.67,159.92a50.76,50.76,0,0,0,9.16,18.4c4.07,5.15,8.7,11,14.16,10.41,5.75-.63,9.2-8.06,11.49-13a40.1,40.1,0,0,0,3.66-16.1,37.86,37.86,0,0,0-38.47.28Z"/><path class="cls-11" d="M161.93,162.86a16.67,16.67,0,0,1-7.33,5.77c-9.1,3.47-19.07-3.29-23.93-8.71-2.49-2.79-6.83-7.62-6.27-13.71.86-9.41,12.78-15.15,20.21-16.88,11.16-2.59,24,1.16,31.75,9.11,7.38,7.57,5,13.75,12.88,18.65s12.8.09,18.87,5.33,3.39,11.58,11.55,18.87c3.68,3.29,6.24,3.79,8,3.78,4,0,6.88-2.83,7.77-3.78a41.24,41.24,0,0,1,2.67,44.19,21.37,21.37,0,0,1-4.67-.67,21.67,21.67,0,0,1-8-4,13,13,0,0,0,5.77,6,12.73,12.73,0,0,0,6.67,1.33,18.66,18.66,0,0,1-18.16,11.24A92.68,92.68,0,0,0,208,223.8c-1-1-3.45-3.66-12.42-11.49-15.29-13.35-15-11.73-16.48-14.25-6.29-10.43-2.15-21.67-8.82-24.82-1.82-.86-3.88-.85-5.83-2.94A11,11,0,0,1,161.93,162.86Z"/><path class="cls-12" d="M161.93,162.86a16.67,16.67,0,0,1-7.33,5.77c-9.1,3.47-19.07-3.29-23.93-8.71-2.49-2.79-6.83-7.62-6.27-13.71.86-9.41,12.78-15.15,20.21-16.88,11.16-2.59,24,1.16,31.75,9.11,7.38,7.57,5,13.75,12.88,18.65s12.8.09,18.87,5.33,3.39,11.58,11.55,18.87c3.68,3.29,6.24,3.79,8,3.78,4,0,6.88-2.83,7.77-3.78a41.24,41.24,0,0,1,2.67,44.19,21.37,21.37,0,0,1-4.67-.67,21.67,21.67,0,0,1-8-4,13,13,0,0,0,5.77,6,12.73,12.73,0,0,0,6.67,1.33,18.66,18.66,0,0,1-18.16,11.24A92.68,92.68,0,0,0,208,223.8c-1-1-3.45-3.66-12.42-11.49-15.29-13.35-15-11.73-16.48-14.25-6.29-10.43-2.15-21.67-8.82-24.82-1.82-.86-3.88-.85-5.83-2.94A11,11,0,0,1,161.93,162.86Z"/><path class="cls-13" d="M117.64,211.86A9.86,9.86,0,0,1,128.73,206a188.36,188.36,0,0,1,2.73,18.89c1.63,17.32,6,64.15-21.05,94.75a72.88,72.88,0,0,1-6.44,6.43,7.74,7.74,0,0,1-2.43-2.29,7.45,7.45,0,0,1-1-2,90,90,0,0,0,14.33-22.67c8.24-18.82,7.8-35.77,7.39-51.11A179.93,179.93,0,0,0,117.64,211.86Z"/><path class="cls-13" d="M180.87,203.57a134.9,134.9,0,0,0,20.75,118.05,7.33,7.33,0,0,0,3.16-5.82,114.5,114.5,0,0,1-12.88-25.48c-12.44-35-4.24-66.94.36-80.91a9.42,9.42,0,0,0-11.39-5.84Z"/><path class="cls-11" d="M204.61,317.18a19.39,19.39,0,0,0,11,9.22l2.73,5.72a29.45,29.45,0,0,1-10.66-5.67,28.8,28.8,0,0,1-5.13-5.63,7.61,7.61,0,0,0,1.19-1.53A7.19,7.19,0,0,0,204.61,317.18Z"/><path class="cls-11" d="M103.28,325.61a28.65,28.65,0,0,1-5,4.37,29.5,29.5,0,0,1-5.85,3.11q1.36-3.39,2.74-6.78a9.68,9.68,0,0,0,3.32-1.9,9.47,9.47,0,0,0,2.17-2.71,7,7,0,0,0,2.65,3.91Z"/><path class="cls-14" d="M96.42,370.47a16.59,16.59,0,0,1-4.22-4c-6.12-8.4-2-20.69-1.11-23.32,1.88-5.6,3.66-6.42,6.94-15.54,1.14-3.15,1.91-5.79,2.39-7.55,1.43-2.33,2.87-4.66,4.3-7,1.2-3.83,2.31-8,3.25-12.54a133.27,133.27,0,0,0,2.72-23.2c-1.19,13.24-4.09,21.92-6.66,27.53-.8,1.74-2.47,5.15-4.72,10.55-2.37,5.68-3.15,8.47-5.27,13.71-5.26,12.94-5.79,12.31-7,16.82s-3.83,14.85.83,25.31a30.5,30.5,0,0,0,4.8,7.52Z"/><path class="cls-14" d="M212.11,361.81a27,27,0,0,0,4.44-8.88c.8-2.83,1.37-6.69.44-12.88-1.11-7.38-3.31-11.1-7.55-21.09a191.87,191.87,0,0,1-7-18.15,90.78,90.78,0,0,1-3.89-25.59,122.72,122.72,0,0,0,9.72,36.41c6.95,15.59,12.06,20.23,12.65,31.81.51,9.86-2.9,18.06-5.73,23.28Z"/><path class="cls-15" d="M96.42,370.47a82.65,82.65,0,0,0-5.39,13c-1,3.08-3.81,12.68-4.16,36.36-.23,16,.93,20.88-2.22,30a52.83,52.83,0,0,1-5.89,11.9,42.09,42.09,0,0,0-11.2,10.62,43.26,43.26,0,0,0-8,22.65,55.72,55.72,0,0,1,22.87-9.32c25.92-4,36.21,15.16,64.17,17.09,27,1.87,25.13-15.39,55.52-14.21,20.29.79,35.9,9.07,56.4.45a56.09,56.09,0,0,0,9.77-5.33,51,51,0,0,0-10.55-18.54c-7.37-8.13-12.35-7.9-19.32-16.32a47.34,47.34,0,0,1-10-21c-2.1-11.37,2.13-15.27,1.33-27-.41-6-2.19-14.55-8.55-24.64q-4.54-7.22-9.1-14.44a120.42,120.42,0,0,1-63.62,19.74A119.16,119.16,0,0,1,96.42,370.47Z"/><path class="cls-16" d="M96.42,370.47a82.65,82.65,0,0,0-5.39,13c-1,3.08-3.81,12.68-4.16,36.36-.23,16,.93,20.88-2.22,30a52.83,52.83,0,0,1-5.89,11.9,42.09,42.09,0,0,0-11.2,10.62,43.26,43.26,0,0,0-8,22.65,55.72,55.72,0,0,1,22.87-9.32c25.92-4,36.21,15.16,64.17,17.09,27,1.87,25.13-15.39,55.52-14.21,20.29.79,35.9,9.07,56.4.45a56.09,56.09,0,0,0,9.77-5.33,51,51,0,0,0-10.55-18.54c-7.37-8.13-12.35-7.9-19.32-16.32a47.34,47.34,0,0,1-10-21c-2.1-11.37,2.13-15.27,1.33-27-.41-6-2.19-14.55-8.55-24.64q-4.54-7.22-9.1-14.44a120.42,120.42,0,0,1-63.62,19.74A119.16,119.16,0,0,1,96.42,370.47Z"/><path class="cls-8" d="M207.77,489q-4.92,23.53-9.25,48.11a1536.23,1536.23,0,0,0-19.83,164.76q17.58,8.08,16.76,11-1,3.64-31.08-.89.45-105.93.92-211.87c1.31-.65,3.29-1.66,5.68-2.92,5.27-2.8,6.43-3.65,8.54-4.7a40,40,0,0,1,13.65-3.66A52.94,52.94,0,0,1,207.77,489Z"/><path class="cls-17" d="M207.77,489q-4.92,23.53-9.25,48.11a1536.23,1536.23,0,0,0-19.83,164.76q17.58,8.08,16.76,11-1,3.64-31.08-.89.45-105.93.92-211.87c1.31-.65,3.29-1.66,5.68-2.92,5.27-2.8,6.43-3.65,8.54-4.7a40,40,0,0,1,13.65-3.66A52.94,52.94,0,0,1,207.77,489Z"/><path class="cls-18" d="M178.69,701.88q17.58,8.08,16.76,11-1,3.64-31.08-.89c0-3.32,0-6.63,0-10a11.4,11.4,0,0,0,14.28-.15Z"/><path class="cls-8" d="M146.6,502.81l3.06,209.34q-31,5.67-32.25,1.85-1-3.09,17.43-12.34l-19-166.21-8-46.14c1.42.64,3.59,1.62,6.21,2.87,3,1.45,4.74,2.34,6,3a81,81,0,0,0,14.15,5.53A64.25,64.25,0,0,0,146.6,502.81Z"/><path class="cls-19" d="M146.6,502.81l3.06,209.34q-31,5.67-32.25,1.85-1-3.09,17.43-12.34l-19-166.21-8-46.14c1.42.64,3.59,1.62,6.21,2.87,3,1.45,4.74,2.34,6,3a81,81,0,0,0,14.15,5.53A64.25,64.25,0,0,0,146.6,502.81Z"/><path class="cls-18" d="M149.51,701.88l.15,10.27q-31,5.67-32.25,1.85-1-3.09,17.43-12.34a16.53,16.53,0,0,0,8.84,1.82A16.27,16.27,0,0,0,149.51,701.88Z"/><path class="cls-14" d="M147.14,186.3a8.84,8.84,0,0,0,6.26,2.47,9.17,9.17,0,0,0,7.07-4.2c.34.94.69,1.87,1,2.81a8.55,8.55,0,0,1-8,3.42A8.92,8.92,0,0,1,147.14,186.3Z"/><path class="cls-14" d="M165.26,505.49a49.18,49.18,0,0,1,41.59-12c.31-1.48.61-3,.92-4.45a50.94,50.94,0,0,0-14.61-.18c-9.25,1.24-16.18,4.82-21,7.33-2.91,1.5-5.24,2.92-6.84,3.95Z"/><path class="cls-14" d="M107.84,489.31a103.47,103.47,0,0,0,38.76,13.5c0,.73,0,1.46,0,2.19-3.51-.74-7.22-1.68-11.08-2.89A119.66,119.66,0,0,1,107.84,489.31Z"/><path class="cls-20" d="M142.33,168.73c0,1.29.07,2.57.1,3.86"/><path class="cls-20" d="M158.61,168.73c0,1.29.07,2.57.11,3.86"/><path class="cls-21" d="M146.89,178.86a25.64,25.64,0,0,0,6.06.37,25.17,25.17,0,0,0,4.39-.64A5.52,5.52,0,0,1,153.7,183C151.12,183.79,147.93,182.1,146.89,178.86Z"/></g></g></svg>