<svg xmlns="http://www.w3.org/2000/svg" xmlns:xlink="http://www.w3.org/1999/xlink" viewBox="0 0 328.19 731.49"><defs><style>.cls-1{isolation:isolate;}.cls-2{fill:#100500;}.cls-3{fill:#225e66;}.cls-4{fill:#ffcf9f;}.cls-11,.cls-15,.cls-16,.cls-18,.cls-22,.cls-24,.cls-26,.cls-5,.cls-6,.cls-8{mix-blend-mode:multiply;}.cls-5{fill:url(#linear-gradient);}.cls-6{fill:url(#linear-gradient-2);}.cls-7{fill:#2d5b6f;}.cls-8{fill:url(#linear-gradient-3);}.cls-9{fill:#dfe5e9;}.cls-10{fill:#57cad7;}.cls-11{fill:url(#linear-gradient-4);}.cls-12{fill:#79d5df;}.cls-13,.cls-25{opacity:0.35;}.cls-14{fill:#4198a1;}.cls-15{fill:url(#linear-gradient-5);}.cls-16{fill:url(#linear-gradient-6);}.cls-17{fill:#744100;}.cls-18{fill:url(#linear-gradient-7);}.cls-19{fill:#a7acaf;}.cls-20{fill:#5c9b68;}.cls-21{fill:#7bce8a;}.cls-22{fill:url(#linear-gradient-8);}.cls-23{fill:#f7bc55;}.cls-24{fill:url(#linear-gradient-9);}.cls-25,.cls-28{fill:none;stroke:#000;stroke-miterlimit:10;}.cls-26{fill:url(#linear-gradient-10);}.cls-27{fill:#1f0a00;}.cls-28{stroke-linecap:round;stroke-width:2px;}.cls-29{fill:#fff;}</style><linearGradient id="linear-gradient" x1="209.14" y1="324.81" x2="223.78" y2="324.81" gradientUnits="userSpaceOnUse"><stop offset="0" stop-color="#ffcf9f"/><stop offset="0.18" stop-color="#ffdbb6"/><stop offset="0.54" stop-color="#ffeede"/><stop offset="0.83" stop-color="#fffbf6"/><stop offset="1" stop-color="#fff"/></linearGradient><linearGradient id="linear-gradient-2" x1="132.58" y1="136.34" x2="162.17" y2="136.34" xlink:href="#linear-gradient"/><linearGradient id="linear-gradient-3" x1="86.87" y1="503.72" x2="275.79" y2="503.72" gradientUnits="userSpaceOnUse"><stop offset="0" stop-color="#15b5c6"/><stop offset="0.1" stop-color="#22b9c9"/><stop offset="0.27" stop-color="#43c4d1"/><stop offset="0.5" stop-color="#79d5de"/><stop offset="0.79" stop-color="#c3ecf0"/><stop offset="1" stop-color="#fff"/></linearGradient><linearGradient id="linear-gradient-4" x1="38.57" y1="244.92" x2="176.2" y2="244.92" xlink:href="#linear-gradient-3"/><linearGradient id="linear-gradient-5" x1="118.5" y1="141.7" x2="153.48" y2="141.7" xlink:href="#linear-gradient-3"/><linearGradient id="linear-gradient-6" x1="124.05" y1="100.42" x2="165.84" y2="100.42" xlink:href="#linear-gradient"/><linearGradient id="linear-gradient-7" x1="168.91" y1="259.84" x2="191.97" y2="259.84" xlink:href="#linear-gradient"/><linearGradient id="linear-gradient-8" x1="65.64" y1="367.87" x2="153.86" y2="367.87" xlink:href="#linear-gradient-3"/><linearGradient id="linear-gradient-9" x1="68.1" y1="337.25" x2="163.85" y2="337.25" gradientUnits="userSpaceOnUse"><stop offset="0" stop-color="#f7bc55"/><stop offset="0.12" stop-color="#f8c162"/><stop offset="0.35" stop-color="#f9ce83"/><stop offset="0.65" stop-color="#fce3b9"/><stop offset="1" stop-color="#fff"/></linearGradient><linearGradient id="linear-gradient-10" x1="145.56" y1="690.68" x2="169.93" y2="690.68" xlink:href="#linear-gradient"/></defs><g class="cls-1"><g id="Layer_1" data-name="Layer 1"><path class="cls-2" d="M174.86,662.46a56.17,56.17,0,0,1,6.75,32.79l-11.68-.37-1.19-11.37q2.14-11.16,4.3-22.34Z"/><path class="cls-3" d="M126,128.73a60.5,60.5,0,0,1,32-1.38,7.42,7.42,0,0,1,3.07,3.31,7.31,7.31,0,0,1,.64,3,37.09,37.09,0,0,1-12,3.86c-4.32.6-13.2,1.83-19.63-3.64A16.87,16.87,0,0,1,126,128.73Z"/><path class="cls-4" d="M222.52,277.46a388.91,388.91,0,0,1,1,46.06,387.64,387.64,0,0,1-4.93,48.64l-9.43-6.43,1.74-87.23Z"/><path class="cls-5" d="M222.52,277.46a388.91,388.91,0,0,1,1,46.06,387.64,387.64,0,0,1-4.93,48.64l-9.43-6.43,1.74-87.23Z"/><path class="cls-4" d="M132.58,135.64a18.19,18.19,0,0,0,3.06-5.14,19.18,19.18,0,0,0,.81-10.93l16.71.16a14.45,14.45,0,0,0,2.89,9.65,14.13,14.13,0,0,0,5.63,4.28c1.32,8.32,0,16.3-4.29,18.64C151.93,155.29,140.18,149.91,132.58,135.64Z"/><path class="cls-6" d="M132.58,135.64a18.19,18.19,0,0,0,3.06-5.14,19.18,19.18,0,0,0,.81-10.93l16.71.16a14.45,14.45,0,0,0,2.89,9.65,14.13,14.13,0,0,0,5.63,4.28c1.32,8.32,0,16.3-4.29,18.64C151.93,155.29,140.18,149.91,132.58,135.64Z"/><path class="cls-7" d="M86.89,389a138.2,138.2,0,0,0,10.9,56.1c13.34,32.07,28.68,106.78,36.35,161.49,2.72,19.36,5.77,45.43,7.61,76.61a44.71,44.71,0,0,0,30.11-.75,1753.51,1753.51,0,0,0,.75-202.72q-1.53-28-3.86-55L216,471.05,175,598.33q-.24,17.61-.85,35.71-.3,8.64-.67,17.16l7.79,5.53C202.31,614,220.67,581,234,558.16c0,0,16.35-28.06,37.93-90,1.83-5.25,5.65-16.65,2.89-30.21-3.13-15.4-13-25.25-17.11-29.44-15.57-16-36.44-42.18-66.11-84.66a71.6,71.6,0,0,0-20-1.76C121.61,324.8,91.3,380.6,86.89,389Z"/><path class="cls-8" d="M86.89,389a138.2,138.2,0,0,0,10.9,56.1c13.34,32.07,28.68,106.78,36.35,161.49,2.72,19.36,5.77,45.43,7.61,76.61a44.71,44.71,0,0,0,30.11-.75,1753.51,1753.51,0,0,0,.75-202.72q-1.53-28-3.86-55L216,471.05,175,598.33q-.24,17.61-.85,35.71-.3,8.64-.67,17.16l7.79,5.53C202.31,614,220.67,581,234,558.16c0,0,16.35-28.06,37.93-90,1.83-5.25,5.65-16.65,2.89-30.21-3.13-15.4-13-25.25-17.11-29.44-15.57-16-36.44-42.18-66.11-84.66a71.6,71.6,0,0,0-20-1.76C121.61,324.8,91.3,380.6,86.89,389Z"/><path class="cls-9" d="M150.71,152.63a7.48,7.48,0,0,0,9.25-2.9c14.29,20.54,36.13,58.1,43.18,109.5a246.46,246.46,0,0,1,0,66.86c-9.88-3.35-16.64-2.39-21-.8-5.31,1.9-6.79,4.55-11.89,5.78,0,0-8.25,2-19.29-4-16.94-9.22-42.34-58.66-30.48-113.46C123.19,200.82,130.21,177.44,150.71,152.63Z"/><path class="cls-10" d="M118.5,139a145.11,145.11,0,0,0-24.64,45.86c-13.48,42.24,4.38,56.94-12,87.85C72,291.4,59.67,297,46.29,327.59a186,186,0,0,0-7.72,21c10.2-9.43,19.24-12.3,25.29-13.29,24.53-4,36.93,17.15,69.43,15.43,15.43-.81,21.4-6,23.14-7.71,8.59-8.27,10-22.32,10.28-25.72.54-7.12-.9-10.9,1.29-18.42a42.43,42.43,0,0,1,5.57-11.58c10.16-16.81-12.57-36.38-9.86-69.85,1.14-14,6.39-26.31-1-35.42-2.23-2.72-4.46-3.77-7.1-7.65-5.25-7.72-5.43-16.78-4.71-23.36a6.81,6.81,0,0,0,0-4.29,7,7,0,0,0-1.77-2.57C147,142.16,135,140.1,118.5,139Z"/><path class="cls-11" d="M118.5,139a145.11,145.11,0,0,0-24.64,45.86c-13.48,42.24,4.38,56.94-12,87.85C72,291.4,59.67,297,46.29,327.59a186,186,0,0,0-7.72,21c10.2-9.43,19.24-12.3,25.29-13.29,24.53-4,36.93,17.15,69.43,15.43,15.43-.81,21.4-6,23.14-7.71,8.59-8.27,10-22.32,10.28-25.72.54-7.12-.9-10.9,1.29-18.42a42.43,42.43,0,0,1,5.57-11.58c10.16-16.81-12.57-36.38-9.86-69.85,1.14-14,6.39-26.31-1-35.42-2.23-2.72-4.46-3.77-7.1-7.65-5.25-7.72-5.43-16.78-4.71-23.36a6.81,6.81,0,0,0,0-4.29,7,7,0,0,0-1.77-2.57C147,142.16,135,140.1,118.5,139Z"/><path class="cls-12" d="M139.82,182.73a223.31,223.31,0,0,1,9.64,31.82,224.16,224.16,0,0,1,4.83,33.11,20.1,20.1,0,0,1,2.65-.8,19.4,19.4,0,0,1,3.21-.48c-1.19.67-2.42,1.34-3.69,2-1.43.75-2.82,1.44-4.18,2.09-.56-7.51-1.42-15.43-2.66-23.7A320.29,320.29,0,0,0,139.82,182.73Z"/><path class="cls-13" d="M164.43,140.3a46.42,46.42,0,0,1,6.39,3.07,52.31,52.31,0,0,1,5.71,3.94c17.8,14.37,28.88,57.84,28.88,57.84,4.64,18.21,9.3,39.11,13.34,62.44-.26.28-3.54,3.75-7.71,2.89a7.32,7.32,0,0,1-3.22-1.6c-2.25,14.53-.35,25.22,1.93,32.46,2.89,9.18,7.57,16.52,10.93,31.82,1,4.69,1.6,8.62,1.93,11.25a82.29,82.29,0,0,0-13.5,1c-7,1.08-9.73,2.43-13.18,1-4.41-1.88-6.24-6.78-7.07-9-3.07-8.2-.94-15.79.32-21.21,0,0,2.38-10.29,3.53-32.47,1.46-28-9.29-53.39-11.64-58.71-2.58-5.86-5.51-11.21-7.63-20.45C171,193.9,172,188.61,171,180.16c-1-7.85-3.76-18.81-12.05-31.66Z"/><path class="cls-10" d="M168.43,140.3a46.42,46.42,0,0,1,6.39,3.07,52.31,52.31,0,0,1,5.71,3.94c17.8,14.37,28.88,57.84,28.88,57.84,4.64,18.21,9.3,39.11,13.34,62.44-.26.28-3.54,3.75-7.71,2.89a7.32,7.32,0,0,1-3.22-1.6c-2.25,14.53-.35,25.22,1.93,32.46,2.89,9.18,7.57,16.52,10.93,31.82,1,4.69,1.6,8.62,1.93,11.25a82.29,82.29,0,0,0-13.5,1c-7,1.08-9.73,2.43-13.18,1-4.41-1.88-6.24-6.78-7.07-9-3.07-8.2-.94-15.79.32-21.21,0,0,2.35-10.14,3.53-32.47.35-6.6,1.94-36.45-13.5-59.78-3.34-5.07-8.06-10.68-10-20.25-1.52-7.65.7-8.06-.32-19.18-1.41-15.46-6.63-25-7.82-27.11A58.43,58.43,0,0,0,159,148.5Z"/><path class="cls-14" d="M222.75,267.59a6.08,6.08,0,0,1,2.89,2.73,5.47,5.47,0,0,1,.48,4c-.78,2.35-3.59,3.19-5.78,3.86a19,19,0,0,1-9.46.3q.12-3,.49-6.31c.13-1.14.28-2.24.45-3.31a7.56,7.56,0,0,0,10.93-1.29Z"/><path class="cls-13" d="M211.82,268.88a66,66,0,0,0-1.12-24.75c-.57-2.36-1.07-3.86-1.69-5.79-4.86-15.22-6.12-23.67-9.08-34.39a182.27,182.27,0,0,0-8.68-24.54c-1.57-3.58-2.26-5-2.25-5a167.25,167.25,0,0,1,14.62,36.16c1.64,6,1.77,8,4.18,16.31,2.83,9.72,4,11.48,5.09,18a110.43,110.43,0,0,1,1.4,14.88c.14,4.18.07,7.73,0,10.38Z"/><path class="cls-12" d="M153.48,143.36l-6,11.31a40.13,40.13,0,0,1-23-9.06,37,37,0,0,1-6-6.59,11.44,11.44,0,0,1,3.64-8.2,10.38,10.38,0,0,1,3.86-2.09,30.82,30.82,0,0,0,5.57,6.54C139.78,142.52,149.63,143.28,153.48,143.36Z"/><path class="cls-15" d="M153.48,143.36l-6,11.31a40.13,40.13,0,0,1-23-9.06,37,37,0,0,1-6-6.59,11.44,11.44,0,0,1,3.64-8.2,10.38,10.38,0,0,1,3.86-2.09,30.82,30.82,0,0,0,5.57,6.54C139.78,142.52,149.63,143.28,153.48,143.36Z"/><path class="cls-12" d="M158,127.35a15.5,15.5,0,0,1,7.24,6.2c3,5,2.69,11.67-.64,17.25L156,143.73a9.74,9.74,0,0,0,4.5-4.5C162.2,135.55,161.21,130.84,158,127.35Z"/><path class="cls-4" d="M125.43,103.82a33.55,33.55,0,0,0,4.34,10.61c1.56,2.49,9.24,14.71,19,13.5,8.47-1.06,12.94-11.62,14.14-14.44A30.82,30.82,0,0,0,165.12,99c.33-1.22,2.67-10.71-3.37-18.48s-16.92-9.46-24.91-6C126.84,79,121.31,91.64,125.43,103.82Z"/><path class="cls-16" d="M125.43,103.82a33.55,33.55,0,0,0,4.34,10.61c1.56,2.49,9.24,14.71,19,13.5,8.47-1.06,12.94-11.62,14.14-14.44A30.82,30.82,0,0,0,165.12,99c.33-1.22,2.67-10.71-3.37-18.48s-16.92-9.46-24.91-6C126.84,79,121.31,91.64,125.43,103.82Z"/><path class="cls-17" d="M129.61,87.91c.46,1.9,1.12,5.66-.37,8.66-.57,1.15-.94,1.27-2.36,3.68-1.24,2.11-1.65,3.24-3.67.83-5.78-6.86-5.3-5.87-6.61-8.68,0,0-4.77-10.23-1-21.1,1-2.93,2.17-4.08,3.43-4.5a4.83,4.83,0,0,1,3.36.29,14.94,14.94,0,0,1,3-8.11c.27-.36,4.39-5.61,10.38-5.62,3.19,0,4.25,1.47,8.26,3.22a35.51,35.51,0,0,0,18.1,2.4A35.2,35.2,0,0,0,177,53.63a40.94,40.94,0,0,1,1.34,12.91c-.32,5.75-1.8,9.88-3.61,14.82a95.65,95.65,0,0,1-9,18.23,12.68,12.68,0,0,1-2.77-9.84A13,13,0,0,1,158,97.23c-5.92,4-14,.47-17.51-1.09A30.16,30.16,0,0,1,129.61,87.91Z"/><path class="cls-13" d="M162.61,280a162.47,162.47,0,0,1-.32-17.51c.22-6.67.3-10-1.72-12.22-1.13-1.21-2.73-2-2.79-3.71a4,4,0,0,1,2.58-3.57c2.49-.89,5.6,1.54,7.18,3.43,4.14,5,3.92,13.7,2,19.39-.87,2.62-2.19,4.87-1.5,7.93.33,1.45,1,2.68.75,4.71a5,5,0,0,1-1.71,3.47c-.85.64-2.32,1.19-3.32.6A3.22,3.22,0,0,1,162.61,280Z"/><path class="cls-14" d="M163.61,280a162.47,162.47,0,0,1-.32-17.51c.22-6.67.3-10-1.72-12.22-1.13-1.21-2.73-2-2.79-3.71a4,4,0,0,1,2.58-3.57c2.49-.89,5.6,1.54,7.18,3.43,4.14,5,3.92,13.7,2,19.39-.87,2.62-2.19,4.87-1.5,7.93.33,1.45,1,2.68.75,4.71a5,5,0,0,1-1.71,3.47c-.85.64-2.32,1.19-3.32.6A3.22,3.22,0,0,1,163.61,280Z"/><path class="cls-4" d="M169.36,247.5c2.11.22,4.38.4,6.78.48s4.72.08,6.86,0a4.52,4.52,0,0,1-1.29-3.85,4.37,4.37,0,0,1,1.61-2.58,8.13,8.13,0,0,1,5.14,1.61,8,8,0,0,1,2.79,4c.11.24,2,4.79-.75,8.46a8.15,8.15,0,0,1-4.29,2.89c-.67,1.34-1.67,3.21-3,5.36a45,45,0,0,1-7.35,9.65,36.12,36.12,0,0,1-6,4.65,11.67,11.67,0,0,0-.23-2.5c-.19-.93-.39-1.35-.55-1.94a8.5,8.5,0,0,1,.12-3.94,24.93,24.93,0,0,1,1.7-5,19.28,19.28,0,0,0,.91-9.12A22.31,22.31,0,0,0,169.36,247.5Z"/><path class="cls-18" d="M169.36,247.5c2.11.22,4.38.4,6.78.48s4.72.08,6.86,0a4.52,4.52,0,0,1-1.29-3.85,4.37,4.37,0,0,1,1.61-2.58,8.13,8.13,0,0,1,5.14,1.61,8,8,0,0,1,2.79,4c.11.24,2,4.79-.75,8.46a8.15,8.15,0,0,1-4.29,2.89c-.67,1.34-1.67,3.21-3,5.36a45,45,0,0,1-7.35,9.65,36.12,36.12,0,0,1-6,4.65,11.67,11.67,0,0,0-.23-2.5c-.19-.93-.39-1.35-.55-1.94a8.5,8.5,0,0,1,.12-3.94,24.93,24.93,0,0,1,1.7-5,19.28,19.28,0,0,0,.91-9.12A22.31,22.31,0,0,0,169.36,247.5Z"/><path class="cls-19" d="M183.46,263.45a189.7,189.7,0,0,1-7.8,32.59,189.11,189.11,0,0,1-15.6,34.56q-1.19,6.9-2.36,13.81a111.31,111.31,0,0,0,9-13C175.79,316,179,302.14,182.36,287a258.89,258.89,0,0,0,4.71-28.93l-.86.43Z"/><path class="cls-19" d="M185.12,241.7c.73-4.6,1.64-11.18,2.27-19.11,1.17-14.66,2.33-29.24-1.12-46a112,112,0,0,0-13.38-34.32l3.27,1.89c.63,1,1.23,2.08,1.83,3.15,10.13,18.24,20,48.6,10.47,95.81Z"/><path class="cls-13" d="M96.75,188.84c.42,0-.37,16.8,3.54,39.54a138.79,138.79,0,0,0,13.33,41.3c5.27,10.15,9.3,14.47,14.63,16.23,4.53,1.5,8.77.75,17-.8A106.86,106.86,0,0,0,163.61,280a3.1,3.1,0,0,0,1.18,2.52c1.3.8,3-.23,3.85-1.07a4.4,4.4,0,0,0,1.18-3l6-4.92a58.48,58.48,0,0,0,5.36-6.5,57.59,57.59,0,0,0,5-8.51l1.48-.57c-.39.67-1.08,1.87-2,3.33-7.51,12.22-9.22,11.15-13.67,18.56A9.77,9.77,0,0,1,168,284a8.91,8.91,0,0,1-4.58.81,61.19,61.19,0,0,1-19.21,6.26c-5.23.79-11.38,1.71-17.09-.1-11-3.49-15.66-15.71-21-28.5-6.93-16.63-8.11-31.11-9.21-46.07C95.73,201.08,96.39,188.85,96.75,188.84Z"/><path class="cls-19" d="M84,319.88a177.41,177.41,0,0,1,4.53-94.68q0-5.37,0-10.75c-2.07,5.35-4,11-5.71,17-10,34.93-8.88,67.08-5,91.66Z"/><path class="cls-13" d="M154.5,347.88a15.3,15.3,0,0,0-4.63,3.8c-7.42-3.3-24-2.95-39.94-2.52-16.94.46-31.15.92-41.57,1.29-2,11.77,1.55,22.77,9.43,28.14A20.82,20.82,0,0,0,87.43,382,108.64,108.64,0,0,0,86.88,393c0,2.1.06,4.13.17,6.07,3.26.3,6.91.73,10.88,1.36,6.66,1.05,33.23,6,41.78,6.42,2.18.12,5.62.24,8.36-1.92a4.5,4.5,0,0,0,1-1c2.37.44,5.26-4.18,8-8.64A34.83,34.83,0,0,0,162.21,380q.72-16.87,1.45-33.76A16.61,16.61,0,0,0,154.5,347.88Z"/><path class="cls-20" d="M149,393.87c2.37.44,5.26-4.18,8-8.64A34.83,34.83,0,0,0,162.21,370q.72-16.87,1.45-33.76a16.61,16.61,0,0,0-9.16,1.62C137,347.07,142.07,392.58,149,393.87Z"/><path class="cls-21" d="M68.36,340.45A102.63,102.63,0,0,0,66,372.38c.58,6.67,1.49,8.9,2.79,10.71,4.64,6.47,12.27,4.58,29.14,7.29,12,1.92,24.91,5.55,41.78,6.42,2.18.12,5.62.24,8.36-1.92,1.13-.9,3.4-3.18,4.5-18,.59-7.84,0-7.35.64-14.79a109,109,0,0,0,.65-11.14,33.21,33.21,0,0,0-.18-5.75c-2.23-7-23.57-6.58-43.75-6C93,339.62,78.78,340.08,68.36,340.45Z"/><path class="cls-22" d="M68.36,340.45A102.63,102.63,0,0,0,66,372.38c.58,6.67,1.49,8.9,2.79,10.71,4.64,6.47,12.27,4.58,29.14,7.29,12,1.92,24.91,5.55,41.78,6.42,2.18.12,5.62.24,8.36-1.92,1.13-.9,3.4-3.18,4.5-18,.59-7.84,0-7.35.64-14.79a109,109,0,0,0,.65-11.14,33.21,33.21,0,0,0-.18-5.75c-2.23-7-23.57-6.58-43.75-6C93,339.62,78.78,340.08,68.36,340.45Z"/><path class="cls-13" d="M68.36,342.45c-1.15-4.65,1.78-9.36,3.43-12,5.36-8.62,14.69-11,18.42-12,2.4-.62,5.63-1.21,25.72.64,9.39.87,14.22,1.3,20.36,2.36,17.27,3,22.69,6.42,25.55,10.5.79,1.12,2.61,3.79,1.82,6.31s-3.71,2.89-6.37,5c-5,3.94-3.4,9.66-5.79,13.54-1.64,2.67-6.77,6.71-42.86.86C86.18,354,70.55,351.31,68.36,342.45Z"/><path class="cls-23" d="M68.36,340.45c-1.15-4.65,1.78-9.36,3.43-12,5.36-8.62,14.69-11,18.42-12,2.4-.62,5.63-1.21,25.72.64,9.39.87,14.22,1.3,20.36,2.36,17.27,3,22.69,6.42,25.55,10.5.79,1.12,2.61,3.79,1.82,6.31s-3.71,2.89-6.37,5c-5,3.94-3.4,9.66-5.79,13.54-1.64,2.67-6.77,6.71-42.86.86C86.18,352,70.55,349.31,68.36,340.45Z"/><path class="cls-24" d="M68.36,340.45c-1.15-4.65,1.78-9.36,3.43-12,5.36-8.62,14.69-11,18.42-12,2.4-.62,5.63-1.21,25.72.64,9.39.87,14.22,1.3,20.36,2.36,17.27,3,22.69,6.42,25.55,10.5.79,1.12,2.61,3.79,1.82,6.31s-3.71,2.89-6.37,5c-5,3.94-3.4,9.66-5.79,13.54-1.64,2.67-6.77,6.71-42.86.86C86.18,352,70.55,349.31,68.36,340.45Z"/><path class="cls-25" d="M72.86,360.16c-1.18,1.49-1.45,3.64-1.72,5.79-.15,1.19-.85,6.86,1.5,10.93.89,1.53,3.49,5,21.86,7.71,7.33,1.06,7.67.62,15,1.5,17.93,2.16,24.65,5.91,28,2.22,1.31-1.43,1.46-4.2,1.76-9.72.3-5.75.48-9-.65-11.36-3.65-7.79-18.33-1.29-45-6.85C85.73,358.73,76.23,355.9,72.86,360.16Z"/><path class="cls-4" d="M145.56,684.27,147.21,697a33.79,33.79,0,0,0,22.72-2.14l-.45-11.6a44.68,44.68,0,0,1-23.92,1Z"/><path class="cls-26" d="M145.56,684.27,147.21,697a33.79,33.79,0,0,0,22.72-2.14l-.45-11.6a44.68,44.68,0,0,1-23.92,1Z"/><path class="cls-4" d="M177.77,654.23l-2.91,8.23L173,661.17c.08-1.73.17-3.47.25-5.21l.21-4.76Z"/><path class="cls-27" d="M171,694.91a35.44,35.44,0,0,1,10.6.34c12.14,2.26,24,11.18,23,15.7-.91,4.24-13.69,7.22-58.71,4.28A21.51,21.51,0,0,1,147.21,697a38.5,38.5,0,0,0,23.8-2.11Z"/><path class="cls-13" d="M168.9,426.51c-.89-5.77-1.64-11.9-2.19-18.35a272.27,272.27,0,0,1-.85-30.43,158.33,158.33,0,0,0,9.85,35.57A162.37,162.37,0,0,0,216,471.05Z"/><path class="cls-13" d="M136.89,123.21a13.08,13.08,0,0,0,17.18,2.6c-.12.27-2.39,5.19-7.74,5.9a10,10,0,0,1-9.71-4.7Z"/><path class="cls-28" d="M136,101.33v3.78"/><path class="cls-28" d="M154.61,101.33v3.78"/><path class="cls-29" d="M140.3,115.5a33,33,0,0,0,6.49.21,31.65,31.65,0,0,0,5.83-.91,6.17,6.17,0,0,1-12.32.7Z"/></g></g></svg>