<svg xmlns="http://www.w3.org/2000/svg" xmlns:xlink="http://www.w3.org/1999/xlink" viewBox="0 0 524.1 731.49"><defs><style>.cls-1{isolation:isolate;}.cls-2{fill:#225e66;}.cls-3{fill:#ffcf9f;}.cls-10,.cls-14,.cls-15,.cls-20,.cls-22,.cls-24,.cls-26,.cls-30,.cls-32,.cls-33,.cls-34,.cls-36,.cls-37,.cls-39,.cls-4,.cls-41,.cls-42,.cls-44,.cls-46,.cls-47,.cls-48,.cls-5,.cls-51,.cls-7{mix-blend-mode:multiply;}.cls-4{fill:url(#linear-gradient);}.cls-5{fill:url(#linear-gradient-2);}.cls-6{fill:#2d5b6f;}.cls-7{fill:url(#linear-gradient-3);}.cls-8{fill:#dfe5e9;}.cls-9{fill:#57cad7;}.cls-10{fill:url(#linear-gradient-4);}.cls-11,.cls-23{opacity:0.35;}.cls-12{fill:#4198a1;}.cls-13{fill:#79d5df;}.cls-14{fill:url(#linear-gradient-5);}.cls-15{fill:url(#linear-gradient-6);}.cls-16{fill:#744100;}.cls-17{fill:#a7acaf;}.cls-18{fill:#5c9b68;}.cls-19{fill:#7bce8a;}.cls-20{fill:url(#linear-gradient-7);}.cls-21{fill:#f7bc55;}.cls-22{fill:url(#linear-gradient-8);}.cls-23,.cls-27,.cls-49{fill:none;stroke:#000;stroke-miterlimit:10;}.cls-24{fill:url(#linear-gradient-9);}.cls-25{fill:#1f0a00;}.cls-26{fill:url(#linear-gradient-10);}.cls-27,.cls-49{stroke-linecap:round;}.cls-27{stroke-width:2px;}.cls-28{fill:#fff;}.cls-29{fill:url(#linear-gradient-11);}.cls-30{fill:url(#linear-gradient-12);}.cls-31{opacity:0.1;}.cls-32{fill:url(#linear-gradient-13);}.cls-33{fill:url(#linear-gradient-14);}.cls-34{fill:url(#linear-gradient-15);}.cls-35{fill:#ffca95;}.cls-36{fill:url(#linear-gradient-16);}.cls-37{fill:url(#linear-gradient-17);}.cls-38{fill:#d58b8c;}.cls-39{fill:url(#linear-gradient-18);}.cls-40{fill:#8b6a30;}.cls-41{fill:url(#linear-gradient-19);}.cls-42{fill:url(#linear-gradient-20);}.cls-43{fill:#a06869;}.cls-44{fill:url(#linear-gradient-21);}.cls-45{fill:#317279;}.cls-46{fill:url(#linear-gradient-22);}.cls-47{fill:url(#linear-gradient-23);}.cls-48{fill:url(#linear-gradient-24);}.cls-49{stroke-width:1.04px;}.cls-50{fill:#00293f;}.cls-51{fill:url(#linear-gradient-25);}.cls-52{fill:#ffbe7d;}</style><linearGradient id="linear-gradient" x1="186.44" y1="327.61" x2="201.09" y2="327.61" gradientUnits="userSpaceOnUse"><stop offset="0" stop-color="#ffcf9f"/><stop offset="0.18" stop-color="#ffdbb6"/><stop offset="0.54" stop-color="#ffeede"/><stop offset="0.83" stop-color="#fffbf6"/><stop offset="1" stop-color="#fff"/></linearGradient><linearGradient id="linear-gradient-2" x1="109.88" y1="136.34" x2="139.47" y2="136.34" xlink:href="#linear-gradient"/><linearGradient id="linear-gradient-3" x1="44.71" y1="503.72" x2="217.54" y2="503.72" gradientUnits="userSpaceOnUse"><stop offset="0" stop-color="#15b5c6"/><stop offset="0.1" stop-color="#22b9c9"/><stop offset="0.27" stop-color="#43c4d1"/><stop offset="0.5" stop-color="#79d5de"/><stop offset="0.79" stop-color="#c3ecf0"/><stop offset="1" stop-color="#fff"/></linearGradient><linearGradient id="linear-gradient-4" x1="15.87" y1="244.92" x2="153.5" y2="244.92" xlink:href="#linear-gradient-3"/><linearGradient id="linear-gradient-5" x1="95.8" y1="141.7" x2="130.78" y2="141.7" xlink:href="#linear-gradient-3"/><linearGradient id="linear-gradient-6" x1="101.35" y1="97.42" x2="143.13" y2="97.42" xlink:href="#linear-gradient"/><linearGradient id="linear-gradient-7" x1="42.94" y1="367.87" x2="131.16" y2="367.87" xlink:href="#linear-gradient-3"/><linearGradient id="linear-gradient-8" x1="45.39" y1="337.25" x2="141.15" y2="337.25" gradientUnits="userSpaceOnUse"><stop offset="0" stop-color="#f7bc55"/><stop offset="0.12" stop-color="#f8c162"/><stop offset="0.35" stop-color="#f9ce83"/><stop offset="0.65" stop-color="#fce3b9"/><stop offset="1" stop-color="#fff"/></linearGradient><linearGradient id="linear-gradient-9" x1="122.86" y1="690.68" x2="147.23" y2="690.68" xlink:href="#linear-gradient"/><linearGradient id="linear-gradient-10" x1="51.53" y1="758.29" x2="75.89" y2="758.29" gradientTransform="translate(606.81 126.49) rotate(52.11)" xlink:href="#linear-gradient"/><linearGradient id="linear-gradient-11" x1="82.96" y1="209.24" x2="245.32" y2="209.24" gradientUnits="userSpaceOnUse"><stop offset="0" stop-color="#2fadbf"/><stop offset="1" stop-color="#57cad7"/></linearGradient><linearGradient id="linear-gradient-12" x1="219.35" y1="135.11" x2="258.63" y2="135.11" gradientUnits="userSpaceOnUse"><stop offset="0" stop-color="#ffcf9f"/><stop offset="0.03" stop-color="#ffd1a3"/><stop offset="0.47" stop-color="#ffead4"/><stop offset="0.81" stop-color="#fff9f3"/><stop offset="1" stop-color="#fff"/></linearGradient><linearGradient id="linear-gradient-13" x1="151.33" y1="541.77" x2="160" y2="541.77" xlink:href="#linear-gradient-3"/><linearGradient id="linear-gradient-14" x1="86.61" y1="230.71" x2="137.92" y2="230.71" xlink:href="#linear-gradient-3"/><linearGradient id="linear-gradient-15" x1="253.54" y1="90.44" x2="256.18" y2="90.44" xlink:href="#linear-gradient-12"/><linearGradient id="linear-gradient-16" x1="364.57" y1="611.9" x2="413.46" y2="611.9" gradientUnits="userSpaceOnUse"><stop offset="0" stop-color="#fff"/><stop offset="0.17" stop-color="#fffcf9"/><stop offset="0.4" stop-color="#fff4e9"/><stop offset="0.66" stop-color="#ffe7ce"/><stop offset="0.94" stop-color="#ffd4a9"/><stop offset="1" stop-color="#ffcf9f"/></linearGradient><linearGradient id="linear-gradient-17" x1="359.75" y1="630.44" x2="444.38" y2="591.26" xlink:href="#linear-gradient-16"/><linearGradient id="linear-gradient-18" x1="431.2" y1="365.16" x2="450.75" y2="365.16" gradientUnits="userSpaceOnUse"><stop offset="0" stop-color="#d58b8c"/><stop offset="0.16" stop-color="#d79192"/><stop offset="0.36" stop-color="#dda1a2"/><stop offset="0.59" stop-color="#e7bcbd"/><stop offset="0.83" stop-color="#f4e1e1"/><stop offset="1" stop-color="#fff"/></linearGradient><linearGradient id="linear-gradient-19" x1="253.35" y1="247.57" x2="440.86" y2="247.57" gradientUnits="userSpaceOnUse"><stop offset="0" stop-color="#fff"/><stop offset="0.19" stop-color="#fefbfb"/><stop offset="0.37" stop-color="#f9eff0"/><stop offset="0.56" stop-color="#f2dcdc"/><stop offset="0.74" stop-color="#e8c0c1"/><stop offset="0.92" stop-color="#dc9d9e"/><stop offset="1" stop-color="#d58b8c"/></linearGradient><linearGradient id="linear-gradient-20" x1="337.99" y1="452.01" x2="500.04" y2="452.01" gradientUnits="userSpaceOnUse"><stop offset="0" stop-color="#fff"/><stop offset="0.07" stop-color="#fefcf6"/><stop offset="0.5" stop-color="#fbe9c1"/><stop offset="0.82" stop-color="#f9dda0"/><stop offset="1" stop-color="#f8d893"/></linearGradient><linearGradient id="linear-gradient-21" x1="392.9" y1="180.7" x2="421.14" y2="180.7" gradientUnits="userSpaceOnUse"><stop offset="0" stop-color="#fff"/><stop offset="0.12" stop-color="#fff8f0"/><stop offset="0.51" stop-color="#ffe2c4"/><stop offset="0.82" stop-color="#ffd4a9"/><stop offset="1" stop-color="#ffcf9f"/></linearGradient><linearGradient id="linear-gradient-22" x1="379.2" y1="164.52" x2="410.84" y2="164.52" gradientUnits="userSpaceOnUse"><stop offset="0" stop-color="#fff"/><stop offset="0.19" stop-color="#fff9f3"/><stop offset="0.53" stop-color="#ffead4"/><stop offset="0.97" stop-color="#ffd1a3"/><stop offset="1" stop-color="#ffcf9f"/></linearGradient><linearGradient id="linear-gradient-23" x1="442.74" y1="266.11" x2="459.81" y2="266.11" gradientUnits="userSpaceOnUse"><stop offset="0" stop-color="#fff"/><stop offset="0.16" stop-color="#fbfefe"/><stop offset="0.31" stop-color="#effafb"/><stop offset="0.47" stop-color="#dcf4f7"/><stop offset="0.62" stop-color="#c0ebf0"/><stop offset="0.77" stop-color="#9de0e8"/><stop offset="0.92" stop-color="#72d2dd"/><stop offset="1" stop-color="#57cad7"/></linearGradient><linearGradient id="linear-gradient-24" x1="379.43" y1="189.95" x2="486.39" y2="189.95" gradientUnits="userSpaceOnUse"><stop offset="0" stop-color="#fff"/><stop offset="0.14" stop-color="#fbfcfc"/><stop offset="0.27" stop-color="#eff2f3"/><stop offset="0.41" stop-color="#dce1e4"/><stop offset="0.54" stop-color="#c0cace"/><stop offset="0.67" stop-color="#9dacb2"/><stop offset="0.81" stop-color="#718790"/><stop offset="0.93" stop-color="#3e5c69"/><stop offset="1" stop-color="#224453"/></linearGradient><linearGradient id="linear-gradient-25" x1="256.91" y1="88.42" x2="266.85" y2="88.42" xlink:href="#linear-gradient-22"/></defs><g class="cls-1"><g id="Layer_1" data-name="Layer 1"><path class="cls-2" d="M103.3,128.73a60.5,60.5,0,0,1,32-1.38,7.42,7.42,0,0,1,3.06,3.31,7.19,7.19,0,0,1,.65,3,37.16,37.16,0,0,1-12,3.86c-4.32.6-13.21,1.83-19.63-3.64A16.87,16.87,0,0,1,103.3,128.73Z"/><path class="cls-3" d="M199.82,277.46a380.64,380.64,0,0,1,1,46.06,380,380,0,0,1-6.08,54.23l-8.28-12,1.73-87.23Z"/><path class="cls-4" d="M199.82,277.46a380.64,380.64,0,0,1,1,46.06,380,380,0,0,1-6.08,54.23l-8.28-12,1.73-87.23Z"/><path class="cls-3" d="M109.88,135.64a18.19,18.19,0,0,0,3.06-5.14,19.06,19.06,0,0,0,.8-10.93l16.72.16a14.45,14.45,0,0,0,2.89,9.65,14,14,0,0,0,5.63,4.28c1.32,8.32,0,16.3-4.29,18.64C129.22,155.29,117.47,149.91,109.88,135.64Z"/><path class="cls-5" d="M109.88,135.64a18.19,18.19,0,0,0,3.06-5.14,19.06,19.06,0,0,0,.8-10.93l16.72.16a14.45,14.45,0,0,0,2.89,9.65,14,14,0,0,0,5.63,4.28c1.32,8.32,0,16.3-4.29,18.64C129.22,155.29,117.47,149.91,109.88,135.64Z"/><path class="cls-6" d="M64.18,389A139.11,139.11,0,0,0,67,419a136.82,136.82,0,0,0,8.11,26.12c8.1,19.47,12.82,42.22,23.47,87.24,2.32,9.83,4.13,17.92,5.3,23.25L44.71,627.08A36.9,36.9,0,0,0,53,640.74a36.43,36.43,0,0,0,9.7,7.2q24.2-21.37,48.37-42.77c.42,1.64.82,3.28,1.22,4.94a268,268,0,0,1,6.75,73.09,44.69,44.69,0,0,0,30.1-.75,1749,1749,0,0,0,.75-202.72s-6.57-54.55-3.85-55c1.5-.23,4.46,19.14,16.31,47.25,2.21,5.26,4.24,9.64,5.78,12.86l-16.81,26.36,1.14,61.06c16-10.25,58.14-40.23,64.53-88.71.63-4.79,2-18.23-5.14-50.14-5.89-26.18-17.56-64.92-43-109.6a71.6,71.6,0,0,0-20-1.76C98.91,324.8,68.6,380.6,64.18,389Z"/><path class="cls-7" d="M64.18,389A139.11,139.11,0,0,0,67,419a136.82,136.82,0,0,0,8.11,26.12c8.1,19.47,12.82,42.22,23.47,87.24,2.32,9.83,4.13,17.92,5.3,23.25L44.71,627.08A36.9,36.9,0,0,0,53,640.74a36.43,36.43,0,0,0,9.7,7.2q24.2-21.37,48.37-42.77c.42,1.64.82,3.28,1.22,4.94a268,268,0,0,1,6.75,73.09,44.69,44.69,0,0,0,30.1-.75,1749,1749,0,0,0,.75-202.72s-6.57-54.55-3.85-55c1.5-.23,4.46,19.14,16.31,47.25,2.21,5.26,4.24,9.64,5.78,12.86l-16.81,26.36,1.14,61.06c16-10.25,58.14-40.23,64.53-88.71.63-4.79,2-18.23-5.14-50.14-5.89-26.18-17.56-64.92-43-109.6a71.6,71.6,0,0,0-20-1.76C98.91,324.8,68.6,380.6,64.18,389Z"/><path class="cls-8" d="M128,152.63a7.62,7.62,0,0,0,5.17.25,7.52,7.52,0,0,0,4.08-3.15c14.3,20.54,36.13,58.1,43.19,109.5a246.86,246.86,0,0,1,0,66.86c-9.88-3.35-16.64-2.39-21.05-.8-5.31,1.9-6.79,4.55-11.9,5.78,0,0-8.24,2-19.28-4-16.94-9.22-42.34-58.66-30.48-113.46C100.49,200.82,107.51,177.44,128,152.63Z"/><path class="cls-9" d="M95.8,139a145.29,145.29,0,0,0-24.65,45.86c-13.47,42.24,4.39,56.94-12,87.85C49.26,291.4,37,297,23.58,327.59a187.61,187.61,0,0,0-7.71,21c10.19-9.43,19.23-12.3,25.28-13.29,24.53-4,36.94,17.15,69.43,15.43,15.44-.81,21.41-6,23.15-7.71,8.59-8.27,10-22.32,10.28-25.72.53-7.12-.9-10.9,1.29-18.42a42.13,42.13,0,0,1,5.57-11.58C161,270.49,138.3,250.92,141,217.45c1.14-14,6.38-26.31-1-35.42-2.22-2.72-4.45-3.77-7.09-7.65-5.25-7.72-5.44-16.78-4.72-23.36a6.73,6.73,0,0,0,.06-4.29,7,7,0,0,0-1.77-2.57C124.26,142.16,112.3,140.1,95.8,139Z"/><path class="cls-10" d="M95.8,139a145.29,145.29,0,0,0-24.65,45.86c-13.47,42.24,4.39,56.94-12,87.85C49.26,291.4,37,297,23.58,327.59a187.61,187.61,0,0,0-7.71,21c10.19-9.43,19.23-12.3,25.28-13.29,24.53-4,36.94,17.15,69.43,15.43,15.44-.81,21.41-6,23.15-7.71,8.59-8.27,10-22.32,10.28-25.72.53-7.12-.9-10.9,1.29-18.42a42.13,42.13,0,0,1,5.57-11.58C161,270.49,138.3,250.92,141,217.45c1.14-14,6.38-26.31-1-35.42-2.22-2.72-4.45-3.77-7.09-7.65-5.25-7.72-5.44-16.78-4.72-23.36a6.73,6.73,0,0,0,.06-4.29,7,7,0,0,0-1.77-2.57C124.26,142.16,112.3,140.1,95.8,139Z"/><path class="cls-11" d="M141.73,140.3a47,47,0,0,1,6.39,3.07,52.31,52.31,0,0,1,5.71,3.94c17.8,14.37,28.88,57.84,28.88,57.84,4.64,18.21,9.3,39.11,13.34,62.44-.26.28-3.55,3.75-7.72,2.89a7.22,7.22,0,0,1-3.21-1.6c-2.25,14.53-.35,25.22,1.93,32.46,2.89,9.18,7.57,16.52,10.93,31.82,1,4.69,1.6,8.62,1.92,11.25a82.38,82.38,0,0,0-13.5,1c-7,1.08-9.72,2.43-13.17,1-4.41-1.88-6.24-6.78-7.08-9-3.06-8.2-.93-15.79.33-21.21,0,0,2.38-10.29,3.53-32.47,1.46-28-9.29-53.39-11.64-58.71-2.59-5.86-5.51-11.21-7.63-20.45-2.43-10.6-1.41-15.89-2.44-24.34-1-7.85-3.76-18.81-12.06-31.66Z"/><path class="cls-9" d="M145.73,140.3a47,47,0,0,1,6.39,3.07,52.31,52.31,0,0,1,5.71,3.94c17.8,14.37,28.88,57.84,28.88,57.84,4.64,18.21,9.3,39.11,13.34,62.44-.26.28-3.55,3.75-7.72,2.89a7.22,7.22,0,0,1-3.21-1.6c-2.25,14.53-.35,25.22,1.93,32.46,2.89,9.18,7.57,16.52,10.93,31.82,1,4.69,1.6,8.62,1.92,11.25a82.38,82.38,0,0,0-13.5,1c-7,1.08-9.72,2.43-13.17,1-4.41-1.88-6.24-6.78-7.08-9-3.06-8.2-.93-15.79.33-21.21,0,0,2.35-10.14,3.53-32.47.35-6.6,1.94-36.45-13.5-59.78-3.35-5.07-8.06-10.68-10-20.25-1.52-7.65.69-8.06-.32-19.18-1.42-15.46-6.64-25-7.83-27.11a57.71,57.71,0,0,0-6.16-8.84Z"/><path class="cls-12" d="M200.05,267.59a6.12,6.12,0,0,1,2.89,2.73,5.47,5.47,0,0,1,.48,4c-.78,2.35-3.59,3.19-5.78,3.86a19,19,0,0,1-9.47.3c.09-2,.24-4.1.5-6.31.13-1.14.28-2.24.45-3.31a7.56,7.56,0,0,0,10.93-1.29Z"/><path class="cls-11" d="M189.12,268.88A65.88,65.88,0,0,0,188,244.13c-.56-2.36-1.07-3.86-1.68-5.79-4.87-15.22-6.12-23.67-9.08-34.39a183.69,183.69,0,0,0-8.68-24.54c-1.57-3.58-2.26-5-2.25-5a167.25,167.25,0,0,1,14.62,36.16c1.64,6,1.77,8,4.18,16.31,2.83,9.72,4,11.48,5.08,18a107.19,107.19,0,0,1,1.4,14.88c.15,4.18.08,7.73,0,10.38Z"/><path class="cls-13" d="M130.78,143.36l-6,11.31a40.13,40.13,0,0,1-23-9.06,37,37,0,0,1-6-6.59,11.44,11.44,0,0,1,3.64-8.2,10.31,10.31,0,0,1,3.86-2.09,30.82,30.82,0,0,0,5.57,6.54C117.08,142.52,126.93,143.28,130.78,143.36Z"/><path class="cls-14" d="M130.78,143.36l-6,11.31a40.13,40.13,0,0,1-23-9.06,37,37,0,0,1-6-6.59,11.44,11.44,0,0,1,3.64-8.2,10.31,10.31,0,0,1,3.86-2.09,30.82,30.82,0,0,0,5.57,6.54C117.08,142.52,126.93,143.28,130.78,143.36Z"/><path class="cls-13" d="M135.27,127.35a15.59,15.59,0,0,1,7.24,6.2c3,5,2.69,11.67-.64,17.25l-8.57-7.07a9.79,9.79,0,0,0,4.5-4.5C139.5,135.55,138.51,130.84,135.27,127.35Z"/><path class="cls-3" d="M102.72,100.82a34,34,0,0,0,4.34,10.61c1.57,2.49,9.25,14.71,19,13.5,8.46-1.06,12.94-11.62,14.13-14.44A30.73,30.73,0,0,0,142.42,96c.32-1.22,2.66-10.71-3.37-18.48s-16.92-9.46-24.92-6C104.13,76,98.61,88.64,102.72,100.82Z"/><path class="cls-15" d="M102.72,100.82a34,34,0,0,0,4.34,10.61c1.57,2.49,9.25,14.71,19,13.5,8.46-1.06,12.94-11.62,14.13-14.44A30.73,30.73,0,0,0,142.42,96c.32-1.22,2.66-10.71-3.37-18.48s-16.92-9.46-24.92-6C104.13,76,98.61,88.64,102.72,100.82Z"/><path class="cls-16" d="M115.5,122.34c-3.55,1.35-12.21-13-14.09-16.13a108.8,108.8,0,0,1-5.84-11.06S91.1,84.8,94.92,75.91a5.16,5.16,0,0,1,3.27-3.32,5.91,5.91,0,0,1,3.21.21,9.56,9.56,0,0,1,2.82-6,15,15,0,0,1,9.91-4.15c3,0,4.05,1.09,7.88,2.37a43.26,43.26,0,0,0,17.27,1.78,40.72,40.72,0,0,0,14.23-3.95,23.69,23.69,0,0,1,1.27,9.52,15.78,15.78,0,0,1-.19,1.61,36.77,36.77,0,0,1-3.25,9.32,28.75,28.75,0,0,1-4.85,6.37c.15,2.27-.08,5-1.84,6.4-3.76,3-10.7-2.93-15,.15-3.12,2.22-1.55,7.42-5.1,8.89-1.64.67-3.08.06-4.47,1.34a5.5,5.5,0,0,0-1.46,3.61C118,115.43,117.37,121.63,115.5,122.34Z"/><path class="cls-17" d="M161.91,250.76A184.59,184.59,0,0,1,153,296a184.88,184.88,0,0,1-15.6,34.56q-1.19,6.9-2.36,13.81a111.31,111.31,0,0,0,9-13c9.08-15.35,12.28-29.25,15.64-44.41a258.57,258.57,0,0,0,4.72-28.93c0-2.31.08-4.63.13-6.94Z"/><path class="cls-17" d="M162.42,241.7c.73-4.6,1.64-11.18,2.27-19.11,1.16-14.66,2.32-29.24-1.13-46a111.89,111.89,0,0,0-13.37-34.32l3.27,1.89c.62,1,1.23,2.08,1.82,3.15,10.14,18.24,20,48.6,10.48,95.81Z"/><path class="cls-17" d="M61.3,319.88a177.41,177.41,0,0,1,4.53-94.68c0-3.58,0-7.16,0-10.75-2.07,5.35-4,11-5.72,17-10,34.93-8.87,67.08-5,91.66Z"/><path class="cls-11" d="M131.8,347.88a15.3,15.3,0,0,0-4.63,3.8c-7.42-3.3-24-2.95-39.94-2.52-16.94.46-31.15.92-41.58,1.29-1.95,11.77,1.56,22.77,9.43,28.14A20.91,20.91,0,0,0,64.73,382,108.64,108.64,0,0,0,64.18,393c0,2.1.06,4.13.17,6.07,3.25.3,6.9.73,10.88,1.36,6.65,1.05,33.23,6,41.78,6.42,2.17.12,5.62.24,8.36-1.92a4.74,4.74,0,0,0,.95-1c2.36.44,5.25-4.18,8.05-8.64A35.1,35.1,0,0,0,139.51,380L141,346.26A16.57,16.57,0,0,0,131.8,347.88Z"/><path class="cls-18" d="M126.32,393.87c2.36.44,5.25-4.18,8.05-8.64A35.1,35.1,0,0,0,139.51,370L141,336.26a16.57,16.57,0,0,0-9.15,1.62C114.26,347.07,119.37,392.58,126.32,393.87Z"/><path class="cls-19" d="M45.65,340.45a102.87,102.87,0,0,0-2.35,31.93c.58,6.67,1.49,8.9,2.78,10.71,4.65,6.47,12.27,4.58,29.15,7.29,12,1.92,24.91,5.55,41.78,6.42,2.17.12,5.62.24,8.36-1.92,1.13-.9,3.39-3.18,4.5-18,.58-7.84,0-7.35.64-14.79a109.59,109.59,0,0,0,.64-11.14c0-3.43,0-5.14-.18-5.75-2.22-7-23.56-6.58-43.74-6C70.29,339.62,56.08,340.08,45.65,340.45Z"/><path class="cls-20" d="M45.65,340.45a102.87,102.87,0,0,0-2.35,31.93c.58,6.67,1.49,8.9,2.78,10.71,4.65,6.47,12.27,4.58,29.15,7.29,12,1.92,24.91,5.55,41.78,6.42,2.17.12,5.62.24,8.36-1.92,1.13-.9,3.39-3.18,4.5-18,.58-7.84,0-7.35.64-14.79a109.59,109.59,0,0,0,.64-11.14c0-3.43,0-5.14-.18-5.75-2.22-7-23.56-6.58-43.74-6C70.29,339.62,56.08,340.08,45.65,340.45Z"/><path class="cls-11" d="M45.65,342.45c-1.14-4.65,1.79-9.36,3.43-12,5.36-8.62,14.69-11,18.43-12,2.4-.62,5.63-1.21,25.72.64,9.39.87,14.21,1.3,20.35,2.36,17.28,3,22.69,6.42,25.56,10.5.79,1.12,2.61,3.79,1.81,6.31s-3.7,2.89-6.36,5c-5,3.94-3.4,9.66-5.79,13.54-1.64,2.67-6.77,6.71-42.86.86C63.47,354,47.85,351.31,45.65,342.45Z"/><path class="cls-21" d="M45.65,340.45c-1.14-4.65,1.79-9.36,3.43-12,5.36-8.62,14.69-11,18.43-12,2.4-.62,5.63-1.21,25.72.64,9.39.87,14.21,1.3,20.35,2.36,17.28,3,22.69,6.42,25.56,10.5.79,1.12,2.61,3.79,1.81,6.31s-3.7,2.89-6.36,5c-5,3.94-3.4,9.66-5.79,13.54-1.64,2.67-6.77,6.71-42.86.86C63.47,352,47.85,349.31,45.65,340.45Z"/><path class="cls-22" d="M45.65,340.45c-1.14-4.65,1.79-9.36,3.43-12,5.36-8.62,14.69-11,18.43-12,2.4-.62,5.63-1.21,25.72.64,9.39.87,14.21,1.3,20.35,2.36,17.28,3,22.69,6.42,25.56,10.5.79,1.12,2.61,3.79,1.81,6.31s-3.7,2.89-6.36,5c-5,3.94-3.4,9.66-5.79,13.54-1.64,2.67-6.77,6.71-42.86.86C63.47,352,47.85,349.31,45.65,340.45Z"/><path class="cls-23" d="M50.15,360.16c-1.17,1.49-1.44,3.64-1.71,5.79-.15,1.19-.86,6.86,1.5,10.93.89,1.53,3.49,5,21.86,7.71,7.33,1.06,7.67.62,15,1.5,17.93,2.16,24.65,5.91,28,2.22,1.32-1.43,1.47-4.2,1.76-9.72.31-5.75.48-9-.64-11.36-3.65-7.79-18.33-1.29-45-6.85C63,358.73,53.52,355.9,50.15,360.16Z"/><path class="cls-3" d="M122.86,684.27,124.51,697a33.79,33.79,0,0,0,22.72-2.14l-.45-11.6a44.69,44.69,0,0,1-23.92,1Z"/><path class="cls-24" d="M122.86,684.27,124.51,697a33.79,33.79,0,0,0,22.72-2.14l-.45-11.6a44.69,44.69,0,0,1-23.92,1Z"/><path class="cls-25" d="M148.3,694.91a35.43,35.43,0,0,1,10.6.34c12.15,2.26,24,11.18,23,15.7-.91,4.24-13.69,7.22-58.71,4.28A21.51,21.51,0,0,1,124.51,697a38.46,38.46,0,0,0,23.79-2.11Z"/><path class="cls-3" d="M45.07,628.92l-9,9.13a33.73,33.73,0,0,0,15.64,16.61l8.88-7.47a44.68,44.68,0,0,1-15.47-18.27Z"/><path class="cls-26" d="M45.07,628.92l-9,9.13a33.73,33.73,0,0,0,15.64,16.61l8.88-7.47a44.68,44.68,0,0,1-15.47-18.27Z"/><path class="cls-25" d="M52.3,655.54a35.51,35.51,0,0,1,6.24,8.57c5.68,11,5.92,25.81,1.76,27.82-3.91,1.89-14.11-6.37-39.44-43.7A21.47,21.47,0,0,1,36,638.05,38.53,38.53,0,0,0,52.3,655.54Z"/><path class="cls-11" d="M146.2,426.51c-.89-5.77-1.64-11.9-2.19-18.35a272.41,272.41,0,0,1-.86-30.43q2.15,17,4.85,34.72,3,19.59,6.43,38.14Z"/><path class="cls-11" d="M122.54,124.81a12.75,12.75,0,0,0,8.82-2,5.28,5.28,0,0,1-1.9,3.61c-2.41,1.79-7.07.91-10.77-3A11.65,11.65,0,0,0,122.54,124.81Z"/><path class="cls-27" d="M139.65,102.82v3.77"/><path class="cls-27" d="M130.65,102.82v3.77"/><path class="cls-28" d="M136.15,116.06c-.93-.13-1.9-.25-2.88-.35-1.45-.16-2.86-.27-4.21-.35-.36,2.81,1.8,5,3.72,4.85C134.42,120.13,136.11,118.39,136.15,116.06Z"/><path class="cls-29" d="M245.32,201.07c-5.49,14.84-13.68,29.74-26.71,39.2-31,22.5-86.83,12.19-135.65-26.36l29.9-47.46a110.15,110.15,0,0,0,45,27.85c14.28,4.52,33.93,10.75,51.43,1.29a37.43,37.43,0,0,0,10.06-7.92Z"/><path class="cls-3" d="M219.35,187.67a169.47,169.47,0,0,0,28.35-85.34,59.46,59.46,0,0,1-1.13-12.28c.13-10.9,3.28-21,4.72-20.89,1.21.13.29,7.55,2.67,20.14A108.27,108.27,0,0,0,257.5,103a222.72,222.72,0,0,1-3.21,66.21,220.66,220.66,0,0,1-9,31.84Z"/><path class="cls-30" d="M219.35,187.67a169.47,169.47,0,0,0,28.35-85.34,59.46,59.46,0,0,1-1.13-12.28c.13-10.9,3.28-21,4.72-20.89,1.21.13.29,7.55,2.67,20.14A108.27,108.27,0,0,0,257.5,103a222.72,222.72,0,0,1-3.21,66.21,220.66,220.66,0,0,1-9,31.84Z"/><path class="cls-11" d="M168.14,484.88l3.54,5.78-20.35,20.58Z"/><path class="cls-31" d="M111.08,605.17q-1.71-11.77-3.43-23.55-1.91-13-3.79-26-18.66,21.57-37.5,44.57-11.07,13.53-21.65,26.92A36.9,36.9,0,0,0,53,640.74a36.43,36.43,0,0,0,9.7,7.2Q86.91,626.57,111.08,605.17Z"/><path class="cls-32" d="M151.33,511.24q.66,18.16.95,37,.18,12.18.19,24.1l7.53-5.06Z"/><path class="cls-33" d="M86.61,216.72a186,186,0,0,0,51.31,28,75.89,75.89,0,0,1-51.31-28Z"/><path class="cls-3" d="M253.54,86.89q1.07-4.5,1.71-4.44,1.19.1.86,16c-.64-2.26-1.23-4.67-1.76-7.21C254,89.75,253.77,88.3,253.54,86.89Z"/><path class="cls-34" d="M253.54,86.89q1.07-4.5,1.71-4.44,1.19.1.86,16c-.64-2.26-1.23-4.67-1.76-7.21C254,89.75,253.77,88.3,253.54,86.89Z"/><path class="cls-12" d="M243.76,203.28c-.93-2.7-4.56-3-9.55-5.78a35.44,35.44,0,0,1-3.26-2.06h0c-5.6-3.63-8.46-5.44-11.36-4.82-1.62.35-3.17,1.29-4.62.49a4,4,0,0,1-1.73-4.06c.52-2.59,4.2-4,6.63-4.39,6.4-1,13.77,3.69,17.68,8.24,1.8,2.1,3,4.39,6,5.37,1.47.48,3.06.41,4.43,1.78a3.92,3.92,0,0,1,1.33,3c-.22,2.06-2.84,3.07-3.32,3.24a5.8,5.8,0,0,1-2,.33A3.78,3.78,0,0,0,243.76,203.28Z"/><path class="cls-35" d="M413.46,508.27c-12.38,1.58-24.76,7.66-37.14,9.24l9.42,186.9q-21.66,6.95-21.15,9.55.65,3.35,37.75-.45C406.05,646.6,409.76,575.18,413.46,508.27Z"/><path class="cls-36" d="M413.46,508.27c-12.38,1.58-24.76,7.66-37.14,9.24l9.42,186.9q-21.66,6.95-21.15,9.55.65,3.35,37.75-.45C406.05,646.6,409.76,575.18,413.46,508.27Z"/><path class="cls-3" d="M353,518.8l11.15,32.75q31.72,68.7,63.46,137.39A32.61,32.61,0,0,1,423,705.32c-3.69,6-8,8-7.28,9.32,1.11,2.24,14.37.5,23.32-8a30.76,30.76,0,0,0,7.17-10.46q-23.4-71.43-46.79-142.87l1.66-37.21Z"/><path class="cls-37" d="M353,518.8l11.15,32.75q31.72,68.7,63.46,137.39A32.61,32.61,0,0,1,423,705.32c-3.69,6-8,8-7.28,9.32,1.11,2.24,14.37.5,23.32-8a30.76,30.76,0,0,0,7.17-10.46q-23.4-71.43-46.79-142.87l1.66-37.21Z"/><path class="cls-38" d="M446.13,343.24a75.17,75.17,0,0,0,.83,7.9c1.35,8.63,3.09,10.11,3.61,15.25.17,1.74,1.36,13.38-5.8,18.43-3.88,2.73-8.56,2.38-10.88,2L431.2,384l5.25-36.83Z"/><path class="cls-39" d="M446.13,343.24a75.17,75.17,0,0,0,.83,7.9c1.35,8.63,3.09,10.11,3.61,15.25.17,1.74,1.36,13.38-5.8,18.43-3.88,2.73-8.56,2.38-10.88,2L431.2,384l5.25-36.83Z"/><path class="cls-40" d="M500,502.08a81,81,0,0,1-13.53,8.3c-30.85,14.94-63,5.91-75.81,1.48A110.17,110.17,0,0,1,500,502.08Z"/><path class="cls-38" d="M253.35,109.36,267,106c11.78,25,20.46,45.64,26.27,60.05,9.32,23.09,11.12,29.76,19.45,35.48,14.64,10.05,39.59,10.45,57.78,3.87,7-2.52,16.64-7.4,30.22-6.45a36.19,36.19,0,0,1,13,3c11.29,5.37,16.16,16.7,18.2,21.61,11.47,27.7-7.07,39.95,0,78.24,2.61,14.19,8.25,29.24,5.34,42.48-.72,3.27-2.39,8.41-.8,14.85s4.92,8.21,4.33,13c-.77,6.12-7.14,9.78-8,10.24-6.45,3.58-13.64,1.94-16.6,1.36-25.51-5-36.55,10.39-64.15,3.87-13.11-3.1-16.68-8.2-18.19-11.15-3.64-7.11-1.63-16.64,2.5-22.74,4.45-6.59,9.13-5.88,15-13.65a39,39,0,0,0,6.37-13.65c3.09-10.47,4.88-32.41-4.43-50.16-16.43-31.28-55.93-19.36-76.77-53.56-3.67-6-5.76-15-9.79-32.76A699.08,699.08,0,0,1,253.35,109.36Z"/><path class="cls-41" d="M253.35,109.36,267,106c11.78,25,20.46,45.64,26.27,60.05,9.32,23.09,11.12,29.76,19.45,35.48,14.64,10.05,39.59,10.45,57.78,3.87,7-2.52,16.64-7.4,30.22-6.45a36.19,36.19,0,0,1,13,3c11.29,5.37,16.16,16.7,18.2,21.61,11.47,27.7-7.07,39.95,0,78.24,2.61,14.19,8.25,29.24,5.34,42.48-.72,3.27-2.39,8.41-.8,14.85s4.92,8.21,4.33,13c-.77,6.12-7.14,9.78-8,10.24-6.45,3.58-13.64,1.94-16.6,1.36-25.51-5-36.55,10.39-64.15,3.87-13.11-3.1-16.68-8.2-18.19-11.15-3.64-7.11-1.63-16.64,2.5-22.74,4.45-6.59,9.13-5.88,15-13.65a39,39,0,0,0,6.37-13.65c3.09-10.47,4.88-32.41-4.43-50.16-16.43-31.28-55.93-19.36-76.77-53.56-3.67-6-5.76-15-9.79-32.76A699.08,699.08,0,0,1,253.35,109.36Z"/><path class="cls-21" d="M345.7,385.64a204.29,204.29,0,0,0-7.05,39c-3.28,40.47,6.28,73.63,14.33,94.17a86.16,86.16,0,0,0,29.35,2c23.16-2.45,27.58-12.91,46.4-13,19.32-.05,27.85,14.24,39.58,8.19,5.1-2.63,6.15-6.52,14-10.24A40.52,40.52,0,0,1,500,502.08c-1.74-7.95-5.45-18.69-14.33-27.3-12.71-12.32-22.56-7.2-31-17.4-11.59-13.92,1.83-30.6-10-54.59a73.35,73.35,0,0,0-14-19.45,25.58,25.58,0,0,1-4.52,1c-5.16.66-8.39-.61-13.62-1.28a56.43,56.43,0,0,0-10.14-.26c-9.07.31-10.95,2.52-22.62,4.65-5.62,1-10.74,2-17.4,1.62A56.82,56.82,0,0,1,345.7,385.64Z"/><path class="cls-42" d="M345.7,385.64a204.29,204.29,0,0,0-7.05,39c-3.28,40.47,6.28,73.63,14.33,94.17a86.16,86.16,0,0,0,29.35,2c23.16-2.45,27.58-12.91,46.4-13,19.32-.05,27.85,14.24,39.58,8.19,5.1-2.63,6.15-6.52,14-10.24A40.52,40.52,0,0,1,500,502.08c-1.74-7.95-5.45-18.69-14.33-27.3-12.71-12.32-22.56-7.2-31-17.4-11.59-13.92,1.83-30.6-10-54.59a73.35,73.35,0,0,0-14-19.45,25.58,25.58,0,0,1-4.52,1c-5.16.66-8.39-.61-13.62-1.28a56.43,56.43,0,0,0-10.14-.26c-9.07.31-10.95,2.52-22.62,4.65-5.62,1-10.74,2-17.4,1.62A56.82,56.82,0,0,1,345.7,385.64Z"/><path class="cls-43" d="M386.74,199.92a25.32,25.32,0,0,1,1-5.52c.71-2.42,1.36-4.65,2.73-6,2.69-2.59,6.64-.19,14.42.17,10.2.47,13.11-3.22,16.8-.51,4.24,3.12,3.8,10.49,3.67,12a18,18,0,0,1-2.86,8.15,37.86,37.86,0,0,0-35.72-8.35Z"/><path class="cls-3" d="M396.44,187.52a23,23,0,0,0-2.17-7.28,24,24,0,0,0-1.37-2.39,21,21,0,0,1,12-5.28c9-.84,15.28,4.77,16.29,5.71l-1,9a33.65,33.65,0,0,0-3.51-.1,46.06,46.06,0,0,0-9.22,1.43A21.37,21.37,0,0,1,396.44,187.52Z"/><path class="cls-44" d="M396.44,187.52a23,23,0,0,0-2.17-7.28,24,24,0,0,0-1.37-2.39,21,21,0,0,1,12-5.28c9-.84,15.28,4.77,16.29,5.71l-1,9a33.65,33.65,0,0,0-3.51-.1,46.06,46.06,0,0,0-9.22,1.43A21.37,21.37,0,0,1,396.44,187.52Z"/><path class="cls-45" d="M436.45,347.12a27.43,27.43,0,0,0,12.75-6.2c9.92-8.73,9.43-21.75,9.33-23.65l-7.21.76Z"/><path class="cls-3" d="M406.34,179.36a106.46,106.46,0,0,1-14.78,3.19c-6.75,1-8.26.52-9.34-.24-4.31-3-3-11.58-2.25-16.08,1.19-7.58,2.68-17,9.82-19.63,5.84-2.14,12.81,1.25,16.55,5.44C412.22,158.63,412.47,169.83,406.34,179.36Z"/><path class="cls-46" d="M406.34,179.36a106.46,106.46,0,0,1-14.78,3.19c-6.75,1-8.26.52-9.34-.24-4.31-3-3-11.58-2.25-16.08,1.19-7.58,2.68-17,9.82-19.63,5.84-2.14,12.81,1.25,16.55,5.44C412.22,158.63,412.47,169.83,406.34,179.36Z"/><path class="cls-9" d="M442.74,235l14.07,6.47a140.19,140.19,0,0,1,.41,55.68L445.45,294Z"/><path class="cls-47" d="M442.74,235l14.07,6.47a140.19,140.19,0,0,1,.41,55.68L445.45,294Z"/><path class="cls-9" d="M420.54,240.38a12.22,12.22,0,0,0-2.08,6.46c-.71,12.43-3,44.86-4.74,58C411.15,324.42,406,330.38,411,339c3,5.25,9.14,10.37,16.38,10.57,9.79.28,16.34-8.57,18.08-10.92,12.74-17.21,1-42.64,0-44.69a205.27,205.27,0,0,0,4.43-33.78c.83-17.63-1.33-21-3.41-22.86C439.82,231.36,425.51,233.3,420.54,240.38Z"/><path class="cls-6" d="M381.56,151.66a11,11,0,0,1-2.12-6.12c-.18-6.62,7.78-13.68,15.6-15.61,12.22-3,23.27,6.72,25.72,8.87,12,10.53,7.41,19.08,17.74,27.49,12.76,10.4,35.28,10,40.34,1.78a8.15,8.15,0,0,0,1.16-3.73c1.78,2.22,7,9.35,5.68,18.09a19.29,19.29,0,0,1-1.24,4.44,29.51,29.51,0,0,1-13.3,6.92,30.53,30.53,0,0,1-21.29-3.37c1.87,1.29,11.16,7.44,22.93,5A28.41,28.41,0,0,0,485.5,189a19.51,19.51,0,0,1-2.78,11.17,19.83,19.83,0,0,1-10.28,8.28,25.56,25.56,0,0,0,12.41-.95c.54-.18,1-.38,1.54-.59-.17,4.51-1.25,16.19-10.11,24.48a29,29,0,0,1-5,3.72,24.58,24.58,0,0,1-21.1-11,21.35,21.35,0,0,0,18.09,14.72,20.51,20.51,0,0,1-8.16,9,20,20,0,0,1-8.34,2.66c-4.13-.59-16.34-2.9-23.94-13.12-5.93-8-6.76-17.68-7.1-21.64-.84-9.85,2.05-10.85-.17-15.79-2.75-6.1-7.76-5.93-16.68-16.67-2.66-3.21-3.82-5.15-4.16-7.63-.62-4.37,1.91-5.83,1.5-10.64-.27-3.18-1.84-7.92-5.23-9.31-2.68-1.1-3.9,1-8,0A11.5,11.5,0,0,1,381.56,151.66Z"/><path class="cls-48" d="M381.56,151.66a11,11,0,0,1-2.12-6.12c-.18-6.62,7.78-13.68,15.6-15.61,12.22-3,23.27,6.72,25.72,8.87,12,10.53,7.41,19.08,17.74,27.49,12.76,10.4,35.28,10,40.34,1.78a8.15,8.15,0,0,0,1.16-3.73c1.78,2.22,7,9.35,5.68,18.09a19.29,19.29,0,0,1-1.24,4.44,29.51,29.51,0,0,1-13.3,6.92,30.53,30.53,0,0,1-21.29-3.37c1.87,1.29,11.16,7.44,22.93,5A28.41,28.41,0,0,0,485.5,189a19.51,19.51,0,0,1-2.78,11.17,19.83,19.83,0,0,1-10.28,8.28,25.56,25.56,0,0,0,12.41-.95c.54-.18,1-.38,1.54-.59-.17,4.51-1.25,16.19-10.11,24.48a29,29,0,0,1-5,3.72,24.58,24.58,0,0,1-21.1-11,21.35,21.35,0,0,0,18.09,14.72,20.51,20.51,0,0,1-8.16,9,20,20,0,0,1-8.34,2.66c-4.13-.59-16.34-2.9-23.94-13.12-5.93-8-6.76-17.68-7.1-21.64-.84-9.85,2.05-10.85-.17-15.79-2.75-6.1-7.76-5.93-16.68-16.67-2.66-3.21-3.82-5.15-4.16-7.63-.62-4.37,1.91-5.83,1.5-10.64-.27-3.18-1.84-7.92-5.23-9.31-2.68-1.1-3.9,1-8,0A11.5,11.5,0,0,1,381.56,151.66Z"/><path class="cls-12" d="M414.32,299.74A28.3,28.3,0,0,1,445.45,294,48.46,48.46,0,0,1,451,313.63c.31,5.22,1.08,18.09-7.68,27.67-2.23,2.44-7.71,8.42-16,8.26a19.52,19.52,0,0,1-17.18-12.14c-1.53-4-1-7.6.09-14.82.76-5.1,1.81-7.3,3-14.68C413.84,304.48,414.15,301.63,414.32,299.74Z"/><path class="cls-19" d="M445.45,294c3.26,6.66,3.61,11.87,3.24,15.52-.31,3.1-1.15,5.28.17,7,2,2.56,7.8,2.58,10.58.17,3.57-3.1,3.28-11.21-2.22-19.45Z"/><path class="cls-9" d="M353.33,276.2a55.83,55.83,0,0,0,1.19,25.08,56.84,56.84,0,0,0,18.77,28.32,7.5,7.5,0,0,0,2.9-4.6c.69-4.06-2.58-6.87-2.73-7-3.71-2.82-10.88-9.21-13.67-19.58a32.65,32.65,0,0,1-1.09-6.94,59.14,59.14,0,0,0-5.37-15.28Z"/><path class="cls-6" d="M375.84,321.48a37.84,37.84,0,0,0,25.94,5.9c-.29,2.11-.57,4.21-.86,6.32a43.07,43.07,0,0,1-16.72-.17,42.15,42.15,0,0,1-10.91-3.93,7.12,7.12,0,0,0,2.45-3.09A7.26,7.26,0,0,0,375.84,321.48Z"/><path class="cls-6" d="M400.92,333.7a22.92,22.92,0,0,1,.57-4.24c.55-2.35.91-3.88,2.08-5.23.45-.53,1.25-1.28,5.8-3,2.65-1,4.55-1.55,5-1.7,2.64-.86,6.07-3.63,9.21-12.29,4.39,9.69,4,19.77-1.36,25.48a16.76,16.76,0,0,1-8.76,4.78C406.79,338.54,401.77,334.41,400.92,333.7Z"/><path class="cls-11" d="M395,182c1.3-.23,2.63-.49,4-.79.87-.18,1.72-.38,2.56-.58a9.65,9.65,0,0,1-6.11,2.6Z"/><path class="cls-49" d="M385.54,159.55c-.44,1.56-.89,3.12-1.33,4.68"/><path class="cls-28" d="M379.3,171.43l3.82.15a7.08,7.08,0,0,1-2.13,2.47,7.55,7.55,0,0,1-1.77.92c0-.64,0-1.31,0-2C379.23,172.42,379.26,171.92,379.3,171.43Z"/><path class="cls-50" d="M364.14,714.3c-.43-1.93,7.32-5.26,9.54-6.21a57.86,57.86,0,0,1,12.06-3.68,18.74,18.74,0,0,0,9.58,2.5,18.51,18.51,0,0,0,7.49-1.72,8.27,8.27,0,0,1,.92,4.19,8.14,8.14,0,0,1-1.39,4.13,194.62,194.62,0,0,1-27.81,2.29C368,715.86,364.42,715.54,364.14,714.3Z"/><path class="cls-50" d="M427.43,691.7a31.21,31.21,0,0,1-3.54,12.12c-3.82,7.11-8.87,9.34-8.13,10.82,1.11,2.22,13.1.63,21.77-6.59a31.94,31.94,0,0,0,8.72-11.83,7.22,7.22,0,0,0-.36-3.56,7.07,7.07,0,0,0-1.65-2.57,13,13,0,0,1-8.53,4.07A12.77,12.77,0,0,1,427.43,691.7Z"/><path class="cls-3" d="M266.85,106.4a111,111,0,0,0-4.68-28.87c-1.43-4.76-2.84-9.43-3.88-9.3-1.33.17-2.16,8.08-.28,40.38Z"/><path class="cls-51" d="M266.85,106.4a111,111,0,0,0-4.68-28.87c-1.43-4.76-2.84-9.43-3.88-9.3-1.33.17-2.16,8.08-.28,40.38Z"/><path class="cls-52" d="M257,86.34c-1.32-3.5-1.91-4.16-2.21-4.1-.75.17-.48,5.27.64,9.72a32,32,0,0,0,2,5.62Z"/></g></g></svg>